<svg width="354" height="655" viewBox="0 0 354 655" fill="none" xmlns="http://www.w3.org/2000/svg">
<path d="M98.8644 511.892C122.174 510.46 141.554 502.394 154.258 487.151C192.778 440.932 155.333 346.231 70.6218 275.631C-14.0889 205.031 -113.987 185.267 -152.507 231.486C-165.211 246.729 -169.652 267.245 -166.861 290.431C-119.493 287.52 -55.8979 312.002 0.875238 359.318C57.6484 406.634 93.1912 464.775 98.8644 511.892Z" fill="url(#paint0_linear_197_7519)"/>
<path d="M-68.8713 443.006C15.8394 513.606 115.738 533.37 154.258 487.151L84.511 570.838C45.991 617.057 -53.9072 597.292 -138.618 526.692C-223.329 456.092 -260.774 361.392 -222.254 315.173L-152.507 231.486C-191.027 277.705 -153.582 372.406 -68.8713 443.006Z" fill="url(#paint1_linear_197_7519)"/>
<path d="M162.957 388.294C182.299 387.105 198.38 380.412 208.921 367.764C240.885 329.412 209.813 250.831 139.522 192.248C69.2296 133.665 -13.6646 117.264 -45.628 155.616C-56.1695 168.265 -59.8549 185.289 -57.5383 204.528C-18.2331 202.112 34.5371 222.428 81.6467 261.69C128.756 300.952 158.249 349.197 162.957 388.294Z" fill="url(#paint2_linear_197_7519)"/>
<path d="M23.7719 331.131C94.0638 389.714 176.958 406.115 208.921 367.763L151.047 437.205C119.083 475.557 36.189 459.156 -34.1029 400.573C-104.395 341.991 -135.466 263.409 -103.503 225.057L-45.6279 155.615C-77.5913 193.967 -46.5199 272.548 23.7719 331.131Z" fill="url(#paint3_linear_197_7519)"/>
<path d="M218.86 275.97C234.289 275.022 247.118 269.683 255.527 259.593C281.025 228.999 256.238 166.313 200.165 119.58C144.092 72.8473 77.9654 59.7643 52.4675 90.3584C44.0584 100.448 41.1185 114.029 42.9664 129.376C74.321 127.449 116.417 143.655 153.997 174.976C191.578 206.296 215.105 244.782 218.86 275.97Z" fill="url(#paint4_linear_197_7519)"/>
<path d="M109.06 227.28C165.134 274.013 231.26 287.096 256.758 256.502L210.59 311.898C185.092 342.492 118.966 329.409 62.8925 282.676C6.81922 235.943 -17.9671 173.257 7.53079 142.663L53.6987 87.2676C28.2009 117.862 52.9872 180.548 109.06 227.28Z" fill="url(#paint5_linear_197_7519)"/>
<defs>
<linearGradient id="paint0_linear_197_7519" x1="70.6218" y1="275.631" x2="-25.2797" y2="390.701" gradientUnits="userSpaceOnUse">
<stop stop-color="#46B4A6"/>
<stop offset="1" stop-color="#413687"/>
</linearGradient>
<linearGradient id="paint1_linear_197_7519" x1="-39.8103" y1="408.136" x2="-138.618" y2="526.692" gradientUnits="userSpaceOnUse">
<stop stop-color="#60EFC8"/>
<stop offset="0.419792" stop-color="#4BC1AD"/>
<stop offset="1" stop-color="#379392"/>
</linearGradient>
<linearGradient id="paint2_linear_197_7519" x1="139.521" y1="192.248" x2="59.9436" y2="287.731" gradientUnits="userSpaceOnUse">
<stop stop-color="#46B4A6"/>
<stop offset="1" stop-color="#413687"/>
</linearGradient>
<linearGradient id="paint3_linear_197_7519" x1="47.8865" y1="302.197" x2="-34.1029" y2="400.573" gradientUnits="userSpaceOnUse">
<stop stop-color="#60EFC8"/>
<stop offset="0.419792" stop-color="#4BC1AD"/>
<stop offset="1" stop-color="#379392"/>
</linearGradient>
<linearGradient id="paint4_linear_197_7519" x1="200.165" y1="119.58" x2="136.684" y2="195.749" gradientUnits="userSpaceOnUse">
<stop stop-color="#46B4A6"/>
<stop offset="1" stop-color="#413687"/>
</linearGradient>
<linearGradient id="paint5_linear_197_7519" x1="128.297" y1="204.199" x2="62.8925" y2="282.676" gradientUnits="userSpaceOnUse">
<stop stop-color="#60EFC8"/>
<stop offset="0.419792" stop-color="#4BC1AD"/>
<stop offset="1" stop-color="#379392"/>
</linearGradient>
</defs>
</svg>
