<svg width="60" height="117" viewBox="0 0 60 117" fill="none" xmlns="http://www.w3.org/2000/svg">
<path d="M29.9474 58.5021C37.7053 58.5021 45.1454 55.4203 50.6311 49.9346C56.1167 44.449 59.1985 37.0089 59.1985 29.251C59.1985 21.4932 56.1167 14.0531 50.6311 8.56743C45.1454 3.0818 37.7053 1.1714e-06 29.9474 0L29.9474 29.251L29.9474 58.5021Z" fill="url(#paint0_linear_331_5265)"/>
<path d="M29.9473 -0.000114441C22.1895 -0.000114441 14.7494 3.08168 9.26373 8.56731C3.7781 14.0529 0.696297 21.4931 0.696297 29.2509C0.696297 37.0088 3.77809 44.4489 9.26373 49.9345C14.7494 55.4202 22.1895 58.502 29.9473 58.502L29.9473 29.2509L29.9473 -0.000114441Z" fill="url(#paint1_linear_331_5265)"/>
<path d="M29.5994 87.7511C37.3573 87.7511 44.7974 84.6693 50.283 79.1837C55.7687 73.698 58.8505 66.2579 58.8505 58.5001C58.8505 50.7422 55.7687 43.3021 50.283 37.8165C44.7974 32.3308 37.3573 29.249 29.5994 29.249L29.5994 58.5001L29.5994 87.7511Z" fill="url(#paint2_linear_331_5265)"/>
<path d="M29.5993 29.2489C21.8415 29.2489 14.4013 32.3307 8.9157 37.8163C3.43007 43.302 0.348274 50.7421 0.348274 58.4999C0.348274 66.2578 3.43007 73.6979 8.9157 79.1835C14.4013 84.6692 21.8414 87.751 29.5993 87.751L29.5993 58.4999L29.5993 29.2489Z" fill="url(#paint3_linear_331_5265)"/>
<path d="M29.2513 117C37.0091 117 44.4492 113.918 49.9349 108.433C55.4205 102.947 58.5023 95.5069 58.5023 87.7491C58.5023 79.9912 55.4205 72.5511 49.9349 67.0655C44.4493 61.5798 37.0091 58.498 29.2513 58.498L29.2513 87.7491L29.2513 117Z" fill="url(#paint4_linear_331_5265)"/>
<path d="M29.2512 58.4979C21.4933 58.4979 14.0532 61.5797 8.56756 67.0654C3.08193 72.551 0.0001297 79.9911 0.0001297 87.749C0.0001297 95.5068 3.08192 102.947 8.56756 108.433C14.0532 113.918 21.4933 117 29.2512 117L29.2512 87.749L29.2512 58.4979Z" fill="url(#paint5_linear_331_5265)"/>
<defs>
<linearGradient id="paint0_linear_331_5265" x1="29.9474" y1="0" x2="29.9474" y2="58.5021" gradientUnits="userSpaceOnUse">
<stop stop-color="#45B3A5" stop-opacity="0"/>
<stop offset="1" stop-color="#40A89F"/>
</linearGradient>
<linearGradient id="paint1_linear_331_5265" x1="29.9473" y1="58.502" x2="29.9473" y2="-0.000114441" gradientUnits="userSpaceOnUse">
<stop stop-color="#45B3A5" stop-opacity="0"/>
<stop offset="1" stop-color="#40A89F"/>
</linearGradient>
<linearGradient id="paint2_linear_331_5265" x1="29.5994" y1="29.249" x2="29.5994" y2="87.7511" gradientUnits="userSpaceOnUse">
<stop stop-color="#45B3A5" stop-opacity="0"/>
<stop offset="1" stop-color="#40A89F"/>
</linearGradient>
<linearGradient id="paint3_linear_331_5265" x1="29.5993" y1="87.751" x2="29.5993" y2="29.2489" gradientUnits="userSpaceOnUse">
<stop stop-color="#45B3A5" stop-opacity="0"/>
<stop offset="1" stop-color="#40A89F"/>
</linearGradient>
<linearGradient id="paint4_linear_331_5265" x1="29.2513" y1="58.498" x2="29.2513" y2="117" gradientUnits="userSpaceOnUse">
<stop stop-color="#45B3A5" stop-opacity="0"/>
<stop offset="1" stop-color="#40A89F"/>
</linearGradient>
<linearGradient id="paint5_linear_331_5265" x1="29.2512" y1="117" x2="29.2512" y2="58.4979" gradientUnits="userSpaceOnUse">
<stop stop-color="#45B3A5" stop-opacity="0"/>
<stop offset="1" stop-color="#40A89F"/>
</linearGradient>
</defs>
</svg>
