<svg width="1440" height="2654" viewBox="0 0 1440 2654" fill="none" xmlns="http://www.w3.org/2000/svg">
<g clip-path="url(#clip0_1420_3464)">
<rect width="1440" height="2654" fill="white"/>
<rect y="1592" width="1440" height="173" fill="url(#paint0_linear_1420_3464)"/>
<rect y="1765" width="1439" height="889" fill="#644A8B"/>
<path d="M0 -7H1440V1592H0V-7Z" fill="#2A1D7D"/>
<path d="M0 -7H1440V1592H0V-7Z" fill="#2A1D7D"/>
<rect y="8" width="1440" height="4148" fill="url(#paint1_linear_1420_3464)"/>
<g filter="url(#filter0_f_1420_3464)">
<path d="M2102 949.792C2102 1179.65 1880.28 1366 1606.78 1366C1333.28 1366 1111.56 1179.65 1111.56 949.792C1111.56 719.929 1333.28 533.588 1606.78 533.588C1880.28 533.588 2102 719.929 2102 949.792Z" fill="#F8A738"/>
</g>
<g filter="url(#filter1_f_1420_3464)">
<path d="M501 1521.5C501 1437.29 465.389 1356.54 402.002 1296.99C338.615 1237.45 252.643 1204 163 1204C73.3569 1204 -12.6148 1237.45 -76.0021 1296.99C-139.389 1356.54 -175 1437.29 -175 1521.5L163 1521.5H501Z" fill="#00FFFC"/>
</g>
<g filter="url(#filter2_f_1420_3464)">
<ellipse cx="83.8528" cy="143.702" rx="513.853" ry="389.887" fill="#FA2929"/>
</g>
<path d="M1381.5 337.999C1365.98 337.999 1351.1 331.704 1340.13 320.498C1329.16 309.293 1323 294.095 1323 278.249C1323 262.402 1329.16 247.205 1340.13 236C1351.11 224.795 1365.98 218.5 1381.5 218.5L1381.5 278.25L1381.5 337.999Z" fill="url(#paint2_linear_1420_3464)"/>
<path d="M1381.5 218.5C1397.01 218.501 1411.89 224.796 1422.86 236.001C1433.83 247.207 1440 262.404 1440 278.251C1440 294.097 1433.83 309.295 1422.86 320.5C1411.89 331.705 1397.01 337.999 1381.5 337.999L1381.5 278.25L1381.5 218.5Z" fill="url(#paint3_linear_1420_3464)"/>
<path d="M1381.5 278.25C1365.98 278.249 1351.1 271.954 1340.13 260.749C1329.16 249.543 1323 234.346 1323 218.499C1323 202.653 1329.16 187.455 1340.13 176.25C1351.11 165.045 1365.98 158.751 1381.5 158.751L1381.5 218.5L1381.5 278.25Z" fill="url(#paint4_linear_1420_3464)"/>
<path d="M1381.5 158.751C1397.01 158.751 1411.89 165.046 1422.86 176.252C1433.83 187.457 1440 202.655 1440 218.501C1440 234.348 1433.83 249.545 1422.86 260.75C1411.89 271.955 1397.01 278.25 1381.5 278.25L1381.5 218.5L1381.5 158.751Z" fill="url(#paint5_linear_1420_3464)"/>
<path d="M1381.5 218.5C1365.98 218.5 1351.11 212.205 1340.14 200.999C1329.17 189.794 1323 174.596 1323 158.75C1323 142.903 1329.17 127.706 1340.14 116.501C1351.11 105.296 1365.99 99.001 1381.5 99.0013L1381.5 158.751L1381.5 218.5Z" fill="url(#paint6_linear_1420_3464)"/>
<path d="M1381.5 99.0017C1397.02 99.002 1411.9 105.297 1422.87 116.503C1433.84 127.708 1440 142.906 1440 158.752C1440 174.599 1433.83 189.796 1422.86 201.001C1411.89 212.206 1397.01 218.501 1381.5 218.501L1381.5 158.751L1381.5 99.0017Z" fill="url(#paint7_linear_1420_3464)"/>
<path d="M239.523 125L210.999 157.803V183L239.523 153.525V125Z" fill="url(#paint8_linear_1420_3464)"/>
<path d="M267.574 153.524H239.525L211.476 182.524H239.525L267.574 153.524Z" fill="url(#paint9_linear_1420_3464)"/>
<path d="M239.381 125H268.049L244.828 153.095H239.381V125Z" fill="url(#paint10_linear_1420_3464)"/>
<path d="M268.049 125L267.762 153.095H244.971V146.358L268.049 125Z" fill="url(#paint11_linear_1420_3464)"/>
<path d="M267.762 153.382H239.38" stroke="url(#paint12_linear_1420_3464)"/>
<path d="M239.381 154.476V125.951" stroke="url(#paint13_linear_1420_3464)"/>
<path d="M84.502 153L0.998924 249.028V322.789L84.502 236.503V153Z" fill="url(#paint14_linear_1420_3464)"/>
<path d="M166.613 236.503H84.502L2.39066 321.398H84.502L166.613 236.503Z" fill="url(#paint15_linear_1420_3464)"/>
<path d="M84.0832 153H168.006L100.029 235.244H84.0832V153Z" fill="url(#paint16_linear_1420_3464)"/>
<path d="M168.006 153L167.167 235.244H100.448V215.522L168.006 153Z" fill="url(#paint17_linear_1420_3464)"/>
<path d="M167.166 236.084H84.0826" stroke="url(#paint18_linear_1420_3464)"/>
<path d="M84.084 239.286V155.012" stroke="url(#paint19_linear_1420_3464)"/>
<path d="M62.5172 1379.88C70.9839 1379.76 79.0623 1376.56 84.9754 1370.98C90.8885 1365.39 94.1518 1357.87 94.0474 1350.09C93.9431 1342.3 90.4796 1334.88 84.419 1329.45C78.3584 1324.02 70.197 1321.04 61.7303 1321.15L62.1237 1350.52L62.5172 1379.88Z" fill="url(#paint20_linear_1420_3464)"/>
<path d="M61.7309 1321.15C53.2642 1321.27 45.1857 1324.47 39.2727 1330.06C33.3596 1335.64 30.0963 1343.16 30.2006 1350.94C30.305 1358.73 33.7684 1366.15 39.8291 1371.58C45.8897 1377.01 54.0511 1379.99 62.5177 1379.88L62.1243 1350.52L61.7309 1321.15Z" fill="url(#paint21_linear_1420_3464)"/>
<path d="M62.1148 1350.52C70.5815 1350.4 78.66 1347.2 84.573 1341.61C90.4861 1336.03 93.7494 1328.51 93.6451 1320.73C93.5407 1312.94 90.0773 1305.51 84.0166 1300.09C77.956 1294.66 69.7947 1291.68 61.328 1291.79L61.7214 1321.15L62.1148 1350.52Z" fill="url(#paint22_linear_1420_3464)"/>
<path d="M61.3285 1291.79C52.8618 1291.9 44.7834 1295.11 38.8703 1300.69C32.9572 1306.28 29.6939 1313.79 29.7983 1321.58C29.9026 1329.37 33.3661 1336.79 39.4267 1342.22C45.4873 1347.64 53.6487 1350.63 62.1154 1350.52L61.722 1321.15L61.3285 1291.79Z" fill="url(#paint23_linear_1420_3464)"/>
<path d="M61.7105 1321.15C70.1772 1321.04 78.2557 1317.84 84.1687 1312.25C90.0818 1306.66 93.3451 1299.15 93.2408 1291.36C93.1364 1283.58 89.673 1276.15 83.6123 1270.73C77.5517 1265.3 69.3904 1262.31 60.9237 1262.43L61.3171 1291.79L61.7105 1321.15Z" fill="url(#paint24_linear_1420_3464)"/>
<path d="M60.9223 1262.43C52.4556 1262.54 44.3771 1265.74 38.4641 1271.33C32.551 1276.92 29.2877 1284.43 29.392 1292.22C29.4964 1300.01 32.9598 1307.43 39.0205 1312.86C45.0811 1318.28 53.2425 1321.27 61.7091 1321.15L61.3157 1291.79L60.9223 1262.43Z" fill="url(#paint25_linear_1420_3464)"/>
<path d="M124.13 1419.38C130.478 1419.29 136.535 1416.89 140.969 1412.7C145.402 1408.52 147.849 1402.88 147.77 1397.04C147.692 1391.21 145.095 1385.64 140.551 1381.57C136.007 1377.5 129.888 1375.26 123.54 1375.35L123.835 1397.36L124.13 1419.38Z" fill="url(#paint26_linear_1420_3464)"/>
<path d="M123.542 1375.35C117.194 1375.44 111.137 1377.84 106.703 1382.02C102.27 1386.21 99.8233 1391.85 99.9016 1397.69C99.9798 1403.52 102.577 1409.09 107.121 1413.16C111.665 1417.23 117.784 1419.46 124.131 1419.38L123.836 1397.36L123.542 1375.35Z" fill="url(#paint27_linear_1420_3464)"/>
<path d="M123.83 1397.36C130.178 1397.28 136.234 1394.88 140.668 1390.69C145.101 1386.5 147.548 1380.87 147.47 1375.03C147.391 1369.19 144.795 1363.62 140.251 1359.56C135.707 1355.49 129.588 1353.25 123.24 1353.34L123.535 1375.35L123.83 1397.36Z" fill="url(#paint28_linear_1420_3464)"/>
<path d="M123.239 1353.34C116.891 1353.42 110.834 1355.82 106.401 1360.01C101.967 1364.2 99.5206 1369.83 99.5988 1375.67C99.6771 1381.51 102.274 1387.08 106.818 1391.14C111.362 1395.21 117.481 1397.45 123.829 1397.36L123.534 1375.35L123.239 1353.34Z" fill="url(#paint29_linear_1420_3464)"/>
<path d="M123.525 1375.35C129.873 1375.27 135.93 1372.86 140.363 1368.68C144.796 1364.49 147.243 1358.85 147.165 1353.01C147.087 1347.18 144.49 1341.61 139.946 1337.54C135.402 1333.47 129.283 1331.24 122.935 1331.32L123.23 1353.34L123.525 1375.35Z" fill="url(#paint30_linear_1420_3464)"/>
<path d="M122.936 1331.32C116.588 1331.41 110.531 1333.81 106.098 1338C101.665 1342.18 99.2179 1347.82 99.2961 1353.66C99.3743 1359.49 101.971 1365.06 106.515 1369.13C111.059 1373.2 117.178 1375.44 123.526 1375.35L123.231 1353.34L122.936 1331.32Z" fill="url(#paint31_linear_1420_3464)"/>
<g filter="url(#filter3_f_1420_3464)">
<ellipse cx="325" cy="3378.11" rx="511" ry="405.082" fill="#FA2929"/>
</g>
<g filter="url(#filter4_f_1420_3464)">
<ellipse cx="1300.5" cy="3360.38" rx="618.5" ry="508.376" fill="#F8A738"/>
</g>
<path d="M1381.67 1372.36C1366.35 1366.23 1354.46 1356.26 1347.9 1342.67C1328.02 1301.46 1364.69 1242.59 1429.8 1211.18C1494.91 1179.76 1563.81 1187.71 1583.69 1228.92C1590.25 1242.51 1590.65 1258.02 1585.92 1273.83C1554.77 1261.36 1509.43 1264.74 1465.8 1285.79C1422.16 1306.84 1391.3 1340.23 1381.67 1372.36Z" fill="url(#paint32_linear_1420_3464)"/>
<path d="M1501.79 1360.41C1436.68 1391.82 1367.78 1383.87 1347.9 1342.67L1383.9 1417.28C1403.78 1458.49 1472.68 1466.43 1537.79 1435.02C1602.9 1403.61 1639.57 1344.74 1619.69 1303.53L1583.69 1228.92C1603.57 1270.12 1566.9 1328.99 1501.79 1360.41Z" fill="url(#paint33_linear_1420_3464)"/>
<path d="M1354.39 1270.71C1341.68 1265.62 1331.81 1257.35 1326.37 1246.07C1309.88 1211.88 1340.3 1163.03 1394.33 1136.96C1448.36 1110.9 1505.53 1117.49 1522.03 1151.68C1527.47 1162.96 1527.81 1175.83 1523.87 1188.95C1498.03 1178.61 1460.41 1181.41 1424.2 1198.88C1387.99 1216.34 1362.38 1244.05 1354.39 1270.71Z" fill="url(#paint34_linear_1420_3464)"/>
<path d="M1454.07 1260.79C1400.04 1286.85 1342.87 1280.26 1326.37 1246.07L1356.24 1307.98C1372.74 1342.18 1429.91 1348.77 1483.94 1322.7C1537.97 1296.64 1568.39 1247.79 1551.9 1213.59L1522.03 1151.68C1538.52 1185.87 1508.1 1234.72 1454.07 1260.79Z" fill="url(#paint35_linear_1420_3464)"/>
<path d="M1331.16 1178.85C1321.02 1174.79 1313.15 1168.19 1308.81 1159.19C1295.65 1131.91 1319.92 1092.95 1363.02 1072.15C1406.12 1051.36 1451.73 1056.62 1464.89 1083.9C1469.23 1092.89 1469.5 1103.16 1466.36 1113.63C1445.75 1105.37 1415.73 1107.61 1386.85 1121.54C1357.96 1135.48 1337.53 1157.58 1331.16 1178.85Z" fill="url(#paint36_linear_1420_3464)"/>
<path d="M1410.68 1170.93C1367.58 1191.73 1321.97 1186.47 1308.81 1159.19L1332.64 1208.58C1345.8 1235.86 1391.4 1241.12 1434.5 1220.32C1477.6 1199.53 1501.87 1160.56 1488.71 1133.29L1464.89 1083.9C1478.05 1111.17 1453.78 1150.14 1410.68 1170.93Z" fill="url(#paint37_linear_1420_3464)"/>
<path d="M49.502 1849.79L-34.0011 1753.76V1680L49.502 1766.29V1849.79Z" fill="url(#paint38_linear_1420_3464)"/>
<path d="M131.613 1766.29H49.502L-32.6093 1681.39H49.502L131.613 1766.29Z" fill="url(#paint39_linear_1420_3464)"/>
<path d="M49.0832 1849.79H133.006L65.0285 1767.55H49.0832V1849.79Z" fill="url(#paint40_linear_1420_3464)"/>
<path d="M133.006 1849.79L132.167 1767.55H65.4481V1787.27L133.006 1849.79Z" fill="url(#paint41_linear_1420_3464)"/>
<path d="M132.166 1766.71H49.0826" stroke="url(#paint42_linear_1420_3464)"/>
<path d="M49.084 1763.5L49.084 1847.78" stroke="url(#paint43_linear_1420_3464)"/>
</g>
<defs>
<filter id="filter0_f_1420_3464" x="811.559" y="233.588" width="1590.44" height="1432.41" filterUnits="userSpaceOnUse" color-interpolation-filters="sRGB">
<feFlood flood-opacity="0" result="BackgroundImageFix"/>
<feBlend mode="normal" in="SourceGraphic" in2="BackgroundImageFix" result="shape"/>
<feGaussianBlur stdDeviation="150" result="effect1_foregroundBlur_1420_3464"/>
</filter>
<filter id="filter1_f_1420_3464" x="-525" y="854" width="1376" height="1017.5" filterUnits="userSpaceOnUse" color-interpolation-filters="sRGB">
<feFlood flood-opacity="0" result="BackgroundImageFix"/>
<feBlend mode="normal" in="SourceGraphic" in2="BackgroundImageFix" result="shape"/>
<feGaussianBlur stdDeviation="175" result="effect1_foregroundBlur_1420_3464"/>
</filter>
<filter id="filter2_f_1420_3464" x="-730" y="-546.185" width="1627.71" height="1379.77" filterUnits="userSpaceOnUse" color-interpolation-filters="sRGB">
<feFlood flood-opacity="0" result="BackgroundImageFix"/>
<feBlend mode="normal" in="SourceGraphic" in2="BackgroundImageFix" result="shape"/>
<feGaussianBlur stdDeviation="150" result="effect1_foregroundBlur_1420_3464"/>
</filter>
<filter id="filter3_f_1420_3464" x="-686" y="2473.02" width="2022" height="1810.16" filterUnits="userSpaceOnUse" color-interpolation-filters="sRGB">
<feFlood flood-opacity="0" result="BackgroundImageFix"/>
<feBlend mode="normal" in="SourceGraphic" in2="BackgroundImageFix" result="shape"/>
<feGaussianBlur stdDeviation="250" result="effect1_foregroundBlur_1420_3464"/>
</filter>
<filter id="filter4_f_1420_3464" x="82" y="2252" width="2437" height="2216.75" filterUnits="userSpaceOnUse" color-interpolation-filters="sRGB">
<feFlood flood-opacity="0" result="BackgroundImageFix"/>
<feBlend mode="normal" in="SourceGraphic" in2="BackgroundImageFix" result="shape"/>
<feGaussianBlur stdDeviation="300" result="effect1_foregroundBlur_1420_3464"/>
</filter>
<linearGradient id="paint0_linear_1420_3464" x1="720" y1="1592" x2="720" y2="1765" gradientUnits="userSpaceOnUse">
<stop stop-color="#2A1D7D"/>
<stop offset="1" stop-color="#644A8B"/>
</linearGradient>
<linearGradient id="paint1_linear_1420_3464" x1="614.4" y1="2082" x2="1507.2" y2="2082" gradientUnits="userSpaceOnUse">
<stop stop-color="#00296B" stop-opacity="0"/>
<stop offset="1" stop-color="#413687"/>
</linearGradient>
<linearGradient id="paint2_linear_1420_3464" x1="1381.5" y1="218.5" x2="1381.5" y2="337.999" gradientUnits="userSpaceOnUse">
<stop stop-color="#D44747" stop-opacity="0"/>
<stop offset="1" stop-color="#E22727"/>
</linearGradient>
<linearGradient id="paint3_linear_1420_3464" x1="1381.5" y1="337.999" x2="1381.5" y2="218.5" gradientUnits="userSpaceOnUse">
<stop stop-color="#D44747" stop-opacity="0"/>
<stop offset="1" stop-color="#E22727"/>
</linearGradient>
<linearGradient id="paint4_linear_1420_3464" x1="1381.5" y1="158.751" x2="1381.5" y2="278.25" gradientUnits="userSpaceOnUse">
<stop stop-color="#D44747" stop-opacity="0"/>
<stop offset="1" stop-color="#E22727"/>
</linearGradient>
<linearGradient id="paint5_linear_1420_3464" x1="1381.5" y1="278.25" x2="1381.5" y2="158.751" gradientUnits="userSpaceOnUse">
<stop stop-color="#D44747" stop-opacity="0"/>
<stop offset="1" stop-color="#E22727"/>
</linearGradient>
<linearGradient id="paint6_linear_1420_3464" x1="1381.5" y1="99.0013" x2="1381.5" y2="218.5" gradientUnits="userSpaceOnUse">
<stop stop-color="#D44747" stop-opacity="0"/>
<stop offset="1" stop-color="#E22727"/>
</linearGradient>
<linearGradient id="paint7_linear_1420_3464" x1="1381.5" y1="218.501" x2="1381.5" y2="99.0017" gradientUnits="userSpaceOnUse">
<stop stop-color="#D44747" stop-opacity="0"/>
<stop offset="1" stop-color="#E22727"/>
</linearGradient>
<linearGradient id="paint8_linear_1420_3464" x1="239.523" y1="139.738" x2="210.999" y2="175.869" gradientUnits="userSpaceOnUse">
<stop stop-color="#E22727"/>
<stop offset="1" stop-color="#0A0223"/>
</linearGradient>
<linearGradient id="paint9_linear_1420_3464" x1="240" y1="153.524" x2="233.345" y2="183" gradientUnits="userSpaceOnUse">
<stop stop-color="#B21515"/>
<stop offset="1" stop-color="#0A0223"/>
</linearGradient>
<linearGradient id="paint10_linear_1420_3464" x1="251.278" y1="125" x2="248.51" y2="150.718" gradientUnits="userSpaceOnUse">
<stop stop-color="#E22727"/>
<stop offset="0.529167" stop-color="#871725"/>
<stop offset="1" stop-color="#0A0223"/>
</linearGradient>
<linearGradient id="paint11_linear_1420_3464" x1="267.762" y1="137.757" x2="240.603" y2="145.419" gradientUnits="userSpaceOnUse">
<stop stop-color="#E22727"/>
<stop offset="0.425" stop-color="#8F1925"/>
<stop offset="1" stop-color="#0A0223"/>
</linearGradient>
<linearGradient id="paint12_linear_1420_3464" x1="268.048" y1="153.532" x2="239.524" y2="153.532" gradientUnits="userSpaceOnUse">
<stop stop-color="#AA1416"/>
<stop offset="0.289583" stop-color="#B21515"/>
<stop offset="1" stop-color="#B21515"/>
</linearGradient>
<linearGradient id="paint13_linear_1420_3464" x1="239.532" y1="126.426" x2="239.08" y2="154.476" gradientUnits="userSpaceOnUse">
<stop stop-color="#E22727"/>
<stop offset="0.506946" stop-color="#D92627"/>
<stop offset="1" stop-color="#B21515"/>
</linearGradient>
<linearGradient id="paint14_linear_1420_3464" x1="81.4838" y1="235.497" x2="0.998928" y2="290.83" gradientUnits="userSpaceOnUse">
<stop stop-color="#F8A22D"/>
<stop offset="1" stop-color="#0A0223"/>
</linearGradient>
<linearGradient id="paint15_linear_1420_3464" x1="85.8937" y1="236.503" x2="66.4096" y2="322.789" gradientUnits="userSpaceOnUse">
<stop stop-color="#F8A22D"/>
<stop offset="1" stop-color="#0A0223"/>
</linearGradient>
<linearGradient id="paint16_linear_1420_3464" x1="118.911" y1="153" x2="110.806" y2="228.288" gradientUnits="userSpaceOnUse">
<stop stop-color="#F8A22D"/>
<stop offset="0.586458" stop-color="#805228"/>
<stop offset="1" stop-color="#0A0223"/>
</linearGradient>
<linearGradient id="paint17_linear_1420_3464" x1="167.167" y1="190.346" x2="87.6595" y2="212.775" gradientUnits="userSpaceOnUse">
<stop stop-color="#F8A22D"/>
<stop offset="0.529167" stop-color="#7E5028"/>
<stop offset="1" stop-color="#0A0223"/>
</linearGradient>
<linearGradient id="paint18_linear_1420_3464" x1="168.005" y1="236.235" x2="84.5022" y2="236.235" gradientUnits="userSpaceOnUse">
<stop stop-color="#F8A22D"/>
<stop offset="1" stop-color="#F8A22D"/>
</linearGradient>
<linearGradient id="paint19_linear_1420_3464" x1="84.2347" y1="157.175" x2="80.3685" y2="239.127" gradientUnits="userSpaceOnUse">
<stop stop-color="#F8A22D"/>
<stop offset="0.477083" stop-color="#F19D2D"/>
<stop offset="1" stop-color="#F8A22D"/>
<stop offset="1" stop-color="#F8A22D"/>
</linearGradient>
<linearGradient id="paint20_linear_1420_3464" x1="61.7303" y1="1321.15" x2="62.5172" y2="1379.88" gradientUnits="userSpaceOnUse">
<stop stop-color="#FBAB3D" stop-opacity="0"/>
<stop offset="1" stop-color="#F8A22D"/>
</linearGradient>
<linearGradient id="paint21_linear_1420_3464" x1="62.5177" y1="1379.88" x2="61.7309" y2="1321.15" gradientUnits="userSpaceOnUse">
<stop stop-color="#FBAB3D" stop-opacity="0"/>
<stop offset="1" stop-color="#F8A22D"/>
</linearGradient>
<linearGradient id="paint22_linear_1420_3464" x1="61.328" y1="1291.79" x2="62.1148" y2="1350.52" gradientUnits="userSpaceOnUse">
<stop stop-color="#FBAB3D" stop-opacity="0"/>
<stop offset="1" stop-color="#F8A22D"/>
</linearGradient>
<linearGradient id="paint23_linear_1420_3464" x1="62.1154" y1="1350.52" x2="61.3285" y2="1291.79" gradientUnits="userSpaceOnUse">
<stop stop-color="#FBAB3D" stop-opacity="0"/>
<stop offset="1" stop-color="#F8A22D"/>
</linearGradient>
<linearGradient id="paint24_linear_1420_3464" x1="60.9237" y1="1262.43" x2="61.7105" y2="1321.15" gradientUnits="userSpaceOnUse">
<stop stop-color="#FBAB3D" stop-opacity="0"/>
<stop offset="1" stop-color="#F8A22D"/>
</linearGradient>
<linearGradient id="paint25_linear_1420_3464" x1="61.7091" y1="1321.15" x2="60.9223" y2="1262.43" gradientUnits="userSpaceOnUse">
<stop stop-color="#FBAB3D" stop-opacity="0"/>
<stop offset="1" stop-color="#F8A22D"/>
</linearGradient>
<linearGradient id="paint26_linear_1420_3464" x1="123.54" y1="1375.35" x2="124.13" y2="1419.38" gradientUnits="userSpaceOnUse">
<stop stop-color="#FBAB3D" stop-opacity="0"/>
<stop offset="1" stop-color="#F8A22D"/>
</linearGradient>
<linearGradient id="paint27_linear_1420_3464" x1="124.131" y1="1419.38" x2="123.542" y2="1375.35" gradientUnits="userSpaceOnUse">
<stop stop-color="#FBAB3D" stop-opacity="0"/>
<stop offset="1" stop-color="#F8A22D"/>
</linearGradient>
<linearGradient id="paint28_linear_1420_3464" x1="123.24" y1="1353.34" x2="123.83" y2="1397.36" gradientUnits="userSpaceOnUse">
<stop stop-color="#FBAB3D" stop-opacity="0"/>
<stop offset="1" stop-color="#F8A22D"/>
</linearGradient>
<linearGradient id="paint29_linear_1420_3464" x1="123.829" y1="1397.36" x2="123.239" y2="1353.34" gradientUnits="userSpaceOnUse">
<stop stop-color="#FBAB3D" stop-opacity="0"/>
<stop offset="1" stop-color="#F8A22D"/>
</linearGradient>
<linearGradient id="paint30_linear_1420_3464" x1="122.935" y1="1331.32" x2="123.525" y2="1375.35" gradientUnits="userSpaceOnUse">
<stop stop-color="#FBAB3D" stop-opacity="0"/>
<stop offset="1" stop-color="#F8A22D"/>
</linearGradient>
<linearGradient id="paint31_linear_1420_3464" x1="123.526" y1="1375.35" x2="122.936" y2="1331.32" gradientUnits="userSpaceOnUse">
<stop stop-color="#FBAB3D" stop-opacity="0"/>
<stop offset="1" stop-color="#F8A22D"/>
</linearGradient>
<linearGradient id="paint32_linear_1420_3464" x1="1429.8" y1="1211.18" x2="1479.29" y2="1313.77" gradientUnits="userSpaceOnUse">
<stop stop-color="#46B4A6"/>
<stop offset="1" stop-color="#413687"/>
</linearGradient>
<linearGradient id="paint33_linear_1420_3464" x1="1486.79" y1="1329.32" x2="1537.79" y2="1435.02" gradientUnits="userSpaceOnUse">
<stop stop-color="#60EFC8"/>
<stop offset="0.419792" stop-color="#4BC1AD"/>
<stop offset="1" stop-color="#379392"/>
</linearGradient>
<linearGradient id="paint34_linear_1420_3464" x1="1394.33" y1="1136.96" x2="1435.4" y2="1222.09" gradientUnits="userSpaceOnUse">
<stop stop-color="#46B4A6"/>
<stop offset="1" stop-color="#413687"/>
</linearGradient>
<linearGradient id="paint35_linear_1420_3464" x1="1441.62" y1="1234.99" x2="1483.94" y2="1322.7" gradientUnits="userSpaceOnUse">
<stop stop-color="#60EFC8"/>
<stop offset="0.419792" stop-color="#4BC1AD"/>
<stop offset="1" stop-color="#379392"/>
</linearGradient>
<linearGradient id="paint36_linear_1420_3464" x1="1363.02" y1="1072.15" x2="1395.78" y2="1140.07" gradientUnits="userSpaceOnUse">
<stop stop-color="#46B4A6"/>
<stop offset="1" stop-color="#413687"/>
</linearGradient>
<linearGradient id="paint37_linear_1420_3464" x1="1400.75" y1="1150.35" x2="1434.5" y2="1220.32" gradientUnits="userSpaceOnUse">
<stop stop-color="#60EFC8"/>
<stop offset="0.419792" stop-color="#4BC1AD"/>
<stop offset="1" stop-color="#379392"/>
</linearGradient>
<linearGradient id="paint38_linear_1420_3464" x1="46.4838" y1="1767.29" x2="-34.0011" y2="1711.96" gradientUnits="userSpaceOnUse">
<stop stop-color="#F8A22D"/>
<stop offset="1" stop-color="#0A0223"/>
</linearGradient>
<linearGradient id="paint39_linear_1420_3464" x1="50.8937" y1="1766.29" x2="31.4096" y2="1680" gradientUnits="userSpaceOnUse">
<stop stop-color="#F8A22D"/>
<stop offset="1" stop-color="#0A0223"/>
</linearGradient>
<linearGradient id="paint40_linear_1420_3464" x1="83.9111" y1="1849.79" x2="75.8065" y2="1774.5" gradientUnits="userSpaceOnUse">
<stop stop-color="#F8A22D"/>
<stop offset="0.586458" stop-color="#805228"/>
<stop offset="1" stop-color="#0A0223"/>
</linearGradient>
<linearGradient id="paint41_linear_1420_3464" x1="132.167" y1="1812.44" x2="52.6595" y2="1790.01" gradientUnits="userSpaceOnUse">
<stop stop-color="#F8A22D"/>
<stop offset="0.529167" stop-color="#7E5028"/>
<stop offset="1" stop-color="#0A0223"/>
</linearGradient>
<linearGradient id="paint42_linear_1420_3464" x1="133.005" y1="1766.55" x2="49.5022" y2="1766.55" gradientUnits="userSpaceOnUse">
<stop stop-color="#F8A22D"/>
<stop offset="1" stop-color="#F8A22D"/>
</linearGradient>
<linearGradient id="paint43_linear_1420_3464" x1="49.2347" y1="1845.61" x2="45.3685" y2="1763.66" gradientUnits="userSpaceOnUse">
<stop stop-color="#F8A22D"/>
<stop offset="0.477083" stop-color="#F19D2D"/>
<stop offset="1" stop-color="#F8A22D"/>
<stop offset="1" stop-color="#F8A22D"/>
</linearGradient>
<clipPath id="clip0_1420_3464">
<rect width="1440" height="2654" fill="white"/>
</clipPath>
</defs>
</svg>
