<svg width="1440" height="4153" viewBox="0 0 1440 4153" fill="none" xmlns="http://www.w3.org/2000/svg">
<g clip-path="url(#clip0_858_3433)">
<rect width="1440" height="4153" fill="white"/>
<rect y="2654" width="1440" height="322" fill="url(#paint0_linear_858_3433)"/>
<rect y="1592" width="1440" height="173" fill="url(#paint1_linear_858_3433)"/>
<rect y="1765" width="1439" height="889" fill="#F8A22D"/>
<path d="M0 -7H1440V1592H0V-7Z" fill="#2A1D7D"/>
<path d="M0 -7H1440V1592H0V-7Z" fill="#2A1D7D"/>
<rect y="8" width="1440" height="4148" fill="url(#paint2_linear_858_3433)"/>
<g filter="url(#filter0_f_858_3433)">
<path d="M2102 949.792C2102 1179.65 1880.28 1366 1606.78 1366C1333.28 1366 1111.56 1179.65 1111.56 949.792C1111.56 719.929 1333.28 533.588 1606.78 533.588C1880.28 533.588 2102 719.929 2102 949.792Z" fill="#F8A738"/>
</g>
<g filter="url(#filter1_f_858_3433)">
<path d="M501 1521.5C501 1437.29 465.389 1356.54 402.002 1296.99C338.615 1237.45 252.643 1204 163 1204C73.3569 1204 -12.6148 1237.45 -76.0021 1296.99C-139.389 1356.54 -175 1437.29 -175 1521.5L163 1521.5H501Z" fill="#00FFFC"/>
</g>
<g filter="url(#filter2_f_858_3433)">
<ellipse cx="83.8528" cy="143.702" rx="513.853" ry="389.887" fill="#FA2929"/>
</g>
<path d="M1381.5 337.999C1365.98 337.999 1351.1 331.703 1340.13 320.498C1329.16 309.293 1323 294.095 1323 278.248C1323 262.402 1329.16 247.204 1340.14 235.999C1351.11 224.794 1365.99 218.5 1381.5 218.5L1381.5 278.25L1381.5 337.999Z" fill="url(#paint3_linear_858_3433)"/>
<path d="M1381.5 218.5C1397.01 218.5 1411.89 224.796 1422.86 236.001C1433.83 247.206 1440 262.404 1440 278.251C1440 294.097 1433.83 309.295 1422.86 320.5C1411.89 331.705 1397.01 337.999 1381.5 337.999L1381.5 278.249L1381.5 218.5Z" fill="url(#paint4_linear_858_3433)"/>
<path d="M1381.5 278.249C1365.98 278.249 1351.11 271.954 1340.13 260.748C1329.16 249.543 1323 234.345 1323 218.499C1323 202.652 1329.17 187.455 1340.14 176.25C1351.11 165.045 1365.99 158.75 1381.5 158.751L1381.5 218.5L1381.5 278.249Z" fill="url(#paint5_linear_858_3433)"/>
<path d="M1381.5 158.751C1397.02 158.751 1411.89 165.046 1422.86 176.252C1433.83 187.457 1440 202.655 1440 218.501C1440 234.348 1433.83 249.545 1422.86 260.75C1411.89 271.955 1397.01 278.25 1381.5 278.249L1381.5 218.5L1381.5 158.751Z" fill="url(#paint6_linear_858_3433)"/>
<path d="M1381.5 218.5C1365.99 218.5 1351.11 212.204 1340.14 200.999C1329.17 189.794 1323 174.596 1323 158.749C1323 142.903 1329.17 127.705 1340.14 116.5C1351.11 105.295 1365.99 99.0008 1381.5 99.0011L1381.5 158.751L1381.5 218.5Z" fill="url(#paint7_linear_858_3433)"/>
<path d="M1381.5 99.0015C1397.02 99.0018 1411.9 105.297 1422.87 116.503C1433.84 127.708 1440 142.906 1440 158.752C1440 174.599 1433.84 189.796 1422.86 201.001C1411.89 212.206 1397.01 218.501 1381.5 218.5L1381.5 158.751L1381.5 99.0015Z" fill="url(#paint8_linear_858_3433)"/>
<path d="M239.524 125L211 157.803V183L239.524 153.525V125Z" fill="url(#paint9_linear_858_3433)"/>
<path d="M267.573 153.525H239.524L211.475 182.525H239.524L267.573 153.525Z" fill="url(#paint10_linear_858_3433)"/>
<path d="M239.381 125H268.049L244.828 153.095H239.381V125Z" fill="url(#paint11_linear_858_3433)"/>
<path d="M268.049 125L267.762 153.095H244.971V146.358L268.049 125Z" fill="url(#paint12_linear_858_3433)"/>
<path d="M267.762 153.382H239.381" stroke="url(#paint13_linear_858_3433)"/>
<path d="M239.381 154.475V125.951" stroke="url(#paint14_linear_858_3433)"/>
<path d="M84.5029 153L0.999901 249.028V322.789L84.5029 236.503V153Z" fill="url(#paint15_linear_858_3433)"/>
<path d="M166.614 236.503H84.5029L2.39163 321.398H84.5029L166.614 236.503Z" fill="url(#paint16_linear_858_3433)"/>
<path d="M84.0832 153H168.006L100.029 235.244H84.0832V153Z" fill="url(#paint17_linear_858_3433)"/>
<path d="M168.006 153L167.167 235.244H100.448V215.522L168.006 153Z" fill="url(#paint18_linear_858_3433)"/>
<path d="M167.167 236.084H84.0831" stroke="url(#paint19_linear_858_3433)"/>
<path d="M84.0835 239.286V155.012" stroke="url(#paint20_linear_858_3433)"/>
<path d="M62.5182 1379.88C70.9848 1379.76 79.0633 1376.56 84.9764 1370.98C90.8894 1365.39 94.1527 1357.87 94.0484 1350.09C93.944 1342.3 90.4806 1334.88 84.42 1329.45C78.3593 1324.02 70.198 1321.04 61.7313 1321.15L62.1247 1350.52L62.5182 1379.88Z" fill="url(#paint21_linear_858_3433)"/>
<path d="M61.7318 1321.15C53.2652 1321.27 45.1867 1324.47 39.2736 1330.06C33.3606 1335.64 30.0973 1343.16 30.2016 1350.94C30.306 1358.73 33.7694 1366.15 39.83 1371.58C45.8907 1377.01 54.052 1379.99 62.5187 1379.88L62.1253 1350.52L61.7318 1321.15Z" fill="url(#paint22_linear_858_3433)"/>
<path d="M62.1153 1350.52C70.582 1350.4 78.6605 1347.2 84.5735 1341.61C90.4866 1336.03 93.7499 1328.51 93.6456 1320.73C93.5412 1312.94 90.0778 1305.51 84.0171 1300.09C77.9565 1294.66 69.7951 1291.68 61.3285 1291.79L61.7219 1321.15L62.1153 1350.52Z" fill="url(#paint23_linear_858_3433)"/>
<path d="M61.329 1291.79C52.8623 1291.9 44.7839 1295.11 38.8708 1300.69C32.9577 1306.28 29.6944 1313.79 29.7988 1321.58C29.9031 1329.37 33.3666 1336.79 39.4272 1342.22C45.4878 1347.64 53.6492 1350.63 62.1159 1350.52L61.7224 1321.15L61.329 1291.79Z" fill="url(#paint24_linear_858_3433)"/>
<path d="M61.7105 1321.15C70.1772 1321.04 78.2557 1317.84 84.1687 1312.25C90.0818 1306.66 93.3451 1299.15 93.2408 1291.36C93.1364 1283.58 89.673 1276.15 83.6123 1270.73C77.5517 1265.3 69.3904 1262.31 60.9237 1262.43L61.3171 1291.79L61.7105 1321.15Z" fill="url(#paint25_linear_858_3433)"/>
<path d="M60.9232 1262.43C52.4566 1262.54 44.3781 1265.74 38.465 1271.33C32.552 1276.92 29.2887 1284.43 29.393 1292.22C29.4974 1300.01 32.9608 1307.43 39.0214 1312.86C45.0821 1318.28 53.2434 1321.27 61.7101 1321.15L61.3167 1291.79L60.9232 1262.43Z" fill="url(#paint26_linear_858_3433)"/>
<path d="M124.13 1419.38C130.478 1419.29 136.535 1416.89 140.969 1412.7C145.402 1408.52 147.849 1402.88 147.77 1397.04C147.692 1391.21 145.095 1385.64 140.551 1381.57C136.007 1377.5 129.888 1375.27 123.54 1375.35L123.835 1397.36L124.13 1419.38Z" fill="url(#paint27_linear_858_3433)"/>
<path d="M123.541 1375.35C117.193 1375.44 111.136 1377.84 106.702 1382.02C102.269 1386.21 99.8224 1391.85 99.9006 1397.69C99.9788 1403.52 102.576 1409.09 107.12 1413.16C111.664 1417.23 117.783 1419.46 124.13 1419.38L123.836 1397.36L123.541 1375.35Z" fill="url(#paint28_linear_858_3433)"/>
<path d="M123.828 1397.36C130.176 1397.28 136.233 1394.88 140.666 1390.69C145.1 1386.5 147.546 1380.87 147.468 1375.03C147.39 1369.19 144.793 1363.63 140.249 1359.56C135.705 1355.49 129.586 1353.25 123.238 1353.34L123.533 1375.35L123.828 1397.36Z" fill="url(#paint29_linear_858_3433)"/>
<path d="M123.238 1353.34C116.89 1353.42 110.833 1355.82 106.4 1360.01C101.967 1364.2 99.5201 1369.83 99.5983 1375.67C99.6766 1381.51 102.273 1387.08 106.817 1391.14C111.361 1395.21 117.48 1397.45 123.828 1397.36L123.533 1375.35L123.238 1353.34Z" fill="url(#paint30_linear_858_3433)"/>
<path d="M123.524 1375.35C129.872 1375.27 135.929 1372.86 140.363 1368.68C144.796 1364.49 147.243 1358.85 147.164 1353.01C147.086 1347.18 144.489 1341.61 139.945 1337.54C135.401 1333.47 129.282 1331.24 122.934 1331.32L123.229 1353.34L123.524 1375.35Z" fill="url(#paint31_linear_858_3433)"/>
<path d="M122.935 1331.32C116.587 1331.41 110.53 1333.81 106.096 1338C101.663 1342.18 99.2164 1347.82 99.2946 1353.66C99.3729 1359.49 101.97 1365.06 106.514 1369.13C111.058 1373.2 117.177 1375.44 123.525 1375.35L123.23 1353.34L122.935 1331.32Z" fill="url(#paint32_linear_858_3433)"/>
<path d="M0 2955.02H1440V4156H0V2955.02Z" fill="#2A1D7D"/>
<g filter="url(#filter3_f_858_3433)">
<ellipse cx="325" cy="3378.11" rx="511" ry="405.082" fill="#FA2929"/>
</g>
<g filter="url(#filter4_f_858_3433)">
<ellipse cx="423.5" cy="3868.75" rx="333.5" ry="252.839" fill="#00FFFC"/>
</g>
<g filter="url(#filter5_f_858_3433)">
<ellipse cx="1300.5" cy="3360.38" rx="618.5" ry="508.376" fill="#F8A738"/>
</g>
<path d="M1419.72 3056.91C1423.32 3040.06 1421.46 3024.46 1413.23 3011.92C1388.26 2973.92 1314.1 2978.53 1247.59 3022.23C1181.08 3065.93 1147.41 3132.16 1172.38 3170.16C1180.62 3182.7 1194.2 3190.59 1211.1 3193.98C1218.41 3159.73 1248.23 3120.33 1292.8 3091.04C1337.38 3061.76 1385.39 3050.03 1419.72 3056.91Z" fill="url(#paint33_linear_858_3433)"/>
<path d="M1338.02 3159.85C1404.52 3116.16 1438.2 3049.93 1413.23 3011.92L1458.44 3080.74C1483.41 3118.74 1449.73 3184.97 1383.23 3228.67C1316.72 3272.36 1242.56 3276.98 1217.59 3238.97L1172.38 3170.16C1197.35 3208.17 1271.51 3203.55 1338.02 3159.85Z" fill="url(#paint34_linear_858_3433)"/>
<path d="M1345.49 2982.72C1348.47 2968.73 1346.93 2955.78 1340.1 2945.38C1319.38 2913.85 1257.84 2917.68 1202.65 2953.94C1147.47 2990.19 1119.53 3045.15 1140.25 3076.69C1147.08 3087.09 1158.35 3093.64 1172.37 3096.45C1178.44 3068.04 1203.18 3035.34 1240.17 3011.04C1277.16 2986.73 1316.99 2977 1345.49 2982.72Z" fill="url(#paint35_linear_858_3433)"/>
<path d="M1277.69 3068.14C1332.87 3031.88 1360.81 2976.92 1340.1 2945.38L1377.61 3002.48C1398.33 3034.02 1370.39 3088.98 1315.2 3125.24C1260.01 3161.49 1198.48 3165.32 1177.76 3133.79L1140.25 3076.69C1160.96 3108.22 1222.5 3104.39 1277.69 3068.14Z" fill="url(#paint36_linear_858_3433)"/>
<path d="M1277.56 2916.95C1279.94 2905.8 1278.71 2895.47 1273.26 2887.17C1256.73 2862.01 1207.64 2865.07 1163.62 2893.99C1119.59 2922.92 1097.3 2966.76 1113.83 2991.91C1119.28 3000.21 1128.27 3005.44 1139.46 3007.68C1144.3 2985.01 1164.04 2958.93 1193.54 2939.54C1223.05 2920.16 1254.83 2912.39 1277.56 2916.95Z" fill="url(#paint37_linear_858_3433)"/>
<path d="M1223.47 2985.09C1267.49 2956.17 1289.78 2912.33 1273.26 2887.17L1303.18 2932.72C1319.71 2957.88 1297.42 3001.72 1253.4 3030.64C1209.37 3059.57 1160.29 3062.62 1143.76 3037.46L1113.83 2991.91C1130.36 3017.07 1179.45 3014.02 1223.47 2985.09Z" fill="url(#paint38_linear_858_3433)"/>
<path d="M151.767 4175.5C164.38 4168.06 173.299 4157.79 176.874 4145.16C187.716 4106.86 145.328 4061.33 82.1981 4043.46C19.0681 4025.59 -40.8979 4042.15 -51.7396 4080.44C-55.3152 4093.07 -53.1011 4106.49 -46.2627 4119.44C-20.6308 4104.31 20.2577 4100.83 62.5674 4112.8C104.877 4124.78 137.87 4149.18 151.767 4175.5Z" fill="url(#paint39_linear_858_3433)"/>
<path d="M42.9371 4182.15C106.067 4200.02 166.033 4183.46 176.875 4145.16L157.244 4214.51C146.402 4252.8 86.4364 4269.36 23.3064 4251.49C-39.8237 4233.62 -82.2117 4188.09 -71.37 4149.79L-51.7393 4080.44C-62.581 4118.74 -20.193 4164.28 42.9371 4182.15Z" fill="url(#paint40_linear_858_3433)"/>
<path d="M159.03 4084.07C169.497 4077.89 176.897 4069.37 179.864 4058.89C188.861 4027.11 153.688 3989.33 101.303 3974.5C48.9187 3959.67 -0.840336 3973.41 -9.83667 4005.19C-12.8037 4015.67 -10.9664 4026.8 -5.29201 4037.55C15.977 4024.99 49.9058 4022.1 85.0139 4032.04C120.122 4041.98 147.499 4062.23 159.03 4084.07Z" fill="url(#paint41_linear_858_3433)"/>
<path d="M68.7258 4089.58C121.11 4104.41 170.869 4090.67 179.866 4058.89L163.576 4116.43C154.58 4148.21 104.821 4161.95 52.4365 4147.12C0.0519567 4132.29 -35.1211 4094.51 -26.1248 4062.73L-9.83545 4005.19C-18.8318 4036.97 16.3413 4074.75 68.7258 4089.58Z" fill="url(#paint42_linear_858_3433)"/>
<path d="M164.332 4001.64C172.681 3996.71 178.585 3989.91 180.952 3981.55C188.128 3956.2 160.07 3926.06 118.282 3914.23C76.4937 3902.4 36.7999 3913.36 29.6234 3938.71C27.2565 3947.07 28.7221 3955.95 33.2487 3964.53C50.2154 3954.51 77.2811 3952.2 105.288 3960.13C133.294 3968.06 155.133 3984.21 164.332 4001.64Z" fill="url(#paint43_linear_858_3433)"/>
<path d="M92.2934 4006.03C134.082 4017.86 173.775 4006.9 180.952 3981.55L167.958 4027.45C160.781 4052.8 121.087 4063.76 79.2991 4051.93C37.5109 4040.11 9.45265 4009.96 16.6292 3984.61L29.6235 3938.71C22.447 3964.06 50.5052 3994.2 92.2934 4006.03Z" fill="url(#paint44_linear_858_3433)"/>
<path d="M1381.67 1372.36C1366.35 1366.23 1354.46 1356.26 1347.9 1342.67C1328.02 1301.46 1364.69 1242.59 1429.8 1211.18C1494.91 1179.76 1563.81 1187.71 1583.69 1228.92C1590.25 1242.51 1590.65 1258.02 1585.92 1273.83C1554.77 1261.36 1509.43 1264.74 1465.8 1285.79C1422.16 1306.84 1391.3 1340.23 1381.67 1372.36Z" fill="url(#paint45_linear_858_3433)"/>
<path d="M1501.79 1360.41C1436.68 1391.82 1367.78 1383.87 1347.9 1342.67L1383.9 1417.28C1403.78 1458.49 1472.68 1466.43 1537.79 1435.02C1602.9 1403.61 1639.57 1344.74 1619.69 1303.53L1583.69 1228.92C1603.57 1270.12 1566.9 1328.99 1501.79 1360.41Z" fill="url(#paint46_linear_858_3433)"/>
<path d="M1354.39 1270.71C1341.68 1265.62 1331.81 1257.35 1326.37 1246.07C1309.88 1211.88 1340.3 1163.03 1394.33 1136.96C1448.36 1110.9 1505.53 1117.49 1522.03 1151.68C1527.47 1162.96 1527.8 1175.83 1523.87 1188.95C1498.03 1178.61 1460.41 1181.41 1424.2 1198.88C1387.99 1216.34 1362.38 1244.05 1354.39 1270.71Z" fill="url(#paint47_linear_858_3433)"/>
<path d="M1454.07 1260.79C1400.04 1286.85 1342.87 1280.26 1326.37 1246.07L1356.24 1307.98C1372.74 1342.18 1429.91 1348.77 1483.94 1322.7C1537.97 1296.64 1568.39 1247.79 1551.9 1213.59L1522.03 1151.68C1538.52 1185.87 1508.1 1234.72 1454.07 1260.79Z" fill="url(#paint48_linear_858_3433)"/>
<path d="M1331.16 1178.85C1321.02 1174.79 1313.15 1168.19 1308.81 1159.19C1295.65 1131.91 1319.92 1092.95 1363.02 1072.15C1406.12 1051.36 1451.73 1056.62 1464.89 1083.9C1469.23 1092.89 1469.5 1103.16 1466.36 1113.63C1445.75 1105.37 1415.73 1107.61 1386.85 1121.54C1357.96 1135.48 1337.53 1157.58 1331.16 1178.85Z" fill="url(#paint49_linear_858_3433)"/>
<path d="M1410.67 1170.93C1367.58 1191.73 1321.97 1186.47 1308.81 1159.19L1332.64 1208.58C1345.79 1235.86 1391.4 1241.12 1434.5 1220.32C1477.6 1199.53 1501.87 1160.56 1488.71 1133.29L1464.89 1083.9C1478.05 1111.17 1453.77 1150.14 1410.67 1170.93Z" fill="url(#paint50_linear_858_3433)"/>
<path d="M49.5029 1849.79L-34.0001 1753.76V1680L49.5029 1766.29V1849.79Z" fill="url(#paint51_linear_858_3433)"/>
<path d="M131.614 1766.29H49.5029L-32.6084 1681.39H49.5029L131.614 1766.29Z" fill="url(#paint52_linear_858_3433)"/>
<path d="M49.0832 1849.79H133.006L65.0285 1767.55H49.0832V1849.79Z" fill="url(#paint53_linear_858_3433)"/>
<path d="M133.006 1849.79L132.167 1767.55H65.4481V1787.27L133.006 1849.79Z" fill="url(#paint54_linear_858_3433)"/>
<path d="M132.167 1766.71H49.0831" stroke="url(#paint55_linear_858_3433)"/>
<path d="M49.0835 1763.5L49.0835 1847.78" stroke="url(#paint56_linear_858_3433)"/>
<path d="M1262.95 2437.5C1270.71 2437.5 1278.15 2434.42 1283.63 2428.93C1289.12 2423.45 1292.2 2416.01 1292.2 2408.25C1292.2 2400.49 1289.12 2393.05 1283.63 2387.57C1278.15 2382.08 1270.71 2379 1262.95 2379L1262.95 2408.25V2437.5Z" fill="url(#paint57_linear_858_3433)"/>
<path d="M1262.95 2379C1255.19 2379 1247.75 2382.08 1242.26 2387.57C1236.78 2393.05 1233.7 2400.49 1233.7 2408.25C1233.7 2416.01 1236.78 2423.45 1242.26 2428.93C1247.75 2434.42 1255.19 2437.5 1262.95 2437.5L1262.95 2408.25V2379Z" fill="url(#paint58_linear_858_3433)"/>
<path d="M1262.6 2466.75C1270.36 2466.75 1277.8 2463.67 1283.28 2458.18C1288.77 2452.7 1291.85 2445.26 1291.85 2437.5C1291.85 2429.74 1288.77 2422.3 1283.28 2416.82C1277.8 2411.33 1270.36 2408.25 1262.6 2408.25L1262.6 2437.5V2466.75Z" fill="url(#paint59_linear_858_3433)"/>
<path d="M1262.6 2408.25C1254.84 2408.25 1247.4 2411.33 1241.92 2416.82C1236.43 2422.3 1233.35 2429.74 1233.35 2437.5C1233.35 2445.26 1236.43 2452.7 1241.92 2458.18C1247.4 2463.67 1254.84 2466.75 1262.6 2466.75L1262.6 2437.5V2408.25Z" fill="url(#paint60_linear_858_3433)"/>
<path d="M1262.25 2496C1270.01 2496 1277.45 2492.92 1282.94 2487.43C1288.42 2481.95 1291.5 2474.51 1291.5 2466.75C1291.5 2458.99 1288.42 2451.55 1282.94 2446.07C1277.45 2440.58 1270.01 2437.5 1262.25 2437.5L1262.25 2466.75V2496Z" fill="url(#paint61_linear_858_3433)"/>
<path d="M1262.25 2437.5C1254.49 2437.5 1247.05 2440.58 1241.57 2446.07C1236.08 2451.55 1233 2458.99 1233 2466.75C1233 2474.51 1236.08 2481.95 1241.57 2487.43C1247.05 2492.92 1254.49 2496 1262.25 2496L1262.25 2466.75V2437.5Z" fill="url(#paint62_linear_858_3433)"/>
<path d="M1333.45 2285.54C1344.15 2285.68 1354.35 2289.73 1361.82 2296.79C1369.29 2303.85 1373.42 2313.34 1373.28 2323.18C1373.15 2333.02 1368.78 2342.4 1361.12 2349.25C1353.46 2356.11 1343.15 2359.88 1332.45 2359.74L1332.95 2322.64L1333.45 2285.54Z" fill="url(#paint63_linear_858_3433)"/>
<path d="M1332.45 2359.74C1321.76 2359.59 1311.55 2355.55 1304.08 2348.49C1296.61 2341.43 1292.49 2331.94 1292.62 2322.1C1292.75 2312.26 1297.13 2302.88 1304.78 2296.02C1312.44 2289.17 1322.75 2285.4 1333.45 2285.54L1332.95 2322.64L1332.45 2359.74Z" fill="url(#paint64_linear_858_3433)"/>
<path d="M1332.94 2322.64C1343.64 2322.78 1353.84 2326.83 1361.31 2333.89C1368.78 2340.94 1372.91 2350.44 1372.77 2360.28C1372.64 2370.11 1368.27 2379.49 1360.61 2386.35C1352.95 2393.2 1342.64 2396.98 1331.94 2396.83L1332.44 2359.74L1332.94 2322.64Z" fill="url(#paint65_linear_858_3433)"/>
<path d="M1331.95 2396.83C1321.25 2396.69 1311.04 2392.64 1303.57 2385.58C1296.1 2378.53 1291.98 2369.03 1292.11 2359.19C1292.24 2349.36 1296.62 2339.98 1304.27 2333.12C1311.93 2326.27 1322.24 2322.49 1332.94 2322.64L1332.44 2359.73L1331.95 2396.83Z" fill="url(#paint66_linear_858_3433)"/>
<path d="M1332.43 2359.73C1343.12 2359.88 1353.33 2363.92 1360.8 2370.98C1368.27 2378.04 1372.4 2387.53 1372.26 2397.37C1372.13 2407.21 1367.76 2416.59 1360.1 2423.45C1352.44 2430.3 1342.13 2434.07 1331.43 2433.93L1331.93 2396.83L1332.43 2359.73Z" fill="url(#paint67_linear_858_3433)"/>
<path d="M1331.43 2433.93C1320.74 2433.79 1310.53 2429.74 1303.06 2422.68C1295.59 2415.62 1291.47 2406.13 1291.6 2396.29C1291.73 2386.45 1296.1 2377.07 1303.76 2370.22C1311.42 2363.36 1321.73 2359.59 1332.43 2359.73L1331.93 2396.83L1331.43 2433.93Z" fill="url(#paint68_linear_858_3433)"/>
</g>
<defs>
<filter id="filter0_f_858_3433" x="811.559" y="233.588" width="1590.44" height="1432.41" filterUnits="userSpaceOnUse" color-interpolation-filters="sRGB">
<feFlood flood-opacity="0" result="BackgroundImageFix"/>
<feBlend mode="normal" in="SourceGraphic" in2="BackgroundImageFix" result="shape"/>
<feGaussianBlur stdDeviation="150" result="effect1_foregroundBlur_858_3433"/>
</filter>
<filter id="filter1_f_858_3433" x="-525" y="854" width="1376" height="1017.5" filterUnits="userSpaceOnUse" color-interpolation-filters="sRGB">
<feFlood flood-opacity="0" result="BackgroundImageFix"/>
<feBlend mode="normal" in="SourceGraphic" in2="BackgroundImageFix" result="shape"/>
<feGaussianBlur stdDeviation="175" result="effect1_foregroundBlur_858_3433"/>
</filter>
<filter id="filter2_f_858_3433" x="-730" y="-546.185" width="1627.71" height="1379.77" filterUnits="userSpaceOnUse" color-interpolation-filters="sRGB">
<feFlood flood-opacity="0" result="BackgroundImageFix"/>
<feBlend mode="normal" in="SourceGraphic" in2="BackgroundImageFix" result="shape"/>
<feGaussianBlur stdDeviation="150" result="effect1_foregroundBlur_858_3433"/>
</filter>
<filter id="filter3_f_858_3433" x="-686" y="2473.02" width="2022" height="1810.16" filterUnits="userSpaceOnUse" color-interpolation-filters="sRGB">
<feFlood flood-opacity="0" result="BackgroundImageFix"/>
<feBlend mode="normal" in="SourceGraphic" in2="BackgroundImageFix" result="shape"/>
<feGaussianBlur stdDeviation="250" result="effect1_foregroundBlur_858_3433"/>
</filter>
<filter id="filter4_f_858_3433" x="-510" y="3015.91" width="1867" height="1705.68" filterUnits="userSpaceOnUse" color-interpolation-filters="sRGB">
<feFlood flood-opacity="0" result="BackgroundImageFix"/>
<feBlend mode="normal" in="SourceGraphic" in2="BackgroundImageFix" result="shape"/>
<feGaussianBlur stdDeviation="300" result="effect1_foregroundBlur_858_3433"/>
</filter>
<filter id="filter5_f_858_3433" x="82" y="2252" width="2437" height="2216.75" filterUnits="userSpaceOnUse" color-interpolation-filters="sRGB">
<feFlood flood-opacity="0" result="BackgroundImageFix"/>
<feBlend mode="normal" in="SourceGraphic" in2="BackgroundImageFix" result="shape"/>
<feGaussianBlur stdDeviation="300" result="effect1_foregroundBlur_858_3433"/>
</filter>
<linearGradient id="paint0_linear_858_3433" x1="720" y1="2654" x2="720" y2="2976" gradientUnits="userSpaceOnUse">
<stop stop-color="#F8A02D"/>
<stop offset="1" stop-color="#2A1D7D"/>
</linearGradient>
<linearGradient id="paint1_linear_858_3433" x1="720" y1="1592" x2="720" y2="1765" gradientUnits="userSpaceOnUse">
<stop stop-color="#2A1D7D"/>
<stop offset="1" stop-color="#F8A22D"/>
</linearGradient>
<linearGradient id="paint2_linear_858_3433" x1="614.4" y1="2082" x2="1507.2" y2="2082" gradientUnits="userSpaceOnUse">
<stop stop-color="#00296B" stop-opacity="0"/>
<stop offset="1" stop-color="#413687"/>
</linearGradient>
<linearGradient id="paint3_linear_858_3433" x1="1381.5" y1="218.5" x2="1381.5" y2="337.999" gradientUnits="userSpaceOnUse">
<stop stop-color="#D44747" stop-opacity="0"/>
<stop offset="1" stop-color="#E22727"/>
</linearGradient>
<linearGradient id="paint4_linear_858_3433" x1="1381.5" y1="337.999" x2="1381.5" y2="218.5" gradientUnits="userSpaceOnUse">
<stop stop-color="#D44747" stop-opacity="0"/>
<stop offset="1" stop-color="#E22727"/>
</linearGradient>
<linearGradient id="paint5_linear_858_3433" x1="1381.5" y1="158.751" x2="1381.5" y2="278.249" gradientUnits="userSpaceOnUse">
<stop stop-color="#D44747" stop-opacity="0"/>
<stop offset="1" stop-color="#E22727"/>
</linearGradient>
<linearGradient id="paint6_linear_858_3433" x1="1381.5" y1="278.249" x2="1381.5" y2="158.751" gradientUnits="userSpaceOnUse">
<stop stop-color="#D44747" stop-opacity="0"/>
<stop offset="1" stop-color="#E22727"/>
</linearGradient>
<linearGradient id="paint7_linear_858_3433" x1="1381.5" y1="99.0011" x2="1381.5" y2="218.5" gradientUnits="userSpaceOnUse">
<stop stop-color="#D44747" stop-opacity="0"/>
<stop offset="1" stop-color="#E22727"/>
</linearGradient>
<linearGradient id="paint8_linear_858_3433" x1="1381.5" y1="218.5" x2="1381.5" y2="99.0015" gradientUnits="userSpaceOnUse">
<stop stop-color="#D44747" stop-opacity="0"/>
<stop offset="1" stop-color="#E22727"/>
</linearGradient>
<linearGradient id="paint9_linear_858_3433" x1="239.524" y1="139.738" x2="211" y2="175.869" gradientUnits="userSpaceOnUse">
<stop stop-color="#E22727"/>
<stop offset="1" stop-color="#0A0223"/>
</linearGradient>
<linearGradient id="paint10_linear_858_3433" x1="239.999" y1="153.525" x2="233.344" y2="183" gradientUnits="userSpaceOnUse">
<stop stop-color="#B21515"/>
<stop offset="1" stop-color="#0A0223"/>
</linearGradient>
<linearGradient id="paint11_linear_858_3433" x1="251.278" y1="125" x2="248.51" y2="150.718" gradientUnits="userSpaceOnUse">
<stop stop-color="#E22727"/>
<stop offset="0.529167" stop-color="#871725"/>
<stop offset="1" stop-color="#0A0223"/>
</linearGradient>
<linearGradient id="paint12_linear_858_3433" x1="267.762" y1="137.757" x2="240.603" y2="145.419" gradientUnits="userSpaceOnUse">
<stop stop-color="#E22727"/>
<stop offset="0.425" stop-color="#8F1925"/>
<stop offset="1" stop-color="#0A0223"/>
</linearGradient>
<linearGradient id="paint13_linear_858_3433" x1="268.049" y1="153.532" x2="239.524" y2="153.532" gradientUnits="userSpaceOnUse">
<stop stop-color="#AA1416"/>
<stop offset="0.289583" stop-color="#B21515"/>
<stop offset="1" stop-color="#B21515"/>
</linearGradient>
<linearGradient id="paint14_linear_858_3433" x1="239.532" y1="126.426" x2="239.08" y2="154.476" gradientUnits="userSpaceOnUse">
<stop stop-color="#E22727"/>
<stop offset="0.506946" stop-color="#D92627"/>
<stop offset="1" stop-color="#B21515"/>
</linearGradient>
<linearGradient id="paint15_linear_858_3433" x1="81.4847" y1="235.497" x2="0.999905" y2="290.83" gradientUnits="userSpaceOnUse">
<stop stop-color="#F8A22D"/>
<stop offset="1" stop-color="#0A0223"/>
</linearGradient>
<linearGradient id="paint16_linear_858_3433" x1="85.8947" y1="236.503" x2="66.4106" y2="322.789" gradientUnits="userSpaceOnUse">
<stop stop-color="#F8A22D"/>
<stop offset="1" stop-color="#0A0223"/>
</linearGradient>
<linearGradient id="paint17_linear_858_3433" x1="118.911" y1="153" x2="110.806" y2="228.288" gradientUnits="userSpaceOnUse">
<stop stop-color="#F8A22D"/>
<stop offset="0.586458" stop-color="#805228"/>
<stop offset="1" stop-color="#0A0223"/>
</linearGradient>
<linearGradient id="paint18_linear_858_3433" x1="167.167" y1="190.346" x2="87.6595" y2="212.775" gradientUnits="userSpaceOnUse">
<stop stop-color="#F8A22D"/>
<stop offset="0.529167" stop-color="#7E5028"/>
<stop offset="1" stop-color="#0A0223"/>
</linearGradient>
<linearGradient id="paint19_linear_858_3433" x1="168.006" y1="236.235" x2="84.5027" y2="236.235" gradientUnits="userSpaceOnUse">
<stop stop-color="#F8A22D"/>
<stop offset="1" stop-color="#F8A22D"/>
</linearGradient>
<linearGradient id="paint20_linear_858_3433" x1="84.2342" y1="157.175" x2="80.368" y2="239.127" gradientUnits="userSpaceOnUse">
<stop stop-color="#F8A22D"/>
<stop offset="0.477083" stop-color="#F19D2D"/>
<stop offset="1" stop-color="#F8A22D"/>
<stop offset="1" stop-color="#F8A22D"/>
</linearGradient>
<linearGradient id="paint21_linear_858_3433" x1="61.7313" y1="1321.15" x2="62.5182" y2="1379.88" gradientUnits="userSpaceOnUse">
<stop stop-color="#FBAB3D" stop-opacity="0"/>
<stop offset="1" stop-color="#F8A22D"/>
</linearGradient>
<linearGradient id="paint22_linear_858_3433" x1="62.5187" y1="1379.88" x2="61.7318" y2="1321.15" gradientUnits="userSpaceOnUse">
<stop stop-color="#FBAB3D" stop-opacity="0"/>
<stop offset="1" stop-color="#F8A22D"/>
</linearGradient>
<linearGradient id="paint23_linear_858_3433" x1="61.3285" y1="1291.79" x2="62.1153" y2="1350.52" gradientUnits="userSpaceOnUse">
<stop stop-color="#FBAB3D" stop-opacity="0"/>
<stop offset="1" stop-color="#F8A22D"/>
</linearGradient>
<linearGradient id="paint24_linear_858_3433" x1="62.1159" y1="1350.52" x2="61.329" y2="1291.79" gradientUnits="userSpaceOnUse">
<stop stop-color="#FBAB3D" stop-opacity="0"/>
<stop offset="1" stop-color="#F8A22D"/>
</linearGradient>
<linearGradient id="paint25_linear_858_3433" x1="60.9237" y1="1262.43" x2="61.7105" y2="1321.15" gradientUnits="userSpaceOnUse">
<stop stop-color="#FBAB3D" stop-opacity="0"/>
<stop offset="1" stop-color="#F8A22D"/>
</linearGradient>
<linearGradient id="paint26_linear_858_3433" x1="61.7101" y1="1321.15" x2="60.9232" y2="1262.43" gradientUnits="userSpaceOnUse">
<stop stop-color="#FBAB3D" stop-opacity="0"/>
<stop offset="1" stop-color="#F8A22D"/>
</linearGradient>
<linearGradient id="paint27_linear_858_3433" x1="123.54" y1="1375.35" x2="124.13" y2="1419.38" gradientUnits="userSpaceOnUse">
<stop stop-color="#FBAB3D" stop-opacity="0"/>
<stop offset="1" stop-color="#F8A22D"/>
</linearGradient>
<linearGradient id="paint28_linear_858_3433" x1="124.13" y1="1419.38" x2="123.541" y2="1375.35" gradientUnits="userSpaceOnUse">
<stop stop-color="#FBAB3D" stop-opacity="0"/>
<stop offset="1" stop-color="#F8A22D"/>
</linearGradient>
<linearGradient id="paint29_linear_858_3433" x1="123.238" y1="1353.34" x2="123.828" y2="1397.36" gradientUnits="userSpaceOnUse">
<stop stop-color="#FBAB3D" stop-opacity="0"/>
<stop offset="1" stop-color="#F8A22D"/>
</linearGradient>
<linearGradient id="paint30_linear_858_3433" x1="123.828" y1="1397.36" x2="123.238" y2="1353.34" gradientUnits="userSpaceOnUse">
<stop stop-color="#FBAB3D" stop-opacity="0"/>
<stop offset="1" stop-color="#F8A22D"/>
</linearGradient>
<linearGradient id="paint31_linear_858_3433" x1="122.934" y1="1331.32" x2="123.524" y2="1375.35" gradientUnits="userSpaceOnUse">
<stop stop-color="#FBAB3D" stop-opacity="0"/>
<stop offset="1" stop-color="#F8A22D"/>
</linearGradient>
<linearGradient id="paint32_linear_858_3433" x1="123.525" y1="1375.35" x2="122.935" y2="1331.32" gradientUnits="userSpaceOnUse">
<stop stop-color="#FBAB3D" stop-opacity="0"/>
<stop offset="1" stop-color="#F8A22D"/>
</linearGradient>
<linearGradient id="paint33_linear_858_3433" x1="1247.59" y1="3022.23" x2="1309.76" y2="3116.85" gradientUnits="userSpaceOnUse">
<stop stop-color="#D44747"/>
<stop offset="1" stop-color="#413687"/>
</linearGradient>
<linearGradient id="paint34_linear_858_3433" x1="1319.18" y1="3131.18" x2="1383.23" y2="3228.67" gradientUnits="userSpaceOnUse">
<stop stop-color="#FA2929"/>
<stop offset="0.419792" stop-color="#CE2525"/>
<stop offset="1" stop-color="#9D1C25"/>
</linearGradient>
<linearGradient id="paint35_linear_858_3433" x1="1202.65" y1="2953.94" x2="1254.24" y2="3032.45" gradientUnits="userSpaceOnUse">
<stop stop-color="#D44747"/>
<stop offset="1" stop-color="#413687"/>
</linearGradient>
<linearGradient id="paint36_linear_858_3433" x1="1262.05" y1="3044.34" x2="1315.2" y2="3125.24" gradientUnits="userSpaceOnUse">
<stop stop-color="#FA2929"/>
<stop offset="0.419792" stop-color="#CE2525"/>
<stop offset="1" stop-color="#9D1C25"/>
</linearGradient>
<linearGradient id="paint37_linear_858_3433" x1="1163.62" y1="2893.99" x2="1204.77" y2="2956.62" gradientUnits="userSpaceOnUse">
<stop stop-color="#D44747"/>
<stop offset="1" stop-color="#413687"/>
</linearGradient>
<linearGradient id="paint38_linear_858_3433" x1="1211" y1="2966.11" x2="1253.4" y2="3030.64" gradientUnits="userSpaceOnUse">
<stop stop-color="#FA2929"/>
<stop offset="0.419792" stop-color="#CE2525"/>
<stop offset="1" stop-color="#9D1C25"/>
</linearGradient>
<linearGradient id="paint39_linear_858_3433" x1="82.1981" y1="4043.46" x2="55.2059" y2="4138.81" gradientUnits="userSpaceOnUse">
<stop stop-color="#F69B1F"/>
<stop offset="1" stop-color="#413687"/>
</linearGradient>
<linearGradient id="paint40_linear_858_3433" x1="51.1165" y1="4153.25" x2="23.3064" y2="4251.49" gradientUnits="userSpaceOnUse">
<stop stop-color="#FCBE68"/>
<stop offset="0.419692" stop-color="#F8A739"/>
<stop offset="0.419792" stop-color="#F8A738"/>
<stop offset="1" stop-color="#F48D00"/>
</linearGradient>
<linearGradient id="paint41_linear_858_3433" x1="101.303" y1="3974.5" x2="78.9053" y2="4053.62" gradientUnits="userSpaceOnUse">
<stop stop-color="#F69B1F"/>
<stop offset="1" stop-color="#413687"/>
</linearGradient>
<linearGradient id="paint42_linear_858_3433" x1="75.513" y1="4065.6" x2="52.4365" y2="4147.12" gradientUnits="userSpaceOnUse">
<stop stop-color="#FCBE68"/>
<stop offset="0.419792" stop-color="#F8A739"/>
<stop offset="1" stop-color="#F48D00"/>
</linearGradient>
<linearGradient id="paint43_linear_858_3433" x1="118.282" y1="3914.23" x2="100.415" y2="3977.34" gradientUnits="userSpaceOnUse">
<stop stop-color="#F69B1F"/>
<stop offset="1" stop-color="#413687"/>
</linearGradient>
<linearGradient id="paint44_linear_858_3433" x1="97.7077" y1="3986.91" x2="79.2991" y2="4051.93" gradientUnits="userSpaceOnUse">
<stop stop-color="#FCBE68"/>
<stop offset="0.419792" stop-color="#F8A739"/>
<stop offset="1" stop-color="#F48D00"/>
</linearGradient>
<linearGradient id="paint45_linear_858_3433" x1="1429.8" y1="1211.18" x2="1479.29" y2="1313.77" gradientUnits="userSpaceOnUse">
<stop stop-color="#46B4A6"/>
<stop offset="1" stop-color="#413687"/>
</linearGradient>
<linearGradient id="paint46_linear_858_3433" x1="1486.79" y1="1329.32" x2="1537.79" y2="1435.02" gradientUnits="userSpaceOnUse">
<stop stop-color="#60EFC8"/>
<stop offset="0.419792" stop-color="#4BC1AD"/>
<stop offset="1" stop-color="#379392"/>
</linearGradient>
<linearGradient id="paint47_linear_858_3433" x1="1394.33" y1="1136.96" x2="1435.4" y2="1222.09" gradientUnits="userSpaceOnUse">
<stop stop-color="#46B4A6"/>
<stop offset="1" stop-color="#413687"/>
</linearGradient>
<linearGradient id="paint48_linear_858_3433" x1="1441.62" y1="1234.99" x2="1483.94" y2="1322.7" gradientUnits="userSpaceOnUse">
<stop stop-color="#60EFC8"/>
<stop offset="0.419792" stop-color="#4BC1AD"/>
<stop offset="1" stop-color="#379392"/>
</linearGradient>
<linearGradient id="paint49_linear_858_3433" x1="1363.02" y1="1072.15" x2="1395.78" y2="1140.07" gradientUnits="userSpaceOnUse">
<stop stop-color="#46B4A6"/>
<stop offset="1" stop-color="#413687"/>
</linearGradient>
<linearGradient id="paint50_linear_858_3433" x1="1400.75" y1="1150.35" x2="1434.5" y2="1220.32" gradientUnits="userSpaceOnUse">
<stop stop-color="#60EFC8"/>
<stop offset="0.419792" stop-color="#4BC1AD"/>
<stop offset="1" stop-color="#379392"/>
</linearGradient>
<linearGradient id="paint51_linear_858_3433" x1="46.4847" y1="1767.29" x2="-34.0001" y2="1711.96" gradientUnits="userSpaceOnUse">
<stop stop-color="#F8A22D"/>
<stop offset="1" stop-color="#0A0223"/>
</linearGradient>
<linearGradient id="paint52_linear_858_3433" x1="50.8947" y1="1766.29" x2="31.4106" y2="1680" gradientUnits="userSpaceOnUse">
<stop stop-color="#F8A22D"/>
<stop offset="1" stop-color="#0A0223"/>
</linearGradient>
<linearGradient id="paint53_linear_858_3433" x1="83.9111" y1="1849.79" x2="75.8065" y2="1774.5" gradientUnits="userSpaceOnUse">
<stop stop-color="#F8A22D"/>
<stop offset="0.586458" stop-color="#805228"/>
<stop offset="1" stop-color="#0A0223"/>
</linearGradient>
<linearGradient id="paint54_linear_858_3433" x1="132.167" y1="1812.44" x2="52.6595" y2="1790.01" gradientUnits="userSpaceOnUse">
<stop stop-color="#F8A22D"/>
<stop offset="0.529167" stop-color="#7E5028"/>
<stop offset="1" stop-color="#0A0223"/>
</linearGradient>
<linearGradient id="paint55_linear_858_3433" x1="133.006" y1="1766.55" x2="49.5027" y2="1766.55" gradientUnits="userSpaceOnUse">
<stop stop-color="#F8A22D"/>
<stop offset="1" stop-color="#F8A22D"/>
</linearGradient>
<linearGradient id="paint56_linear_858_3433" x1="49.2342" y1="1845.61" x2="45.368" y2="1763.66" gradientUnits="userSpaceOnUse">
<stop stop-color="#F8A22D"/>
<stop offset="0.477083" stop-color="#F19D2D"/>
<stop offset="1" stop-color="#F8A22D"/>
<stop offset="1" stop-color="#F8A22D"/>
</linearGradient>
<linearGradient id="paint57_linear_858_3433" x1="1262.95" y1="2379" x2="1262.95" y2="2437.5" gradientUnits="userSpaceOnUse">
<stop stop-color="#45B3A5" stop-opacity="0"/>
<stop offset="1" stop-color="#40A89F"/>
</linearGradient>
<linearGradient id="paint58_linear_858_3433" x1="1262.95" y1="2437.5" x2="1262.95" y2="2379" gradientUnits="userSpaceOnUse">
<stop stop-color="#45B3A5" stop-opacity="0"/>
<stop offset="1" stop-color="#40A89F"/>
</linearGradient>
<linearGradient id="paint59_linear_858_3433" x1="1262.6" y1="2408.25" x2="1262.6" y2="2466.75" gradientUnits="userSpaceOnUse">
<stop stop-color="#45B3A5" stop-opacity="0"/>
<stop offset="1" stop-color="#40A89F"/>
</linearGradient>
<linearGradient id="paint60_linear_858_3433" x1="1262.6" y1="2466.75" x2="1262.6" y2="2408.25" gradientUnits="userSpaceOnUse">
<stop stop-color="#45B3A5" stop-opacity="0"/>
<stop offset="1" stop-color="#40A89F"/>
</linearGradient>
<linearGradient id="paint61_linear_858_3433" x1="1262.25" y1="2437.5" x2="1262.25" y2="2496" gradientUnits="userSpaceOnUse">
<stop stop-color="#45B3A5" stop-opacity="0"/>
<stop offset="1" stop-color="#40A89F"/>
</linearGradient>
<linearGradient id="paint62_linear_858_3433" x1="1262.25" y1="2496" x2="1262.25" y2="2437.5" gradientUnits="userSpaceOnUse">
<stop stop-color="#45B3A5" stop-opacity="0"/>
<stop offset="1" stop-color="#40A89F"/>
</linearGradient>
<linearGradient id="paint63_linear_858_3433" x1="1332.45" y1="2359.74" x2="1333.45" y2="2285.54" gradientUnits="userSpaceOnUse">
<stop stop-color="#FBAB3D" stop-opacity="0"/>
<stop offset="1" stop-color="#F8A22D"/>
</linearGradient>
<linearGradient id="paint64_linear_858_3433" x1="1333.45" y1="2285.54" x2="1332.45" y2="2359.74" gradientUnits="userSpaceOnUse">
<stop stop-color="#FBAB3D" stop-opacity="0"/>
<stop offset="1" stop-color="#F8A22D"/>
</linearGradient>
<linearGradient id="paint65_linear_858_3433" x1="1331.94" y1="2396.83" x2="1332.94" y2="2322.64" gradientUnits="userSpaceOnUse">
<stop stop-color="#FBAB3D" stop-opacity="0"/>
<stop offset="1" stop-color="#F8A22D"/>
</linearGradient>
<linearGradient id="paint66_linear_858_3433" x1="1332.94" y1="2322.64" x2="1331.95" y2="2396.83" gradientUnits="userSpaceOnUse">
<stop stop-color="#FBAB3D" stop-opacity="0"/>
<stop offset="1" stop-color="#F8A22D"/>
</linearGradient>
<linearGradient id="paint67_linear_858_3433" x1="1331.43" y1="2433.93" x2="1332.43" y2="2359.73" gradientUnits="userSpaceOnUse">
<stop stop-color="#FBAB3D" stop-opacity="0"/>
<stop offset="1" stop-color="#F8A22D"/>
</linearGradient>
<linearGradient id="paint68_linear_858_3433" x1="1332.43" y1="2359.73" x2="1331.43" y2="2433.93" gradientUnits="userSpaceOnUse">
<stop stop-color="#FBAB3D" stop-opacity="0"/>
<stop offset="1" stop-color="#F8A22D"/>
</linearGradient>
<clipPath id="clip0_858_3433">
<rect width="1440" height="4153" fill="white"/>
</clipPath>
</defs>
</svg>
