<svg width="237" height="101" viewBox="0 0 237 101" fill="none" xmlns="http://www.w3.org/2000/svg">
<rect width="95.7508" height="27.1153" transform="matrix(-1 0 0 1 207.602 73.7207)" fill="url(#paint0_linear_232_2600)"/>
<rect width="86.4299" height="18.6417" transform="matrix(-1 0 0 1 272 44.0625)" fill="url(#paint1_linear_232_2600)"/>
<rect width="122.019" height="11.8629" transform="matrix(-1 0 0 1 122.019 21.1855)" fill="url(#paint2_linear_232_2600)"/>
<rect x="34.7412" y="44.0625" width="138.966" height="18.6417" fill="url(#paint3_linear_232_2600)"/>
<rect x="61.8564" width="109.308" height="10.1682" fill="url(#paint4_linear_232_2600)"/>
<rect x="134.729" y="21.1855" width="54.2305" height="11.8629" fill="url(#paint5_linear_232_2600)"/>
<rect x="223.701" y="10.1699" width="45.757" height="10.1682" transform="rotate(-180 223.701 10.1699)" fill="url(#paint6_linear_232_2600)"/>
<rect x="5.08398" y="75.416" width="96.5981" height="11.8629" fill="url(#paint7_linear_232_2600)"/>
<defs>
<linearGradient id="paint0_linear_232_2600" x1="40.8537" y1="13.5576" x2="100.219" y2="13.5576" gradientUnits="userSpaceOnUse">
<stop stop-color="#48BAA9"/>
<stop offset="1" stop-color="#413687"/>
</linearGradient>
<linearGradient id="paint1_linear_232_2600" x1="36.8768" y1="9.32087" x2="90.4633" y2="9.32087" gradientUnits="userSpaceOnUse">
<stop stop-color="#48BAA9"/>
<stop offset="1" stop-color="#413687"/>
</linearGradient>
<linearGradient id="paint2_linear_232_2600" x1="52.0613" y1="5.93146" x2="127.713" y2="5.93145" gradientUnits="userSpaceOnUse">
<stop stop-color="#48BAA9"/>
<stop offset="1" stop-color="#413687"/>
</linearGradient>
<linearGradient id="paint3_linear_232_2600" x1="94.0333" y1="53.3834" x2="180.192" y2="53.3834" gradientUnits="userSpaceOnUse">
<stop stop-color="#E22727"/>
<stop offset="1" stop-color="#413687"/>
</linearGradient>
<linearGradient id="paint4_linear_232_2600" x1="108.495" y1="5.08411" x2="176.266" y2="5.0841" gradientUnits="userSpaceOnUse">
<stop stop-color="#E22727"/>
<stop offset="1" stop-color="#413687"/>
</linearGradient>
<linearGradient id="paint5_linear_232_2600" x1="157.867" y1="27.117" x2="191.49" y2="27.117" gradientUnits="userSpaceOnUse">
<stop stop-color="#F8A22D"/>
<stop offset="1" stop-color="#413687"/>
</linearGradient>
<linearGradient id="paint6_linear_232_2600" x1="243.224" y1="15.254" x2="271.594" y2="15.254" gradientUnits="userSpaceOnUse">
<stop stop-color="#F8A22D"/>
<stop offset="1" stop-color="#413687"/>
</linearGradient>
<linearGradient id="paint7_linear_232_2600" x1="46.2992" y1="81.3475" x2="106.19" y2="81.3475" gradientUnits="userSpaceOnUse">
<stop stop-color="#F8A22D"/>
<stop offset="1" stop-color="#413687"/>
</linearGradient>
</defs>
</svg>
