<svg width="387" height="125" viewBox="0 0 387 125" fill="none" xmlns="http://www.w3.org/2000/svg">
<rect width="122.972" height="26.5234" transform="matrix(1 0 0 -1 0 61.4854)" fill="url(#paint0_linear_197_7830)"/>
<rect width="173.607" height="16.8785" transform="matrix(1 0 0 -1 213.393 94.0371)" fill="url(#paint1_linear_197_7830)"/>
<rect x="337.57" y="61.4854" width="197.72" height="26.5234" transform="rotate(-180 337.57 61.4854)" fill="url(#paint2_linear_197_7830)"/>
<rect x="298.991" y="124.178" width="155.523" height="14.4673" transform="rotate(-180 298.991 124.178)" fill="url(#paint3_linear_197_7830)"/>
<rect x="195.308" y="94.0371" width="77.1589" height="16.8785" transform="rotate(-180 195.308 94.0371)" fill="url(#paint4_linear_197_7830)"/>
<rect x="68.7196" y="109.71" width="65.1028" height="14.4673" fill="url(#paint5_linear_197_7830)"/>
<rect x="379.766" y="16.8789" width="137.439" height="16.8785" transform="rotate(-180 379.766 16.8789)" fill="url(#paint6_linear_197_7830)"/>
<defs>
<linearGradient id="paint0_linear_197_7830" x1="52.468" y1="13.2617" x2="128.711" y2="13.2617" gradientUnits="userSpaceOnUse">
<stop stop-color="#48BAA9"/>
<stop offset="1" stop-color="#413687"/>
</linearGradient>
<linearGradient id="paint1_linear_197_7830" x1="74.0725" y1="8.43925" x2="181.709" y2="8.43924" gradientUnits="userSpaceOnUse">
<stop stop-color="#48BAA9"/>
<stop offset="1" stop-color="#413687"/>
</linearGradient>
<linearGradient id="paint2_linear_197_7830" x1="421.931" y1="74.747" x2="544.517" y2="74.747" gradientUnits="userSpaceOnUse">
<stop stop-color="#E22727"/>
<stop offset="1" stop-color="#413687"/>
</linearGradient>
<linearGradient id="paint3_linear_197_7830" x1="365.348" y1="131.411" x2="461.772" y2="131.411" gradientUnits="userSpaceOnUse">
<stop stop-color="#E22727"/>
<stop offset="1" stop-color="#413687"/>
</linearGradient>
<linearGradient id="paint4_linear_197_7830" x1="228.23" y1="102.476" x2="276.068" y2="102.476" gradientUnits="userSpaceOnUse">
<stop stop-color="#F8A22D"/>
<stop offset="1" stop-color="#413687"/>
</linearGradient>
<linearGradient id="paint5_linear_197_7830" x1="96.4968" y1="116.944" x2="136.861" y2="116.944" gradientUnits="userSpaceOnUse">
<stop stop-color="#F8A22D"/>
<stop offset="1" stop-color="#413687"/>
</linearGradient>
<linearGradient id="paint6_linear_197_7830" x1="438.407" y1="25.3182" x2="523.619" y2="25.3181" gradientUnits="userSpaceOnUse">
<stop stop-color="#F8A22D"/>
<stop offset="1" stop-color="#413687"/>
</linearGradient>
</defs>
</svg>
