<svg width="387" height="144" viewBox="0 0 387 144" fill="none" xmlns="http://www.w3.org/2000/svg">
<rect width="136.234" height="38.5794" transform="matrix(-1 0 0 1 295.374 104.889)" fill="url(#paint0_linear_197_7716)"/>
<rect width="122.972" height="26.5234" transform="matrix(-1 0 0 1 387 62.6934)" fill="url(#paint1_linear_197_7716)"/>
<rect width="173.607" height="16.8785" transform="matrix(-1 0 0 1 173.607 30.1406)" fill="url(#paint2_linear_197_7716)"/>
<rect x="49.4299" y="62.6934" width="197.72" height="26.5234" fill="url(#paint3_linear_197_7716)"/>
<rect x="88.0093" width="155.523" height="14.4673" fill="url(#paint4_linear_197_7716)"/>
<rect x="191.692" y="30.1406" width="77.1589" height="16.8785" fill="url(#paint5_linear_197_7716)"/>
<rect x="318.28" y="14.4688" width="65.1028" height="14.4673" transform="rotate(-180 318.28 14.4688)" fill="url(#paint6_linear_197_7716)"/>
<rect x="7.23363" y="107.301" width="137.439" height="16.8785" fill="url(#paint7_linear_197_7716)"/>
<defs>
<linearGradient id="paint0_linear_197_7716" x1="58.1264" y1="19.2897" x2="142.591" y2="19.2897" gradientUnits="userSpaceOnUse">
<stop stop-color="#48BAA9"/>
<stop offset="1" stop-color="#413687"/>
</linearGradient>
<linearGradient id="paint1_linear_197_7716" x1="52.468" y1="13.2617" x2="128.711" y2="13.2617" gradientUnits="userSpaceOnUse">
<stop stop-color="#48BAA9"/>
<stop offset="1" stop-color="#413687"/>
</linearGradient>
<linearGradient id="paint2_linear_197_7716" x1="74.0725" y1="8.43925" x2="181.709" y2="8.43924" gradientUnits="userSpaceOnUse">
<stop stop-color="#48BAA9"/>
<stop offset="1" stop-color="#413687"/>
</linearGradient>
<linearGradient id="paint3_linear_197_7716" x1="133.79" y1="75.955" x2="256.376" y2="75.955" gradientUnits="userSpaceOnUse">
<stop stop-color="#E22727"/>
<stop offset="1" stop-color="#413687"/>
</linearGradient>
<linearGradient id="paint4_linear_197_7716" x1="154.366" y1="7.23364" x2="250.79" y2="7.23363" gradientUnits="userSpaceOnUse">
<stop stop-color="#E22727"/>
<stop offset="1" stop-color="#413687"/>
</linearGradient>
<linearGradient id="paint5_linear_197_7716" x1="224.613" y1="38.5799" x2="272.451" y2="38.5799" gradientUnits="userSpaceOnUse">
<stop stop-color="#F8A22D"/>
<stop offset="1" stop-color="#413687"/>
</linearGradient>
<linearGradient id="paint6_linear_197_7716" x1="346.058" y1="21.7024" x2="386.421" y2="21.7024" gradientUnits="userSpaceOnUse">
<stop stop-color="#F8A22D"/>
<stop offset="1" stop-color="#413687"/>
</linearGradient>
<linearGradient id="paint7_linear_197_7716" x1="65.8744" y1="115.74" x2="151.087" y2="115.74" gradientUnits="userSpaceOnUse">
<stop stop-color="#F8A22D"/>
<stop offset="1" stop-color="#413687"/>
</linearGradient>
</defs>
</svg>
