<svg width="237" height="475" viewBox="0 0 237 475" fill="none" xmlns="http://www.w3.org/2000/svg">
<path d="M33.9997 307.001C24.9824 307 16.3345 303.418 9.95846 297.042C3.58241 290.666 0.000472781 282.018 0.000645554 273C0.000818327 263.983 3.58308 255.335 9.95937 248.959C16.3357 242.583 24.9837 239.001 34.0009 239.001L34.0003 273.001L33.9997 307.001Z" fill="url(#paint0_linear_909_2999)"/>
<path d="M34.001 239.001C43.0182 239.002 51.6661 242.584 58.0422 248.96C64.4182 255.336 68.0001 263.984 68 273.002C67.9998 282.019 64.4175 290.667 58.0412 297.043C51.6649 303.419 43.0169 307.001 33.9997 307.001L34.0003 273.001L34.001 239.001Z" fill="url(#paint1_linear_909_2999)"/>
<path d="M34.0003 273.001C24.983 273 16.3351 269.418 9.95907 263.042C3.58302 256.666 0.00108313 248.018 0.00125591 239C0.00142868 229.983 3.58369 221.335 9.95998 214.959C16.3363 208.583 24.9843 205.001 34.0016 205.001L34.0009 239.001L34.0003 273.001Z" fill="url(#paint2_linear_909_2999)"/>
<path d="M34.0016 205.001C43.0188 205.002 51.6667 208.584 58.0428 214.96C64.4188 221.336 68.0007 229.984 68.0006 239.002C68.0004 248.019 64.4181 256.667 58.0418 263.043C51.6656 269.419 43.0175 273.001 34.0003 273.001L34.0009 239.001L34.0016 205.001Z" fill="url(#paint3_linear_909_2999)"/>
<path d="M34.001 239.001C24.9837 239 16.3358 235.418 9.9598 229.042C3.58375 222.666 0.00181555 214.018 0.00198833 205C0.0021611 195.983 3.58442 187.335 9.96072 180.959C16.337 174.583 24.985 171.001 34.0023 171.001L34.0016 205.001L34.001 239.001Z" fill="url(#paint4_linear_909_2999)"/>
<path d="M34.0025 171.001C43.0198 171.002 51.6677 174.584 58.0437 180.96C64.4198 187.336 68.0017 195.984 68.0016 205.002C68.0014 214.019 64.4191 222.667 58.0428 229.043C51.6665 235.419 43.0185 239.001 34.0012 239.001L34.0019 205.001L34.0025 171.001Z" fill="url(#paint5_linear_909_2999)"/>
<path d="M166.224 121.545C182.342 121.545 197.801 127.948 209.199 139.346C220.597 150.744 227 166.202 227 182.321C227 198.44 220.597 213.899 209.199 225.297C197.801 236.694 182.342 243.098 166.224 243.098L166.224 182.321V121.545Z" fill="url(#paint6_linear_909_2999)"/>
<path d="M166.224 243.098C150.105 243.098 134.646 236.694 123.248 225.297C111.851 213.899 105.447 198.44 105.447 182.321C105.447 166.202 111.851 150.744 123.248 139.346C134.646 127.948 150.105 121.545 166.224 121.545L166.224 182.321L166.224 243.098Z" fill="url(#paint7_linear_909_2999)"/>
<path d="M165.5 60.7735C181.619 60.7735 197.078 67.1767 208.475 78.5745C219.873 89.9723 226.276 105.431 226.276 121.55C226.276 137.669 219.873 153.127 208.475 164.525C197.078 175.923 181.619 182.326 165.5 182.326L165.5 121.55V60.7735Z" fill="url(#paint8_linear_909_2999)"/>
<path d="M165.5 182.326C149.381 182.326 133.922 175.923 122.525 164.525C111.127 153.127 104.724 137.669 104.724 121.55C104.724 105.431 111.127 89.9722 122.525 78.5744C133.922 67.1766 149.381 60.7734 165.5 60.7734L165.5 121.55L165.5 182.326Z" fill="url(#paint9_linear_909_2999)"/>
<path d="M164.776 6.86646e-05C180.895 6.86646e-05 196.354 6.40327 207.752 17.801C219.149 29.1988 225.553 44.6575 225.553 60.7764C225.553 76.8953 219.149 92.354 207.752 103.752C196.354 115.15 180.895 121.553 164.776 121.553L164.776 60.7764V6.86646e-05Z" fill="url(#paint10_linear_909_2999)"/>
<path d="M164.776 121.553C148.658 121.553 133.199 115.149 121.801 103.752C110.403 92.3539 104 76.8952 104 60.7763C104 44.6575 110.403 29.1988 121.801 17.801C133.199 6.40321 148.658 2.43388e-06 164.776 0L164.776 60.7763L164.776 121.553Z" fill="url(#paint11_linear_909_2999)"/>
<path d="M196.082 376.829C209.056 376.829 221.499 381.983 230.672 391.157C239.846 400.33 245 412.773 245 425.747C245 438.72 239.846 451.163 230.672 460.336C221.499 469.51 209.056 474.664 196.082 474.664L196.082 425.747V376.829Z" fill="url(#paint12_linear_909_2999)"/>
<path d="M196.082 474.663C183.109 474.663 170.666 469.509 161.493 460.336C152.319 451.162 147.165 438.719 147.165 425.746C147.165 412.772 152.319 400.33 161.493 391.156C170.666 381.982 183.109 376.828 196.082 376.828L196.082 425.746L196.082 474.663Z" fill="url(#paint13_linear_909_2999)"/>
<path d="M195.5 327.915C208.474 327.915 220.916 333.069 230.09 342.243C239.264 351.416 244.418 363.859 244.418 376.832C244.418 389.806 239.264 402.249 230.09 411.422C220.916 420.596 208.474 425.75 195.5 425.75L195.5 376.832V327.915Z" fill="url(#paint14_linear_909_2999)"/>
<path d="M195.5 425.749C182.526 425.749 170.084 420.595 160.91 411.422C151.736 402.248 146.583 389.805 146.583 376.832C146.583 363.858 151.736 351.415 160.91 342.242C170.084 333.068 182.526 327.914 195.5 327.914L195.5 376.832L195.5 425.749Z" fill="url(#paint15_linear_909_2999)"/>
<path d="M194.918 278.999C207.891 278.999 220.334 284.153 229.507 293.327C238.681 302.5 243.835 314.943 243.835 327.916C243.835 340.89 238.681 353.333 229.507 362.506C220.334 371.68 207.891 376.834 194.918 376.834L194.918 327.916V278.999Z" fill="url(#paint16_linear_909_2999)"/>
<path d="M194.918 376.835C181.944 376.835 169.501 371.681 160.328 362.507C151.154 353.334 146 340.891 146 327.918C146 314.944 151.154 302.501 160.328 293.328C169.501 284.154 181.944 279 194.918 279L194.918 327.918L194.918 376.835Z" fill="url(#paint17_linear_909_2999)"/>
<defs>
<linearGradient id="paint0_linear_909_2999" x1="34.001" y1="239.001" x2="33.9997" y2="307.001" gradientUnits="userSpaceOnUse">
<stop stop-color="#FBD653" stop-opacity="0"/>
<stop offset="1" stop-color="#E2CF27"/>
</linearGradient>
<linearGradient id="paint1_linear_909_2999" x1="33.9997" y1="307.001" x2="34.001" y2="239.001" gradientUnits="userSpaceOnUse">
<stop stop-color="#FBD653" stop-opacity="0"/>
<stop offset="1" stop-color="#E2CF27"/>
</linearGradient>
<linearGradient id="paint2_linear_909_2999" x1="34.0016" y1="205.001" x2="34.0003" y2="273.001" gradientUnits="userSpaceOnUse">
<stop stop-color="#FBD653" stop-opacity="0"/>
<stop offset="1" stop-color="#E2CF27"/>
</linearGradient>
<linearGradient id="paint3_linear_909_2999" x1="34.0003" y1="273.001" x2="34.0016" y2="205.001" gradientUnits="userSpaceOnUse">
<stop stop-color="#FBD653" stop-opacity="0"/>
<stop offset="1" stop-color="#E2CF27"/>
</linearGradient>
<linearGradient id="paint4_linear_909_2999" x1="34.0023" y1="171.001" x2="34.001" y2="239.001" gradientUnits="userSpaceOnUse">
<stop stop-color="#FBD653" stop-opacity="0"/>
<stop offset="1" stop-color="#E2CF27"/>
</linearGradient>
<linearGradient id="paint5_linear_909_2999" x1="34.0012" y1="239.001" x2="34.0025" y2="171.001" gradientUnits="userSpaceOnUse">
<stop stop-color="#FBD653" stop-opacity="0"/>
<stop offset="1" stop-color="#E2CF27"/>
</linearGradient>
<linearGradient id="paint6_linear_909_2999" x1="166.224" y1="243.098" x2="166.224" y2="121.545" gradientUnits="userSpaceOnUse">
<stop stop-color="#FF4747" stop-opacity="0"/>
<stop offset="1" stop-color="#E86C26"/>
</linearGradient>
<linearGradient id="paint7_linear_909_2999" x1="166.224" y1="121.545" x2="166.224" y2="243.098" gradientUnits="userSpaceOnUse">
<stop stop-color="#FF4747" stop-opacity="0"/>
<stop offset="1" stop-color="#E86C26"/>
</linearGradient>
<linearGradient id="paint8_linear_909_2999" x1="165.5" y1="182.326" x2="165.5" y2="60.7735" gradientUnits="userSpaceOnUse">
<stop stop-color="#FF4747" stop-opacity="0"/>
<stop offset="1" stop-color="#E86C26"/>
</linearGradient>
<linearGradient id="paint9_linear_909_2999" x1="165.5" y1="60.7734" x2="165.5" y2="182.326" gradientUnits="userSpaceOnUse">
<stop stop-color="#FF4747" stop-opacity="0"/>
<stop offset="1" stop-color="#E86C26"/>
</linearGradient>
<linearGradient id="paint10_linear_909_2999" x1="164.776" y1="121.553" x2="164.776" y2="6.86646e-05" gradientUnits="userSpaceOnUse">
<stop stop-color="#FF4747" stop-opacity="0"/>
<stop offset="1" stop-color="#E86C26"/>
</linearGradient>
<linearGradient id="paint11_linear_909_2999" x1="164.776" y1="0" x2="164.776" y2="121.553" gradientUnits="userSpaceOnUse">
<stop stop-color="#FF4747" stop-opacity="0"/>
<stop offset="1" stop-color="#E86C26"/>
</linearGradient>
<linearGradient id="paint12_linear_909_2999" x1="196.082" y1="474.664" x2="196.082" y2="376.829" gradientUnits="userSpaceOnUse">
<stop stop-color="#475AFF" stop-opacity="0"/>
<stop offset="1" stop-color="#9BAEF0"/>
</linearGradient>
<linearGradient id="paint13_linear_909_2999" x1="196.082" y1="376.828" x2="196.082" y2="474.663" gradientUnits="userSpaceOnUse">
<stop stop-color="#475AFF" stop-opacity="0"/>
<stop offset="1" stop-color="#9BAEF0"/>
</linearGradient>
<linearGradient id="paint14_linear_909_2999" x1="195.5" y1="425.75" x2="195.5" y2="327.915" gradientUnits="userSpaceOnUse">
<stop stop-color="#475AFF" stop-opacity="0"/>
<stop offset="1" stop-color="#9BAEF0"/>
</linearGradient>
<linearGradient id="paint15_linear_909_2999" x1="195.5" y1="327.914" x2="195.5" y2="425.749" gradientUnits="userSpaceOnUse">
<stop stop-color="#475AFF" stop-opacity="0"/>
<stop offset="1" stop-color="#9BAEF0"/>
</linearGradient>
<linearGradient id="paint16_linear_909_2999" x1="194.918" y1="376.834" x2="194.918" y2="278.999" gradientUnits="userSpaceOnUse">
<stop stop-color="#475AFF" stop-opacity="0"/>
<stop offset="1" stop-color="#9BAEF0"/>
</linearGradient>
<linearGradient id="paint17_linear_909_2999" x1="194.918" y1="279" x2="194.918" y2="376.835" gradientUnits="userSpaceOnUse">
<stop stop-color="#475AFF" stop-opacity="0"/>
<stop offset="1" stop-color="#9BAEF0"/>
</linearGradient>
</defs>
</svg>
