<svg width="254" height="101" viewBox="0 0 254 101" fill="none" xmlns="http://www.w3.org/2000/svg">
<rect x="46.3984" y="73.7207" width="95.7508" height="27.1153" fill="url(#paint0_linear_232_2609)"/>
<rect x="-18" y="44.0625" width="86.4299" height="18.6417" fill="url(#paint1_linear_232_2609)"/>
<rect x="131.981" y="21.1855" width="122.019" height="11.8629" fill="url(#paint2_linear_232_2609)"/>
<rect width="138.966" height="18.6417" transform="matrix(-1 8.74228e-08 8.74228e-08 1 219.259 44.0625)" fill="url(#paint3_linear_232_2609)"/>
<rect width="109.308" height="10.1682" transform="matrix(-1 8.74228e-08 8.74228e-08 1 192.144 0)" fill="url(#paint4_linear_232_2609)"/>
<rect width="54.2305" height="11.8629" transform="matrix(-1 8.74228e-08 8.74228e-08 1 119.271 21.1855)" fill="url(#paint5_linear_232_2609)"/>
<rect width="45.757" height="10.1682" transform="matrix(1 -5.56363e-08 -5.56363e-08 -1 30.2988 10.1699)" fill="url(#paint6_linear_232_2609)"/>
<rect width="96.5981" height="11.8629" transform="matrix(-1 8.74228e-08 8.74228e-08 1 248.916 75.416)" fill="url(#paint7_linear_232_2609)"/>
<defs>
<linearGradient id="paint0_linear_232_2609" x1="87.2521" y1="87.2783" x2="146.618" y2="87.2783" gradientUnits="userSpaceOnUse">
<stop stop-color="#48BAA9"/>
<stop offset="1" stop-color="#413687"/>
</linearGradient>
<linearGradient id="paint1_linear_232_2609" x1="18.8768" y1="53.3834" x2="72.4633" y2="53.3834" gradientUnits="userSpaceOnUse">
<stop stop-color="#48BAA9"/>
<stop offset="1" stop-color="#413687"/>
</linearGradient>
<linearGradient id="paint2_linear_232_2609" x1="184.043" y1="27.117" x2="259.694" y2="27.117" gradientUnits="userSpaceOnUse">
<stop stop-color="#48BAA9"/>
<stop offset="1" stop-color="#413687"/>
</linearGradient>
<linearGradient id="paint3_linear_232_2609" x1="59.292" y1="9.32087" x2="145.451" y2="9.32086" gradientUnits="userSpaceOnUse">
<stop stop-color="#E22727"/>
<stop offset="1" stop-color="#413687"/>
</linearGradient>
<linearGradient id="paint4_linear_232_2609" x1="46.6383" y1="5.08411" x2="114.409" y2="5.0841" gradientUnits="userSpaceOnUse">
<stop stop-color="#E22727"/>
<stop offset="1" stop-color="#413687"/>
</linearGradient>
<linearGradient id="paint5_linear_232_2609" x1="23.1384" y1="5.93146" x2="56.7613" y2="5.93146" gradientUnits="userSpaceOnUse">
<stop stop-color="#F8A22D"/>
<stop offset="1" stop-color="#413687"/>
</linearGradient>
<linearGradient id="paint6_linear_232_2609" x1="19.523" y1="5.08411" x2="47.8923" y2="5.08411" gradientUnits="userSpaceOnUse">
<stop stop-color="#F8A22D"/>
<stop offset="1" stop-color="#413687"/>
</linearGradient>
<linearGradient id="paint7_linear_232_2609" x1="41.2152" y1="5.93146" x2="101.106" y2="5.93146" gradientUnits="userSpaceOnUse">
<stop stop-color="#F8A22D"/>
<stop offset="1" stop-color="#413687"/>
</linearGradient>
</defs>
</svg>
