<svg width="387" height="144" viewBox="0 0 387 144" fill="none" xmlns="http://www.w3.org/2000/svg">
<rect width="136.234" height="38.5794" transform="matrix(1 0 0 -1 91.6262 38.5801)" fill="url(#paint0_linear_197_7121)"/>
<rect width="122.972" height="26.5234" transform="matrix(1 0 0 -1 0 80.7754)" fill="url(#paint1_linear_197_7121)"/>
<rect width="173.607" height="16.8785" transform="matrix(1 0 0 -1 213.393 113.328)" fill="url(#paint2_linear_197_7121)"/>
<rect x="337.57" y="80.7754" width="197.72" height="26.5234" transform="rotate(-180 337.57 80.7754)" fill="url(#paint3_linear_197_7121)"/>
<rect x="298.991" y="143.469" width="155.523" height="14.4673" transform="rotate(-180 298.991 143.469)" fill="url(#paint4_linear_197_7121)"/>
<rect x="195.308" y="113.328" width="77.1589" height="16.8785" transform="rotate(-180 195.308 113.328)" fill="url(#paint5_linear_197_7121)"/>
<rect x="68.7196" y="129" width="65.1028" height="14.4673" fill="url(#paint6_linear_197_7121)"/>
<rect x="379.766" y="36.168" width="137.439" height="16.8785" transform="rotate(-180 379.766 36.168)" fill="url(#paint7_linear_197_7121)"/>
<defs>
<linearGradient id="paint0_linear_197_7121" x1="58.1264" y1="19.2897" x2="142.591" y2="19.2897" gradientUnits="userSpaceOnUse">
<stop stop-color="#48BAA9"/>
<stop offset="1" stop-color="#413687"/>
</linearGradient>
<linearGradient id="paint1_linear_197_7121" x1="52.468" y1="13.2617" x2="128.711" y2="13.2617" gradientUnits="userSpaceOnUse">
<stop stop-color="#48BAA9"/>
<stop offset="1" stop-color="#413687"/>
</linearGradient>
<linearGradient id="paint2_linear_197_7121" x1="74.0725" y1="8.43925" x2="181.709" y2="8.43924" gradientUnits="userSpaceOnUse">
<stop stop-color="#48BAA9"/>
<stop offset="1" stop-color="#413687"/>
</linearGradient>
<linearGradient id="paint3_linear_197_7121" x1="421.931" y1="94.0371" x2="544.517" y2="94.0371" gradientUnits="userSpaceOnUse">
<stop stop-color="#E22727"/>
<stop offset="1" stop-color="#413687"/>
</linearGradient>
<linearGradient id="paint4_linear_197_7121" x1="365.347" y1="150.702" x2="461.772" y2="150.702" gradientUnits="userSpaceOnUse">
<stop stop-color="#E22727"/>
<stop offset="1" stop-color="#413687"/>
</linearGradient>
<linearGradient id="paint5_linear_197_7121" x1="228.23" y1="121.767" x2="276.068" y2="121.767" gradientUnits="userSpaceOnUse">
<stop stop-color="#F8A22D"/>
<stop offset="1" stop-color="#413687"/>
</linearGradient>
<linearGradient id="paint6_linear_197_7121" x1="96.4968" y1="136.234" x2="136.861" y2="136.234" gradientUnits="userSpaceOnUse">
<stop stop-color="#F8A22D"/>
<stop offset="1" stop-color="#413687"/>
</linearGradient>
<linearGradient id="paint7_linear_197_7121" x1="438.407" y1="44.6072" x2="523.619" y2="44.6072" gradientUnits="userSpaceOnUse">
<stop stop-color="#F8A22D"/>
<stop offset="1" stop-color="#413687"/>
</linearGradient>
</defs>
</svg>
