<svg width="265" height="94" viewBox="0 0 265 94" fill="none" xmlns="http://www.w3.org/2000/svg">
<rect width="113" height="32" transform="matrix(1 0 0 -1 76 32)" fill="url(#paint0_linear_197_5943)"/>
<rect width="102" height="22" transform="matrix(1 0 0 -1 0 67)" fill="url(#paint1_linear_197_5943)"/>
<rect width="144" height="14" transform="matrix(1 0 0 -1 177 94)" fill="url(#paint2_linear_197_5943)"/>
<rect x="280" y="67" width="164" height="22" transform="rotate(-180 280 67)" fill="url(#paint3_linear_197_5943)"/>
<rect x="162" y="94" width="64" height="14" transform="rotate(-180 162 94)" fill="url(#paint4_linear_197_5943)"/>
<rect x="315" y="30" width="114" height="14" transform="rotate(-180 315 30)" fill="url(#paint5_linear_197_5943)"/>
<defs>
<linearGradient id="paint0_linear_197_5943" x1="48.2133" y1="16" x2="118.273" y2="16" gradientUnits="userSpaceOnUse">
<stop stop-color="#48BAA9"/>
<stop offset="1" stop-color="#413687"/>
</linearGradient>
<linearGradient id="paint1_linear_197_5943" x1="43.52" y1="11" x2="106.76" y2="11" gradientUnits="userSpaceOnUse">
<stop stop-color="#48BAA9"/>
<stop offset="1" stop-color="#413687"/>
</linearGradient>
<linearGradient id="paint2_linear_197_5943" x1="61.44" y1="7" x2="150.72" y2="6.99999" gradientUnits="userSpaceOnUse">
<stop stop-color="#48BAA9"/>
<stop offset="1" stop-color="#413687"/>
</linearGradient>
<linearGradient id="paint3_linear_197_5943" x1="349.973" y1="78" x2="451.653" y2="78" gradientUnits="userSpaceOnUse">
<stop stop-color="#E22727"/>
<stop offset="1" stop-color="#413687"/>
</linearGradient>
<linearGradient id="paint4_linear_197_5943" x1="189.307" y1="101" x2="228.987" y2="101" gradientUnits="userSpaceOnUse">
<stop stop-color="#F8A22D"/>
<stop offset="1" stop-color="#413687"/>
</linearGradient>
<linearGradient id="paint5_linear_197_5943" x1="363.64" y1="37" x2="434.32" y2="37" gradientUnits="userSpaceOnUse">
<stop stop-color="#F8A22D"/>
<stop offset="1" stop-color="#413687"/>
</linearGradient>
</defs>
</svg>
