<svg width="504" height="663" viewBox="0 0 504 663" fill="none" xmlns="http://www.w3.org/2000/svg">
<path d="M248.865 519.892C272.174 518.46 291.554 510.394 304.258 495.151C342.778 448.932 305.333 354.231 220.622 283.631C135.911 213.031 36.0131 193.267 -2.50689 239.486C-15.2108 254.729 -19.6521 275.245 -16.8603 298.431C30.5075 295.52 94.1023 320.002 150.875 367.318C207.649 414.634 243.191 472.775 248.865 519.892Z" fill="url(#paint0_linear_197_5495)"/>
<path d="M81.1289 451.006C165.84 521.606 265.738 541.37 304.258 495.151L234.511 578.838C195.991 625.057 96.0931 605.292 11.3824 534.692C-73.3283 464.092 -110.773 369.392 -72.2534 323.173L-2.50682 239.486C-41.0268 285.705 -3.58178 380.406 81.1289 451.006Z" fill="url(#paint1_linear_197_5495)"/>
<path d="M312.957 396.294C332.299 395.105 348.38 388.412 358.922 375.764C390.885 337.412 359.814 258.831 289.522 200.248C219.23 141.665 136.336 125.264 104.372 163.616C93.8307 176.265 90.1453 193.289 92.4619 212.528C131.767 210.112 184.537 230.428 231.647 269.69C278.756 308.952 308.249 357.197 312.957 396.294Z" fill="url(#paint2_linear_197_5495)"/>
<path d="M173.772 339.131C244.064 397.714 326.958 414.115 358.922 375.763L301.047 445.205C269.083 483.557 186.189 467.156 115.897 408.573C45.6053 349.991 14.5339 271.409 46.4973 233.057L104.372 163.615C72.4088 201.967 103.48 280.548 173.772 339.131Z" fill="url(#paint3_linear_197_5495)"/>
<path d="M368.86 283.968C384.289 283.02 397.118 277.681 405.527 267.591C431.025 236.997 406.238 174.311 350.165 127.578C294.092 80.8454 227.965 67.7624 202.468 98.3565C194.058 108.446 191.119 122.027 192.966 137.375C224.321 135.447 266.417 151.653 303.997 182.974C341.578 214.294 365.105 252.78 368.86 283.968Z" fill="url(#paint4_linear_197_5495)"/>
<path d="M259.061 235.28C315.134 282.013 381.26 295.096 406.758 264.502L360.59 319.898C335.092 350.492 268.966 337.409 212.893 290.676C156.819 243.943 132.033 181.257 157.531 150.663L203.699 95.2676C178.201 125.862 202.987 188.548 259.061 235.28Z" fill="url(#paint5_linear_197_5495)"/>
<defs>
<linearGradient id="paint0_linear_197_5495" x1="220.622" y1="283.631" x2="124.72" y2="398.701" gradientUnits="userSpaceOnUse">
<stop stop-color="#46B4A6"/>
<stop offset="1" stop-color="#413687"/>
</linearGradient>
<linearGradient id="paint1_linear_197_5495" x1="110.19" y1="416.136" x2="11.3824" y2="534.692" gradientUnits="userSpaceOnUse">
<stop stop-color="#60EFC8"/>
<stop offset="0.419792" stop-color="#4BC1AD"/>
<stop offset="1" stop-color="#379392"/>
</linearGradient>
<linearGradient id="paint2_linear_197_5495" x1="289.522" y1="200.248" x2="209.944" y2="295.731" gradientUnits="userSpaceOnUse">
<stop stop-color="#46B4A6"/>
<stop offset="1" stop-color="#413687"/>
</linearGradient>
<linearGradient id="paint3_linear_197_5495" x1="197.887" y1="310.197" x2="115.897" y2="408.573" gradientUnits="userSpaceOnUse">
<stop stop-color="#60EFC8"/>
<stop offset="0.419792" stop-color="#4BC1AD"/>
<stop offset="1" stop-color="#379392"/>
</linearGradient>
<linearGradient id="paint4_linear_197_5495" x1="350.165" y1="127.578" x2="286.684" y2="203.747" gradientUnits="userSpaceOnUse">
<stop stop-color="#46B4A6"/>
<stop offset="1" stop-color="#413687"/>
</linearGradient>
<linearGradient id="paint5_linear_197_5495" x1="278.297" y1="212.199" x2="212.893" y2="290.676" gradientUnits="userSpaceOnUse">
<stop stop-color="#60EFC8"/>
<stop offset="0.419792" stop-color="#4BC1AD"/>
<stop offset="1" stop-color="#379392"/>
</linearGradient>
</defs>
</svg>
