<svg width="354" height="533" viewBox="0 0 354 533" fill="none" xmlns="http://www.w3.org/2000/svg">
<path d="M98.8646 511.893C122.174 510.461 141.554 502.395 154.258 487.152C192.778 440.933 155.333 346.232 70.6219 275.632C-14.0888 205.032 -113.987 185.268 -152.507 231.487C-165.211 246.73 -169.652 267.246 -166.86 290.432C-119.493 287.521 -55.8977 312.003 0.87536 359.319C57.6485 406.635 93.1913 464.776 98.8646 511.893Z" fill="url(#paint0_linear_113_2064)"/>
<path d="M-68.8711 443.007C15.8397 513.607 115.738 533.371 154.258 487.152L84.5112 570.839C45.9913 617.058 -53.9069 597.293 -138.618 526.693C-223.328 456.093 -260.773 361.393 -222.253 315.174L-152.507 231.487C-191.027 277.706 -153.582 372.407 -68.8711 443.007Z" fill="url(#paint1_linear_113_2064)"/>
<path d="M162.957 388.293C182.299 387.104 198.38 380.411 208.922 367.763C240.885 329.411 209.814 250.83 139.522 192.247C69.2298 133.664 -13.6645 117.263 -45.6279 155.615C-56.1694 168.264 -59.8547 185.288 -57.5382 204.527C-18.233 202.111 34.5372 222.427 81.6468 261.689C128.756 300.951 158.249 349.196 162.957 388.293Z" fill="url(#paint2_linear_113_2064)"/>
<path d="M23.7719 331.131C94.0638 389.714 176.958 406.115 208.921 367.763L151.047 437.205C119.083 475.557 36.189 459.156 -34.1029 400.573C-104.395 341.991 -135.466 263.409 -103.503 225.057L-45.6279 155.615C-77.5913 193.967 -46.5199 272.548 23.7719 331.131Z" fill="url(#paint3_linear_113_2064)"/>
<path d="M218.86 275.969C234.289 275.021 247.118 269.682 255.527 259.592C281.025 228.998 256.238 166.312 200.165 119.579C144.092 72.8463 77.9654 59.7633 52.4675 90.3574C44.0584 100.447 41.1185 114.028 42.9664 129.375C74.321 127.448 116.417 143.654 153.997 174.975C191.578 206.295 215.105 244.781 218.86 275.969Z" fill="url(#paint4_linear_113_2064)"/>
<path d="M109.06 227.28C165.134 274.013 231.26 287.096 256.758 256.502L210.59 311.898C185.092 342.492 118.966 329.409 62.8925 282.676C6.81922 235.943 -17.9671 173.257 7.53079 142.663L53.6987 87.2676C28.2009 117.862 52.9872 180.548 109.06 227.28Z" fill="url(#paint5_linear_113_2064)"/>
<defs>
<linearGradient id="paint0_linear_113_2064" x1="70.6219" y1="275.632" x2="-25.2796" y2="390.702" gradientUnits="userSpaceOnUse">
<stop stop-color="#46B4A6"/>
<stop offset="1" stop-color="#413687"/>
</linearGradient>
<linearGradient id="paint1_linear_113_2064" x1="-39.81" y1="408.137" x2="-138.618" y2="526.693" gradientUnits="userSpaceOnUse">
<stop stop-color="#60EFC8"/>
<stop offset="0.419792" stop-color="#4BC1AD"/>
<stop offset="1" stop-color="#379392"/>
</linearGradient>
<linearGradient id="paint2_linear_113_2064" x1="139.522" y1="192.247" x2="59.9438" y2="287.73" gradientUnits="userSpaceOnUse">
<stop stop-color="#46B4A6"/>
<stop offset="1" stop-color="#413687"/>
</linearGradient>
<linearGradient id="paint3_linear_113_2064" x1="47.8865" y1="302.197" x2="-34.1029" y2="400.573" gradientUnits="userSpaceOnUse">
<stop stop-color="#60EFC8"/>
<stop offset="0.419792" stop-color="#4BC1AD"/>
<stop offset="1" stop-color="#379392"/>
</linearGradient>
<linearGradient id="paint4_linear_113_2064" x1="200.165" y1="119.579" x2="136.684" y2="195.748" gradientUnits="userSpaceOnUse">
<stop stop-color="#46B4A6"/>
<stop offset="1" stop-color="#413687"/>
</linearGradient>
<linearGradient id="paint5_linear_113_2064" x1="128.297" y1="204.199" x2="62.8925" y2="282.676" gradientUnits="userSpaceOnUse">
<stop stop-color="#60EFC8"/>
<stop offset="0.419792" stop-color="#4BC1AD"/>
<stop offset="1" stop-color="#379392"/>
</linearGradient>
</defs>
</svg>
