<svg width="198" height="423" viewBox="0 0 198 423" fill="none" xmlns="http://www.w3.org/2000/svg">
<path d="M34.9963 331.193C49.8453 330.281 62.1911 325.142 70.284 315.432C94.8227 285.988 70.9688 225.66 17.0046 180.685C-36.9595 135.71 -100.599 123.12 -125.137 152.563C-133.23 162.273 -136.06 175.343 -134.281 190.113C-104.106 188.259 -63.5935 203.855 -27.4267 233.997C8.74001 264.139 31.3822 301.178 34.9963 331.193Z" fill="url(#paint0_linear_197_2525)"/>
<path d="M-71.8584 287.309C-17.8942 332.284 45.7449 344.875 70.2837 315.431L25.8523 368.743C1.31357 398.187 -62.3256 385.596 -116.29 340.621C-170.254 295.646 -194.108 235.318 -169.569 205.874L-125.138 152.562C-149.676 182.006 -125.822 242.334 -71.8584 287.309Z" fill="url(#paint1_linear_197_2525)"/>
<path d="M75.8248 252.455C88.1463 251.698 98.3906 247.434 105.106 239.376C125.468 214.944 105.674 164.885 60.8955 127.565C16.1167 90.2458 -36.6902 79.798 -57.0522 104.23C-63.7676 112.287 -66.1153 123.132 -64.6395 135.389C-39.6005 133.85 -5.98379 146.791 24.0269 171.803C54.0376 196.815 72.8258 227.548 75.8248 252.455Z" fill="url(#paint2_linear_197_2525)"/>
<path d="M-12.8422 216.041C31.9365 253.361 84.7435 263.809 105.105 239.377L68.2369 283.614C47.8749 308.046 -4.93208 297.598 -49.7108 260.279C-94.4896 222.959 -114.283 172.9 -93.9213 148.468L-57.0527 104.23C-77.4147 128.662 -57.621 178.722 -12.8422 216.041Z" fill="url(#paint3_linear_197_2525)"/>
<path d="M111.438 180.9C121.268 180.296 129.44 176.894 134.797 170.466C151.04 150.977 135.25 111.043 99.5291 81.2727C63.8081 51.5021 21.6829 43.1677 5.43975 62.6573C0.0827541 69.085 -1.79007 77.7364 -0.612837 87.5134C19.3613 86.2858 46.1781 96.6096 70.1182 116.562C94.0584 136.514 109.046 161.031 111.438 180.9Z" fill="url(#paint4_linear_197_2525)"/>
<path d="M41.4922 149.882C77.2132 179.653 119.338 187.987 135.582 168.498L106.171 203.787C89.9276 223.276 47.8023 214.942 12.0814 185.171C-23.6395 155.401 -39.4294 115.467 -23.1862 95.9776L6.22461 60.6885C-10.0185 80.1781 5.77132 120.112 41.4922 149.882Z" fill="url(#paint5_linear_197_2525)"/>
<defs>
<linearGradient id="paint0_linear_197_2525" x1="17.0046" y1="180.685" x2="-44.0885" y2="253.989" gradientUnits="userSpaceOnUse">
<stop stop-color="#46B4A6"/>
<stop offset="1" stop-color="#413687"/>
</linearGradient>
<linearGradient id="paint1_linear_197_2525" x1="-53.3453" y1="265.096" x2="-116.29" y2="340.621" gradientUnits="userSpaceOnUse">
<stop stop-color="#60EFC8"/>
<stop offset="0.419792" stop-color="#4BC1AD"/>
<stop offset="1" stop-color="#379392"/>
</linearGradient>
<linearGradient id="paint2_linear_197_2525" x1="60.8955" y1="127.565" x2="10.2012" y2="188.392" gradientUnits="userSpaceOnUse">
<stop stop-color="#46B4A6"/>
<stop offset="1" stop-color="#413687"/>
</linearGradient>
<linearGradient id="paint3_linear_197_2525" x1="2.51968" y1="197.609" x2="-49.7108" y2="260.279" gradientUnits="userSpaceOnUse">
<stop stop-color="#60EFC8"/>
<stop offset="0.419792" stop-color="#4BC1AD"/>
<stop offset="1" stop-color="#379392"/>
</linearGradient>
<linearGradient id="paint4_linear_197_2525" x1="99.529" y1="81.2727" x2="59.0891" y2="129.795" gradientUnits="userSpaceOnUse">
<stop stop-color="#46B4A6"/>
<stop offset="1" stop-color="#413687"/>
</linearGradient>
<linearGradient id="paint5_linear_197_2525" x1="53.7468" y1="135.178" x2="12.0814" y2="185.171" gradientUnits="userSpaceOnUse">
<stop stop-color="#60EFC8"/>
<stop offset="0.419792" stop-color="#4BC1AD"/>
<stop offset="1" stop-color="#379392"/>
</linearGradient>
</defs>
</svg>
