<svg width="274" height="373" viewBox="0 0 274 373" fill="none" xmlns="http://www.w3.org/2000/svg">
<path d="M354.374 160.321C361.696 144.748 363.34 129.366 357.983 115.761C341.738 74.5069 267.275 65.1998 191.664 94.9729C116.053 124.746 67.9275 182.325 84.172 223.579C89.5294 237.184 101.219 247.315 117.194 253.715C132.074 222.067 170.403 189.624 221.077 169.67C271.752 149.716 321.911 147.316 354.374 160.321Z" fill="url(#paint0_linear_113_2074)"/>
<path d="M250.491 244.367C326.102 214.594 374.228 157.015 357.983 115.761L387.396 190.458C403.641 231.712 355.515 289.291 279.904 319.064C204.293 348.837 129.83 339.53 113.586 298.276L84.1724 223.579C100.417 264.833 174.88 274.14 250.491 244.367Z" fill="url(#paint1_linear_113_2074)"/>
<path d="M297.161 75.1554C303.236 62.2325 304.601 49.4694 300.155 38.1797C286.676 3.94772 224.887 -3.77517 162.146 20.9302C99.4052 45.6355 59.471 93.4136 72.9504 127.646C77.3959 138.935 87.096 147.342 100.352 152.652C112.699 126.391 144.504 99.4701 186.553 82.9126C228.602 66.3551 270.223 64.3634 297.161 75.1554Z" fill="url(#paint2_linear_113_2074)"/>
<path d="M210.96 144.895C273.7 120.19 313.635 72.4116 300.155 38.1796L324.562 100.162C338.041 134.394 298.107 182.172 235.366 206.878C172.625 231.583 110.837 223.86 97.3571 189.628L72.9504 127.646C86.4299 161.877 148.219 169.6 210.96 144.895Z" fill="url(#paint3_linear_113_2074)"/>
<path d="M244.338 -0.726579C249.185 -11.0355 250.273 -21.2168 246.727 -30.2229C235.974 -57.5305 186.684 -63.6912 136.634 -43.9832C86.5843 -24.2753 54.7279 13.8383 65.4807 41.1459C69.027 50.1519 76.7649 56.8579 87.3393 61.0943C97.189 40.1453 122.56 18.6698 156.104 5.46151C189.647 -7.74675 222.849 -9.33564 244.338 -0.726579Z" fill="url(#paint4_linear_113_2074)"/>
<path d="M174.012 53.0172C224.062 33.3092 255.918 -4.80438 245.165 -32.1119L264.635 17.3328C275.388 44.6403 243.532 82.7539 193.482 102.462C143.432 122.17 94.142 116.009 83.3892 88.7016L63.9194 39.2568C74.6723 66.5644 123.962 72.7251 174.012 53.0172Z" fill="url(#paint5_linear_113_2074)"/>
<defs>
<linearGradient id="paint0_linear_113_2074" x1="191.664" y1="94.9729" x2="232.107" y2="197.681" gradientUnits="userSpaceOnUse">
<stop stop-color="#46B4A6"/>
<stop offset="1" stop-color="#413687"/>
</linearGradient>
<linearGradient id="paint1_linear_113_2074" x1="238.235" y1="213.243" x2="279.904" y2="319.064" gradientUnits="userSpaceOnUse">
<stop stop-color="#60EFC8"/>
<stop offset="0.419792" stop-color="#4BC1AD"/>
<stop offset="1" stop-color="#379392"/>
</linearGradient>
<linearGradient id="paint2_linear_113_2074" x1="162.146" y1="20.9302" x2="195.705" y2="106.156" gradientUnits="userSpaceOnUse">
<stop stop-color="#46B4A6"/>
<stop offset="1" stop-color="#413687"/>
</linearGradient>
<linearGradient id="paint3_linear_113_2074" x1="200.79" y1="119.069" x2="235.366" y2="206.878" gradientUnits="userSpaceOnUse">
<stop stop-color="#60EFC8"/>
<stop offset="0.419792" stop-color="#4BC1AD"/>
<stop offset="1" stop-color="#379392"/>
</linearGradient>
<linearGradient id="paint4_linear_113_2074" x1="136.634" y1="-43.9832" x2="163.405" y2="24.0033" gradientUnits="userSpaceOnUse">
<stop stop-color="#46B4A6"/>
<stop offset="1" stop-color="#413687"/>
</linearGradient>
<linearGradient id="paint5_linear_113_2074" x1="165.9" y1="32.4152" x2="193.482" y2="102.462" gradientUnits="userSpaceOnUse">
<stop stop-color="#60EFC8"/>
<stop offset="0.419792" stop-color="#4BC1AD"/>
<stop offset="1" stop-color="#379392"/>
</linearGradient>
</defs>
</svg>
