<svg width="447" height="478" viewBox="0 0 447 478" fill="none" xmlns="http://www.w3.org/2000/svg">
<path d="M516.723 241.702C514.147 218.492 505.139 199.531 489.29 187.591C441.235 151.388 348.488 193.439 282.134 281.515C215.78 369.591 200.945 470.339 249 506.542C264.849 518.482 285.559 521.911 308.579 517.984C303.345 470.816 324.675 406.095 369.145 347.067C413.616 288.038 469.941 249.683 516.723 241.702Z" fill="url(#paint0_linear_197_2655)"/>
<path d="M456.157 412.619C522.511 324.543 537.346 223.794 489.291 187.591L576.302 253.143C624.357 289.347 609.523 390.095 543.168 478.171C476.814 566.247 384.067 608.298 336.012 572.094L249.001 506.542C297.056 542.745 389.803 500.695 456.157 412.619Z" fill="url(#paint1_linear_197_2655)"/>
<path d="M390.124 183.758C387.987 164.498 380.512 148.764 367.361 138.857C327.486 108.816 250.525 143.709 195.465 216.793C140.405 289.878 128.096 373.477 167.971 403.518C181.122 413.426 198.307 416.271 217.409 413.012C213.066 373.873 230.765 320.169 267.666 271.188C304.567 222.207 351.305 190.38 390.124 183.758Z" fill="url(#paint2_linear_197_2655)"/>
<path d="M339.867 325.582C394.927 252.498 407.237 168.898 367.361 138.857L439.562 193.251C479.437 223.293 467.128 306.892 412.068 379.977C357.008 453.061 280.048 487.954 240.172 457.913L167.971 403.519C207.847 433.56 284.807 398.666 339.867 325.582Z" fill="url(#paint3_linear_197_2655)"/>
<path d="M275.189 133.439C273.484 118.075 267.522 105.525 257.031 97.621C225.221 73.6565 163.829 101.492 119.906 159.792C75.9836 218.093 66.1641 284.783 97.9736 308.747C108.464 316.651 122.173 318.92 137.411 316.32C133.947 285.098 148.065 242.257 177.502 203.184C206.939 164.111 244.223 138.722 275.189 133.439Z" fill="url(#paint4_linear_197_2655)"/>
<path d="M231.952 245.497C275.875 187.197 285.694 120.507 253.885 96.5429L311.481 139.934C343.29 163.899 333.471 230.588 289.548 288.889C245.626 347.19 184.233 375.025 152.424 351.06L94.8274 307.669C126.637 331.633 188.03 303.798 231.952 245.497Z" fill="url(#paint5_linear_197_2655)"/>
<defs>
<linearGradient id="paint0_linear_197_2655" x1="282.134" y1="281.515" x2="401.775" y2="371.649" gradientUnits="userSpaceOnUse">
<stop stop-color="#46B4A6"/>
<stop offset="1" stop-color="#413687"/>
</linearGradient>
<linearGradient id="paint1_linear_197_2655" x1="419.902" y1="385.305" x2="543.168" y2="478.171" gradientUnits="userSpaceOnUse">
<stop stop-color="#60EFC8"/>
<stop offset="0.419792" stop-color="#4BC1AD"/>
<stop offset="1" stop-color="#379392"/>
</linearGradient>
<linearGradient id="paint2_linear_197_2655" x1="195.465" y1="216.793" x2="294.742" y2="291.586" gradientUnits="userSpaceOnUse">
<stop stop-color="#46B4A6"/>
<stop offset="1" stop-color="#413687"/>
</linearGradient>
<linearGradient id="paint3_linear_197_2655" x1="309.783" y1="302.918" x2="412.068" y2="379.977" gradientUnits="userSpaceOnUse">
<stop stop-color="#60EFC8"/>
<stop offset="0.419792" stop-color="#4BC1AD"/>
<stop offset="1" stop-color="#379392"/>
</linearGradient>
<linearGradient id="paint4_linear_197_2655" x1="119.906" y1="159.792" x2="199.101" y2="219.456" gradientUnits="userSpaceOnUse">
<stop stop-color="#46B4A6"/>
<stop offset="1" stop-color="#413687"/>
</linearGradient>
<linearGradient id="paint5_linear_197_2655" x1="207.954" y1="227.418" x2="289.548" y2="288.889" gradientUnits="userSpaceOnUse">
<stop stop-color="#60EFC8"/>
<stop offset="0.419792" stop-color="#4BC1AD"/>
<stop offset="1" stop-color="#379392"/>
</linearGradient>
</defs>
</svg>
