<svg width="136" height="300" viewBox="0 0 136 300" fill="none" xmlns="http://www.w3.org/2000/svg">
<path d="M225.75 164.56C230.414 154.639 231.462 144.84 228.049 136.173C217.7 109.893 170.264 103.964 122.097 122.93C73.93 141.897 43.2718 178.577 53.6202 204.857C57.0331 213.525 64.48 219.978 74.6566 224.055C84.1358 203.894 108.553 183.227 140.834 170.515C173.116 157.804 205.069 156.275 225.75 164.56Z" fill="url(#paint0_linear_197_2515)"/>
<path d="M159.572 218.101C207.739 199.134 238.397 162.455 228.049 136.174L246.786 183.759C257.134 210.039 226.476 246.719 178.309 265.686C130.142 284.653 82.7059 278.724 72.3575 252.443L53.6201 204.858C63.9685 231.139 111.405 237.068 159.572 218.101Z" fill="url(#paint1_linear_197_2515)"/>
<path d="M189.304 110.307C193.174 102.074 194.043 93.9438 191.211 86.7518C182.624 64.9446 143.263 60.0248 103.294 75.7631C63.3256 91.5014 37.8859 121.938 46.4729 143.745C49.3048 150.937 55.4841 156.292 63.9286 159.675C71.7943 142.946 92.0553 125.796 118.842 115.248C145.629 104.701 172.143 103.432 189.304 110.307Z" fill="url(#paint2_linear_197_2515)"/>
<path d="M134.39 154.733C174.358 138.995 199.798 108.558 191.211 86.7508L206.759 126.236C215.346 148.043 189.906 178.48 149.938 194.218C109.97 209.956 70.6077 205.037 62.0207 183.229L46.4727 143.744C55.0596 165.551 94.4215 170.471 134.39 154.733Z" fill="url(#paint3_linear_197_2515)"/>
<path d="M155.654 61.9664C158.741 55.3992 159.435 48.9133 157.175 43.1761C150.325 25.7801 118.926 21.8554 87.042 34.4102C55.1583 46.9649 34.8645 71.2448 41.7145 88.6409C43.9737 94.3781 48.903 98.65 55.6393 101.349C61.9139 88.0034 78.0766 74.3227 99.445 65.9085C120.813 57.4943 141.965 56.4821 155.654 61.9664Z" fill="url(#paint4_linear_197_2515)"/>
<path d="M110.853 96.2034C142.737 83.6486 163.031 59.3687 156.181 41.9727L168.584 73.471C175.434 90.867 155.14 115.147 123.256 127.702C91.3725 140.256 59.9727 136.332 53.1227 118.936L40.7197 87.4375C47.5697 104.834 78.9695 108.758 110.853 96.2034Z" fill="url(#paint5_linear_197_2515)"/>
<defs>
<linearGradient id="paint0_linear_197_2515" x1="122.097" y1="122.93" x2="147.861" y2="188.36" gradientUnits="userSpaceOnUse">
<stop stop-color="#46B4A6"/>
<stop offset="1" stop-color="#413687"/>
</linearGradient>
<linearGradient id="paint1_linear_197_2515" x1="151.765" y1="198.274" x2="178.309" y2="265.686" gradientUnits="userSpaceOnUse">
<stop stop-color="#60EFC8"/>
<stop offset="0.419792" stop-color="#4BC1AD"/>
<stop offset="1" stop-color="#379392"/>
</linearGradient>
<linearGradient id="paint2_linear_197_2515" x1="103.294" y1="75.7631" x2="124.673" y2="130.055" gradientUnits="userSpaceOnUse">
<stop stop-color="#46B4A6"/>
<stop offset="1" stop-color="#413687"/>
</linearGradient>
<linearGradient id="paint3_linear_197_2515" x1="127.912" y1="138.281" x2="149.938" y2="194.218" gradientUnits="userSpaceOnUse">
<stop stop-color="#60EFC8"/>
<stop offset="0.419792" stop-color="#4BC1AD"/>
<stop offset="1" stop-color="#379392"/>
</linearGradient>
<linearGradient id="paint4_linear_197_2515" x1="87.042" y1="34.4102" x2="104.096" y2="77.7203" gradientUnits="userSpaceOnUse">
<stop stop-color="#46B4A6"/>
<stop offset="1" stop-color="#413687"/>
</linearGradient>
<linearGradient id="paint5_linear_197_2515" x1="105.685" y1="83.0791" x2="123.256" y2="127.702" gradientUnits="userSpaceOnUse">
<stop stop-color="#60EFC8"/>
<stop offset="0.419792" stop-color="#4BC1AD"/>
<stop offset="1" stop-color="#379392"/>
</linearGradient>
</defs>
</svg>
