<svg width="320" height="568" viewBox="0 0 320 568" fill="none" xmlns="http://www.w3.org/2000/svg">
<g clip-path="url(#clip0_1043_2998)">
<rect width="320" height="568" fill="white"/>
<rect width="320" height="568" fill="url(#paint0_radial_1043_2998)"/>
<rect width="320" height="568" fill="url(#paint1_radial_1043_2998)" fill-opacity="0.2"/>
<path d="M336.146 -5L297.6 39.3273V73.3758L336.146 33.5455V-5Z" fill="url(#paint2_linear_1043_2998)"/>
<path d="M374.049 33.5449H336.146L298.243 72.7328H336.146L374.049 33.5449Z" fill="url(#paint3_linear_1043_2998)"/>
<path d="M181.321 14.2725L234.643 75.5919V122.692L181.321 67.5937V14.2725Z" fill="url(#paint4_linear_1043_2998)"/>
<path d="M128.889 67.5938H181.321L233.754 121.804H181.321L128.889 67.5938Z" fill="url(#paint5_linear_1043_2998)"/>
<path d="M181.589 14.2725L128 14.2725L171.407 66.7898H181.589V14.2725Z" fill="url(#paint6_linear_1043_2998)"/>
<path d="M128 14.2727L128.536 66.79H171.139V54.1966L128 14.2727Z" fill="url(#paint7_linear_1043_2998)"/>
<path d="M128.536 67.3262H181.589" stroke="url(#paint8_linear_1043_2998)"/>
<path d="M181.589 69.3711V15.5574" stroke="url(#paint9_linear_1043_2998)"/>
<path d="M289.301 122.2L247.596 170.161V207L289.301 163.905V122.2Z" fill="url(#paint10_linear_1043_2998)"/>
<path d="M330.311 163.905H289.301L248.291 206.305H289.301L330.311 163.905Z" fill="url(#paint11_linear_1043_2998)"/>
<path d="M289.091 122.2H331.006L297.055 163.276H289.091V122.2Z" fill="url(#paint12_linear_1043_2998)"/>
<path d="M331.006 122.2L330.587 163.276H297.265V153.426L331.006 122.2Z" fill="url(#paint13_linear_1043_2998)"/>
<path d="M330.586 163.695H289.091" stroke="url(#paint14_linear_1043_2998)"/>
<path d="M289.091 165.295V123.59" stroke="url(#paint15_linear_1043_2998)"/>
<g filter="url(#filter0_d_1043_2998)">
<path d="M80.2123 186.488C82.1643 187.896 83.5723 189.944 83.5723 192.376C83.5723 196.056 81.3643 199 76.2763 199H55.7963V176.6H75.3163C80.4043 176.6 81.9723 178.904 81.9723 182.296C81.9723 183.736 81.3003 185.208 80.2123 186.488ZM64.1163 182.04V184.472H71.7963C72.6283 184.472 73.6523 184.472 73.6523 183.256C73.6523 182.04 72.6283 182.04 71.7963 182.04H64.1163ZM73.3963 192.92C74.2283 192.92 75.2523 192.92 75.2523 191.736C75.2523 190.552 74.2283 190.552 73.3963 190.552H64.1163V192.92H73.3963ZM112.081 187.768C112.081 195.544 107.825 199.32 98.0013 199.32C88.1453 199.32 83.9213 195.576 83.9213 187.768V176.6H92.2413V187.768C92.2413 190.168 93.1053 192.28 98.0013 192.28C102.897 192.28 103.761 190.136 103.761 187.768V176.6H112.081V187.768ZM113.039 191.096H121.359C121.359 192.184 122.383 192.92 127.663 192.92C132.591 192.92 133.327 192.6 133.327 191.768C133.327 190.808 132.591 190.68 127.343 190.52C117.231 190.2 113.359 188.536 113.359 183.32C113.359 178.392 118.191 176.28 127.023 176.28C135.759 176.28 140.687 178.392 140.687 184.12H132.367C132.367 182.936 130.447 182.68 126.383 182.68C122.479 182.68 121.679 182.872 121.679 183.736C121.679 184.6 122.479 184.568 127.343 184.76C136.175 185.112 141.647 185.72 141.647 191.576C141.647 197.752 136.527 199.32 127.343 199.32C118.159 199.32 113.039 197.752 113.039 191.096ZM150.929 176.6V199H142.609V176.6H150.929ZM172.747 176.6H181.067V199H170.187L160.523 185.784V199H152.203V176.6H163.083L172.747 189.816V176.6ZM206.039 183H190.679V185.08H206.039V190.52H190.679V192.6H206.039V199H182.359V176.6H206.039V183ZM206.664 191.096H214.984C214.984 192.184 216.008 192.92 221.288 192.92C226.216 192.92 226.952 192.6 226.952 191.768C226.952 190.808 226.216 190.68 220.968 190.52C210.856 190.2 206.984 188.536 206.984 183.32C206.984 178.392 211.816 176.28 220.648 176.28C229.384 176.28 234.312 178.392 234.312 184.12H225.992C225.992 182.936 224.072 182.68 220.008 182.68C216.104 182.68 215.304 182.872 215.304 183.736C215.304 184.6 216.104 184.568 220.968 184.76C229.8 185.112 235.272 185.72 235.272 191.576C235.272 197.752 230.152 199.32 220.968 199.32C211.784 199.32 206.664 197.752 206.664 191.096ZM235.914 191.096H244.234C244.234 192.184 245.258 192.92 250.538 192.92C255.466 192.92 256.202 192.6 256.202 191.768C256.202 190.808 255.466 190.68 250.218 190.52C240.106 190.2 236.234 188.536 236.234 183.32C236.234 178.392 241.066 176.28 249.898 176.28C258.634 176.28 263.562 178.392 263.562 184.12H255.242C255.242 182.936 253.322 182.68 249.258 182.68C245.354 182.68 244.554 182.872 244.554 183.736C244.554 184.6 245.354 184.568 250.218 184.76C259.05 185.112 264.522 185.72 264.522 191.576C264.522 197.752 259.402 199.32 250.218 199.32C241.034 199.32 235.914 197.752 235.914 191.096ZM105.804 225.768C105.804 217.992 110.028 214.28 119.884 214.28C128.844 214.28 133.516 217.416 133.868 224.488H125.356C125.036 222.376 123.404 221.32 119.884 221.32C114.956 221.32 114.124 223.4 114.124 225.768C114.124 228.168 114.988 230.28 119.884 230.28C123.404 230.28 125.036 229.192 125.356 227.048H133.868C133.516 234.152 128.876 237.32 119.884 237.32C110.028 237.32 105.804 233.576 105.804 225.768ZM153.408 237L151.872 232.968H142.336L140.8 237H131.648L140.928 214.6H153.28L162.56 237H153.408ZM144.512 227.208H149.696L147.104 220.36L144.512 227.208ZM160.961 229.096H169.281C169.281 230.184 170.305 230.92 175.585 230.92C180.513 230.92 181.249 230.6 181.249 229.768C181.249 228.808 180.513 228.68 175.265 228.52C165.153 228.2 161.281 226.536 161.281 221.32C161.281 216.392 166.113 214.28 174.945 214.28C183.681 214.28 188.609 216.392 188.609 222.12H180.289C180.289 220.936 178.369 220.68 174.305 220.68C170.401 220.68 169.601 220.872 169.601 221.736C169.601 222.6 170.401 222.568 175.265 222.76C184.097 223.112 189.569 223.72 189.569 229.576C189.569 235.752 184.449 237.32 175.265 237.32C166.081 237.32 160.961 235.752 160.961 229.096ZM214.211 221H198.851V223.08H214.211V228.52H198.851V230.6H214.211V237H190.531V214.6H214.211V221ZM68.5091 262.488C70.4611 263.896 71.8691 265.944 71.8691 268.376C71.8691 272.056 69.6611 275 64.5731 275H44.0931V252.6H63.6131C68.7011 252.6 70.2691 254.904 70.2691 258.296C70.2691 259.736 69.5971 261.208 68.5091 262.488ZM52.4131 258.04V260.472H60.0931C60.9251 260.472 61.9491 260.472 61.9491 259.256C61.9491 258.04 60.9251 258.04 60.0931 258.04H52.4131ZM61.6931 268.92C62.5251 268.92 63.5491 268.92 63.5491 267.736C63.5491 266.552 62.5251 266.552 61.6931 266.552H52.4131V268.92H61.6931ZM85.9781 275.32C76.1221 275.32 71.8981 271.576 71.8981 263.768C71.8981 255.992 76.1221 252.28 85.9781 252.28C95.8021 252.28 100.058 256.024 100.058 263.768C100.058 271.544 95.8021 275.32 85.9781 275.32ZM85.9781 268.28C90.8741 268.28 91.7381 266.136 91.7381 263.768C91.7381 261.432 90.9061 259.32 85.9781 259.32C81.0501 259.32 80.2181 261.4 80.2181 263.768C80.2181 266.168 81.0821 268.28 85.9781 268.28ZM114.791 275.32C104.935 275.32 100.711 271.576 100.711 263.768C100.711 255.992 104.935 252.28 114.791 252.28C124.615 252.28 128.871 256.024 128.871 263.768C128.871 271.544 124.615 275.32 114.791 275.32ZM114.791 268.28C119.687 268.28 120.551 266.136 120.551 263.768C120.551 261.432 119.719 259.32 114.791 259.32C109.863 259.32 109.031 261.4 109.031 263.768C109.031 266.168 109.895 268.28 114.791 268.28ZM156.731 252.6V259.64H147.131V275H138.811V259.64H129.211V252.6H156.731ZM157.054 263.768C157.054 255.992 161.278 252.28 171.134 252.28C180.094 252.28 184.766 255.416 185.118 262.488H176.606C176.286 260.376 174.654 259.32 171.134 259.32C166.206 259.32 165.374 261.4 165.374 263.768C165.374 266.168 166.238 268.28 171.134 268.28C174.654 268.28 176.286 267.192 176.606 265.048H185.118C184.766 272.152 180.126 275.32 171.134 275.32C161.278 275.32 157.054 271.576 157.054 263.768ZM204.658 275L203.122 270.968H193.586L192.05 275H182.898L192.178 252.6H204.53L213.81 275H204.658ZM195.762 265.208H200.946L198.354 258.36L195.762 265.208ZM248.772 252.6V275H240.452V264.344L234.34 275H228.9L222.788 264.344V275H214.468V252.6H224.708L231.62 265.4L238.532 252.6H248.772ZM267.662 252.6C272.75 252.6 276.238 256.184 276.238 261.176C276.238 266.168 272.75 269.752 267.662 269.752H258.382V275H250.062V252.6H267.662ZM266.062 262.712C266.894 262.712 267.918 262.712 267.918 261.176C267.918 259.64 266.894 259.64 266.062 259.64H258.382V262.712H266.062Z" fill="#F3EEE7"/>
</g>
<path d="M90.3304 324.36C88.6024 324.36 87.1104 323.984 85.8544 323.232C84.6064 322.48 83.6424 321.428 82.9624 320.076C82.2904 318.724 81.9544 317.152 81.9544 315.36C81.9544 313.568 82.2904 311.996 82.9624 310.644C83.6424 309.292 84.6064 308.24 85.8544 307.488C87.1104 306.736 88.6024 306.36 90.3304 306.36C92.3144 306.36 93.9784 306.852 95.3224 307.836C96.6744 308.82 97.6264 310.152 98.1784 311.832L94.8904 312.744C94.5704 311.696 94.0304 310.884 93.2704 310.308C92.5104 309.724 91.5304 309.432 90.3304 309.432C89.2344 309.432 88.3184 309.676 87.5824 310.164C86.8544 310.652 86.3064 311.34 85.9384 312.228C85.5704 313.116 85.3864 314.16 85.3864 315.36C85.3864 316.56 85.5704 317.604 85.9384 318.492C86.3064 319.38 86.8544 320.068 87.5824 320.556C88.3184 321.044 89.2344 321.288 90.3304 321.288C91.5304 321.288 92.5104 320.996 93.2704 320.412C94.0304 319.828 94.5704 319.016 94.8904 317.976L98.1784 318.888C97.6264 320.568 96.6744 321.9 95.3224 322.884C93.9784 323.868 92.3144 324.36 90.3304 324.36ZM106.653 324.36C105.349 324.36 104.205 324.068 103.221 323.484C102.237 322.9 101.469 322.096 100.917 321.072C100.373 320.04 100.101 318.856 100.101 317.52C100.101 316.168 100.381 314.98 100.941 313.956C101.501 312.924 102.273 312.12 103.257 311.544C104.241 310.968 105.373 310.68 106.653 310.68C107.957 310.68 109.101 310.972 110.085 311.556C111.077 312.14 111.849 312.948 112.401 313.98C112.953 315.004 113.229 316.184 113.229 317.52C113.229 318.864 112.949 320.052 112.389 321.084C111.837 322.108 111.065 322.912 110.073 323.496C109.089 324.072 107.949 324.36 106.653 324.36ZM106.653 321.312C107.701 321.312 108.481 320.96 108.993 320.256C109.513 319.544 109.773 318.632 109.773 317.52C109.773 316.368 109.509 315.448 108.981 314.76C108.461 314.072 107.685 313.728 106.653 313.728C105.941 313.728 105.357 313.888 104.901 314.208C104.445 314.528 104.105 314.972 103.881 315.54C103.665 316.108 103.557 316.768 103.557 317.52C103.557 318.68 103.817 319.604 104.337 320.292C104.865 320.972 105.637 321.312 106.653 321.312ZM131.468 324V316.344C131.468 315.488 131.264 314.824 130.856 314.352C130.456 313.872 129.9 313.632 129.188 313.632C128.732 313.632 128.336 313.74 128 313.956C127.664 314.164 127.4 314.46 127.208 314.844C127.024 315.22 126.932 315.656 126.932 316.152L125.564 315.24C125.564 314.352 125.772 313.568 126.188 312.888C126.612 312.208 127.176 311.68 127.88 311.304C128.592 310.92 129.38 310.728 130.244 310.728C131.724 310.728 132.84 311.168 133.592 312.048C134.352 312.92 134.732 314.064 134.732 315.48V324H131.468ZM115.844 324V311.04H118.724V315.336H119.132V324H115.844ZM123.668 324V316.344C123.668 315.488 123.464 314.824 123.056 314.352C122.656 313.872 122.1 313.632 121.388 313.632C120.708 313.632 120.16 313.868 119.744 314.34C119.336 314.804 119.132 315.408 119.132 316.152L117.764 315.192C117.764 314.344 117.976 313.584 118.4 312.912C118.824 312.24 119.392 311.708 120.104 311.316C120.824 310.924 121.628 310.728 122.516 310.728C123.532 310.728 124.364 310.944 125.012 311.376C125.668 311.808 126.152 312.384 126.464 313.104C126.776 313.824 126.932 314.616 126.932 315.48V324H123.668ZM138.092 309.24V306.36H141.356V309.24H138.092ZM138.092 324V311.04H141.356V324H138.092ZM153.785 324V317.88C153.785 317.584 153.769 317.208 153.737 316.752C153.705 316.288 153.605 315.824 153.437 315.36C153.269 314.896 152.993 314.508 152.609 314.196C152.233 313.884 151.697 313.728 151.001 313.728C150.721 313.728 150.421 313.772 150.101 313.86C149.781 313.948 149.481 314.12 149.201 314.376C148.921 314.624 148.689 314.992 148.505 315.48C148.329 315.968 148.241 316.616 148.241 317.424L146.369 316.536C146.369 315.512 146.577 314.552 146.993 313.656C147.409 312.76 148.033 312.036 148.865 311.484C149.705 310.932 150.761 310.656 152.033 310.656C153.049 310.656 153.877 310.828 154.517 311.172C155.157 311.516 155.653 311.952 156.005 312.48C156.365 313.008 156.621 313.56 156.773 314.136C156.925 314.704 157.017 315.224 157.049 315.696C157.081 316.168 157.097 316.512 157.097 316.728V324H153.785ZM144.929 324V311.04H147.833V315.336H148.241V324H144.929ZM165.755 330.12C165.019 330.12 164.319 330 163.655 329.76C162.991 329.528 162.395 329.2 161.867 328.776C161.347 328.36 160.923 327.872 160.595 327.312L163.619 325.848C163.827 326.232 164.123 326.524 164.507 326.724C164.899 326.924 165.323 327.024 165.779 327.024C166.267 327.024 166.727 326.94 167.159 326.772C167.591 326.612 167.935 326.368 168.191 326.04C168.455 325.72 168.579 325.32 168.563 324.84V321.072H168.971V311.04H171.827V324.888C171.827 325.208 171.811 325.508 171.779 325.788C171.755 326.076 171.707 326.36 171.635 326.64C171.427 327.432 171.039 328.084 170.471 328.596C169.911 329.108 169.223 329.488 168.407 329.736C167.591 329.992 166.707 330.12 165.755 330.12ZM165.467 324.36C164.275 324.36 163.231 324.06 162.335 323.46C161.439 322.86 160.739 322.044 160.235 321.012C159.739 319.98 159.491 318.816 159.491 317.52C159.491 316.2 159.743 315.028 160.247 314.004C160.759 312.972 161.475 312.16 162.395 311.568C163.315 310.976 164.395 310.68 165.635 310.68C166.867 310.68 167.903 310.98 168.743 311.58C169.583 312.18 170.219 312.996 170.651 314.028C171.083 315.06 171.299 316.224 171.299 317.52C171.299 318.816 171.079 319.98 170.639 321.012C170.207 322.044 169.559 322.86 168.695 323.46C167.831 324.06 166.755 324.36 165.467 324.36ZM165.995 321.456C166.723 321.456 167.303 321.292 167.735 320.964C168.175 320.636 168.491 320.176 168.683 319.584C168.875 318.992 168.971 318.304 168.971 317.52C168.971 316.736 168.875 316.048 168.683 315.456C168.491 314.864 168.183 314.404 167.759 314.076C167.343 313.748 166.795 313.584 166.115 313.584C165.387 313.584 164.787 313.764 164.315 314.124C163.851 314.476 163.507 314.952 163.283 315.552C163.059 316.144 162.947 316.8 162.947 317.52C162.947 318.248 163.055 318.912 163.271 319.512C163.487 320.104 163.819 320.576 164.267 320.928C164.715 321.28 165.291 321.456 165.995 321.456ZM186.521 324.36C185.241 324.36 184.085 324.136 183.053 323.688C182.029 323.232 181.185 322.584 180.521 321.744C179.865 320.896 179.449 319.888 179.273 318.72L182.681 318.216C182.921 319.208 183.417 319.972 184.169 320.508C184.921 321.044 185.777 321.312 186.737 321.312C187.273 321.312 187.793 321.228 188.297 321.06C188.801 320.892 189.213 320.644 189.533 320.316C189.861 319.988 190.025 319.584 190.025 319.104C190.025 318.928 189.997 318.76 189.941 318.6C189.893 318.432 189.809 318.276 189.689 318.132C189.569 317.988 189.397 317.852 189.173 317.724C188.957 317.596 188.681 317.48 188.345 317.376L183.857 316.056C183.521 315.96 183.129 315.824 182.681 315.648C182.241 315.472 181.813 315.22 181.396 314.892C180.981 314.564 180.633 314.132 180.353 313.596C180.081 313.052 179.945 312.368 179.945 311.544C179.945 310.384 180.237 309.42 180.821 308.652C181.405 307.884 182.185 307.312 183.161 306.936C184.137 306.56 185.217 306.376 186.401 306.384C187.593 306.4 188.657 306.604 189.593 306.996C190.529 307.388 191.313 307.96 191.945 308.712C192.577 309.456 193.033 310.368 193.312 311.448L189.785 312.048C189.657 311.488 189.421 311.016 189.077 310.632C188.733 310.248 188.321 309.956 187.841 309.756C187.369 309.556 186.873 309.448 186.353 309.432C185.841 309.416 185.357 309.488 184.901 309.648C184.453 309.8 184.085 310.024 183.797 310.32C183.517 310.616 183.377 310.968 183.377 311.376C183.377 311.752 183.493 312.06 183.725 312.3C183.957 312.532 184.249 312.72 184.601 312.864C184.953 313.008 185.313 313.128 185.681 313.224L188.681 314.04C189.129 314.16 189.625 314.32 190.169 314.52C190.713 314.712 191.233 314.984 191.729 315.336C192.233 315.68 192.645 316.136 192.965 316.704C193.293 317.272 193.457 317.992 193.457 318.864C193.457 319.792 193.261 320.604 192.869 321.3C192.485 321.988 191.965 322.56 191.309 323.016C190.653 323.464 189.909 323.8 189.077 324.024C188.253 324.248 187.401 324.36 186.521 324.36ZM201.926 324.36C200.622 324.36 199.478 324.068 198.494 323.484C197.51 322.9 196.742 322.096 196.19 321.072C195.646 320.04 195.374 318.856 195.374 317.52C195.374 316.168 195.654 314.98 196.214 313.956C196.774 312.924 197.546 312.12 198.53 311.544C199.514 310.968 200.646 310.68 201.926 310.68C203.23 310.68 204.374 310.972 205.358 311.556C206.35 312.14 207.122 312.948 207.674 313.98C208.226 315.004 208.502 316.184 208.502 317.52C208.502 318.864 208.222 320.052 207.662 321.084C207.11 322.108 206.338 322.912 205.346 323.496C204.362 324.072 203.222 324.36 201.926 324.36ZM201.926 321.312C202.974 321.312 203.754 320.96 204.266 320.256C204.786 319.544 205.046 318.632 205.046 317.52C205.046 316.368 204.782 315.448 204.254 314.76C203.734 314.072 202.958 313.728 201.926 313.728C201.214 313.728 200.63 313.888 200.174 314.208C199.718 314.528 199.378 314.972 199.154 315.54C198.938 316.108 198.83 316.768 198.83 317.52C198.83 318.68 199.09 319.604 199.61 320.292C200.138 320.972 200.91 321.312 201.926 321.312ZM216.973 324.36C215.669 324.36 214.525 324.068 213.541 323.484C212.557 322.9 211.789 322.096 211.237 321.072C210.693 320.04 210.421 318.856 210.421 317.52C210.421 316.168 210.701 314.98 211.261 313.956C211.821 312.924 212.593 312.12 213.577 311.544C214.561 310.968 215.693 310.68 216.973 310.68C218.277 310.68 219.421 310.972 220.405 311.556C221.397 312.14 222.169 312.948 222.721 313.98C223.273 315.004 223.549 316.184 223.549 317.52C223.549 318.864 223.269 320.052 222.709 321.084C222.157 322.108 221.385 322.912 220.393 323.496C219.409 324.072 218.269 324.36 216.973 324.36ZM216.973 321.312C218.021 321.312 218.801 320.96 219.313 320.256C219.833 319.544 220.093 318.632 220.093 317.52C220.093 316.368 219.829 315.448 219.301 314.76C218.781 314.072 218.005 313.728 216.973 313.728C216.261 313.728 215.677 313.888 215.221 314.208C214.765 314.528 214.425 314.972 214.201 315.54C213.985 316.108 213.877 316.768 213.877 317.52C213.877 318.68 214.137 319.604 214.657 320.292C215.185 320.972 215.957 321.312 216.973 321.312ZM235.02 324V317.88C235.02 317.584 235.004 317.208 234.972 316.752C234.94 316.288 234.84 315.824 234.672 315.36C234.504 314.896 234.228 314.508 233.844 314.196C233.468 313.884 232.932 313.728 232.236 313.728C231.956 313.728 231.656 313.772 231.336 313.86C231.016 313.948 230.716 314.12 230.436 314.376C230.156 314.624 229.924 314.992 229.74 315.48C229.564 315.968 229.476 316.616 229.476 317.424L227.604 316.536C227.604 315.512 227.812 314.552 228.228 313.656C228.644 312.76 229.268 312.036 230.1 311.484C230.94 310.932 231.996 310.656 233.268 310.656C234.284 310.656 235.112 310.828 235.752 311.172C236.392 311.516 236.888 311.952 237.24 312.48C237.6 313.008 237.856 313.56 238.008 314.136C238.16 314.704 238.252 315.224 238.284 315.696C238.316 316.168 238.332 316.512 238.332 316.728V324H235.02ZM226.164 324V311.04H229.068V315.336H229.476V324H226.164Z" fill="#F3EEE7"/>
<path d="M-13.1401 386.392L28.7195 434.53V471.506L-13.1401 428.251V386.392Z" fill="url(#paint16_linear_1043_2998)"/>
<path d="M-54.3022 428.252H-13.1402L28.0218 470.809H-13.1402L-54.3022 428.252Z" fill="url(#paint17_linear_1043_2998)"/>
<path d="M155.092 408.535L97.237 475.068V526.173L155.092 466.39V408.535Z" fill="url(#paint18_linear_1043_2998)"/>
<path d="M211.983 466.391H155.093L98.2022 525.21H155.093L211.983 466.391Z" fill="url(#paint19_linear_1043_2998)"/>
<path d="M154.802 408.535H212.947L165.849 465.518H154.802V408.535Z" fill="url(#paint20_linear_1043_2998)"/>
<path d="M212.947 408.536L212.366 465.519H166.14V451.854L212.947 408.536Z" fill="url(#paint21_linear_1043_2998)"/>
<path d="M212.366 466.1H154.802" stroke="url(#paint22_linear_1043_2998)"/>
<path d="M154.802 468.318V410.464" stroke="url(#paint23_linear_1043_2998)"/>
</g>
<defs>
<filter id="filter0_d_1043_2998" x="40.0933" y="176.28" width="236.145" height="103.04" filterUnits="userSpaceOnUse" color-interpolation-filters="sRGB">
<feFlood flood-opacity="0" result="BackgroundImageFix"/>
<feColorMatrix in="SourceAlpha" type="matrix" values="0 0 0 0 0 0 0 0 0 0 0 0 0 0 0 0 0 0 127 0" result="hardAlpha"/>
<feOffset dx="-4" dy="4"/>
<feComposite in2="hardAlpha" operator="out"/>
<feColorMatrix type="matrix" values="0 0 0 0 0.698039 0 0 0 0 0.0823529 0 0 0 0 0.0823529 0 0 0 1 0"/>
<feBlend mode="normal" in2="BackgroundImageFix" result="effect1_dropShadow_1043_2998"/>
<feBlend mode="normal" in="SourceGraphic" in2="effect1_dropShadow_1043_2998" result="shape"/>
</filter>
<radialGradient id="paint0_radial_1043_2998" cx="0" cy="0" r="1" gradientUnits="userSpaceOnUse" gradientTransform="translate(165.667 222.157) rotate(91.6141) scale(382.624 263.322)">
<stop stop-color="#E41A1A"/>
<stop offset="1" stop-color="#FF6565"/>
</radialGradient>
<radialGradient id="paint1_radial_1043_2998" cx="0" cy="0" r="1" gradientUnits="userSpaceOnUse" gradientTransform="translate(198 325.863) rotate(84.2997) scale(338.956 223.61)">
<stop stop-color="#FFE794"/>
<stop offset="1" stop-color="#9700F3" stop-opacity="0.92"/>
</radialGradient>
<linearGradient id="paint2_linear_1043_2998" x1="336.146" y1="14.9152" x2="297.6" y2="63.7394" gradientUnits="userSpaceOnUse">
<stop stop-color="#E22727"/>
<stop offset="1" stop-color="#0A0223"/>
</linearGradient>
<linearGradient id="paint3_linear_1043_2998" x1="336.788" y1="33.5449" x2="327.794" y2="73.3752" gradientUnits="userSpaceOnUse">
<stop stop-color="#B21515"/>
<stop offset="1" stop-color="#0A0223"/>
</linearGradient>
<linearGradient id="paint4_linear_1043_2998" x1="183.249" y1="66.9512" x2="234.642" y2="102.285" gradientUnits="userSpaceOnUse">
<stop stop-color="#F8A22D"/>
<stop offset="1" stop-color="#0A0223"/>
</linearGradient>
<linearGradient id="paint5_linear_1043_2998" x1="180.433" y1="67.5937" x2="192.874" y2="122.692" gradientUnits="userSpaceOnUse">
<stop stop-color="#F8A22D"/>
<stop offset="1" stop-color="#0A0223"/>
</linearGradient>
<linearGradient id="paint6_linear_1043_2998" x1="159.35" y1="14.2725" x2="164.525" y2="62.3477" gradientUnits="userSpaceOnUse">
<stop stop-color="#F8A22D"/>
<stop offset="0.586458" stop-color="#805228"/>
<stop offset="1" stop-color="#0A0223"/>
</linearGradient>
<linearGradient id="paint7_linear_1043_2998" x1="128.536" y1="38.1198" x2="179.306" y2="52.4421" gradientUnits="userSpaceOnUse">
<stop stop-color="#F8A22D"/>
<stop offset="0.529167" stop-color="#7E5028"/>
<stop offset="1" stop-color="#0A0223"/>
</linearGradient>
<linearGradient id="paint8_linear_1043_2998" x1="128" y1="67.4768" x2="181.321" y2="67.4768" gradientUnits="userSpaceOnUse">
<stop stop-color="#F8A22D"/>
<stop offset="1" stop-color="#F8A22D"/>
</linearGradient>
<linearGradient id="paint9_linear_1043_2998" x1="181.438" y1="16.9386" x2="183.017" y2="69.3386" gradientUnits="userSpaceOnUse">
<stop stop-color="#F8A22D"/>
<stop offset="0.477083" stop-color="#F19D2D"/>
<stop offset="1" stop-color="#F8A22D"/>
<stop offset="1" stop-color="#F8A22D"/>
</linearGradient>
<linearGradient id="paint10_linear_1043_2998" x1="288.606" y1="161.709" x2="247.596" y2="196.574" gradientUnits="userSpaceOnUse">
<stop stop-color="#48BAA9"/>
<stop offset="1" stop-color="#0A0223"/>
</linearGradient>
<linearGradient id="paint11_linear_1043_2998" x1="289.996" y1="163.905" x2="280.265" y2="207" gradientUnits="userSpaceOnUse">
<stop stop-color="#48BAA9"/>
<stop offset="1" stop-color="#0A0223"/>
</linearGradient>
<linearGradient id="paint12_linear_1043_2998" x1="306.486" y1="122.2" x2="302.438" y2="159.802" gradientUnits="userSpaceOnUse">
<stop stop-color="#48BAA9"/>
<stop offset="0.513542" stop-color="#295D66"/>
<stop offset="1" stop-color="#0A0223"/>
</linearGradient>
<linearGradient id="paint13_linear_1043_2998" x1="330.587" y1="140.852" x2="290.878" y2="152.054" gradientUnits="userSpaceOnUse">
<stop stop-color="#48BAA9"/>
<stop offset="0.560417" stop-color="#2B656B"/>
<stop offset="1" stop-color="#0A0223"/>
</linearGradient>
<linearGradient id="paint14_linear_1043_2998" x1="330.042" y1="163.665" x2="289.569" y2="163.665" gradientUnits="userSpaceOnUse">
<stop stop-color="#48BAA9"/>
<stop offset="1" stop-color="#48B8A8"/>
</linearGradient>
<linearGradient id="paint15_linear_1043_2998" x1="289.339" y1="124.127" x2="288.523" y2="164.588" gradientUnits="userSpaceOnUse">
<stop stop-color="#48BAA9"/>
<stop offset="1" stop-color="#47B6A6"/>
</linearGradient>
<linearGradient id="paint16_linear_1043_2998" x1="-11.6271" y1="427.747" x2="28.7195" y2="455.485" gradientUnits="userSpaceOnUse">
<stop stop-color="#F8A22D"/>
<stop offset="1" stop-color="#0A0223"/>
</linearGradient>
<linearGradient id="paint17_linear_1043_2998" x1="-13.8379" y1="428.252" x2="-4.07064" y2="471.507" gradientUnits="userSpaceOnUse">
<stop stop-color="#F8A22D"/>
<stop offset="1" stop-color="#0A0223"/>
</linearGradient>
<linearGradient id="paint18_linear_1043_2998" x1="155.092" y1="438.427" x2="97.237" y2="511.71" gradientUnits="userSpaceOnUse">
<stop stop-color="#E22727"/>
<stop offset="1" stop-color="#0A0223"/>
</linearGradient>
<linearGradient id="paint19_linear_1043_2998" x1="156.057" y1="466.391" x2="142.558" y2="526.174" gradientUnits="userSpaceOnUse">
<stop stop-color="#B21515"/>
<stop offset="1" stop-color="#0A0223"/>
</linearGradient>
<linearGradient id="paint20_linear_1043_2998" x1="178.932" y1="408.535" x2="173.317" y2="460.698" gradientUnits="userSpaceOnUse">
<stop stop-color="#E22727"/>
<stop offset="0.529167" stop-color="#871725"/>
<stop offset="1" stop-color="#0A0223"/>
</linearGradient>
<linearGradient id="paint21_linear_1043_2998" x1="212.366" y1="434.411" x2="157.28" y2="449.951" gradientUnits="userSpaceOnUse">
<stop stop-color="#E22727"/>
<stop offset="0.425" stop-color="#8F1925"/>
<stop offset="1" stop-color="#0A0223"/>
</linearGradient>
<linearGradient id="paint22_linear_1043_2998" x1="212.948" y1="466.25" x2="155.093" y2="466.25" gradientUnits="userSpaceOnUse">
<stop stop-color="#AA1416"/>
<stop offset="0.289583" stop-color="#B21515"/>
<stop offset="1" stop-color="#B21515"/>
</linearGradient>
<linearGradient id="paint23_linear_1043_2998" x1="154.952" y1="411.428" x2="153.094" y2="468.274" gradientUnits="userSpaceOnUse">
<stop stop-color="#E22727"/>
<stop offset="0.506946" stop-color="#D92627"/>
<stop offset="1" stop-color="#B21515"/>
</linearGradient>
<clipPath id="clip0_1043_2998">
<rect width="320" height="568" fill="white"/>
</clipPath>
</defs>
</svg>
