<svg width="38" height="75" viewBox="0 0 38 75" fill="none" xmlns="http://www.w3.org/2000/svg">
<path d="M18.7498 74.9993C13.7771 74.9992 9.00801 73.0237 5.4918 69.5073C1.9756 65.991 0.000266446 61.2219 0.000361726 56.2491C0.000457005 51.2763 1.97597 46.5073 5.49231 42.9911C9.00865 39.4749 13.7778 37.4995 18.7505 37.4996L18.7502 56.2495L18.7498 74.9993Z" fill="url(#paint0_linear_116_2229)"/>
<path d="M18.7505 37.4988C23.7233 37.4989 28.4924 39.4744 32.0086 42.9907C35.5248 46.5071 37.5001 51.2762 37.5 56.2489C37.4999 61.2217 35.5244 65.9908 32.0081 69.507C28.4917 73.0232 23.7226 74.9985 18.7498 74.9984L18.7502 56.2486L18.7505 37.4988Z" fill="url(#paint1_linear_116_2229)"/>
<path d="M18.7501 56.2493C13.7773 56.2492 9.00826 54.2737 5.49205 50.7573C1.97584 47.241 0.000510587 42.4719 0.000605866 37.4991C0.000701146 32.5263 1.97621 27.7573 5.49256 24.2411C9.00889 20.7249 13.778 18.7495 18.7508 18.7496L18.7504 37.4995L18.7501 56.2493Z" fill="url(#paint2_linear_116_2229)"/>
<path d="M18.7508 18.7488C23.7235 18.7489 28.4926 20.7244 32.0088 24.2407C35.525 27.7571 37.5003 32.5262 37.5002 37.4989C37.5002 42.4717 35.5246 47.2408 32.0083 50.757C28.492 54.2732 23.7228 56.2485 18.7501 56.2484L18.7504 37.4986L18.7508 18.7488Z" fill="url(#paint3_linear_116_2229)"/>
<path d="M18.7506 37.5012C13.7778 37.5011 9.00874 35.5256 5.49254 32.0093C1.97633 28.4929 0.000998868 23.7238 0.00109415 18.7511C0.00118943 13.7783 1.9767 9.00924 5.49304 5.49304C9.00938 1.97683 13.7785 0.00149934 18.7513 0.00159387L18.7509 18.7514L18.7506 37.5012Z" fill="url(#paint4_linear_116_2229)"/>
<path d="M18.7514 0.000714019C23.7242 0.000809298 28.4932 1.97632 32.0094 5.49266C35.5256 9.009 37.501 13.7781 37.5009 18.7509C37.5008 23.7237 35.5253 28.4927 32.0089 32.0089C28.4926 35.5251 23.7234 37.5005 18.7507 37.5004L18.751 18.7505L18.7514 0.000714019Z" fill="url(#paint5_linear_116_2229)"/>
<defs>
<linearGradient id="paint0_linear_116_2229" x1="18.7505" y1="37.4996" x2="18.7498" y2="74.9993" gradientUnits="userSpaceOnUse">
<stop stop-color="#E453FB" stop-opacity="0"/>
<stop offset="1" stop-color="#E270F4"/>
</linearGradient>
<linearGradient id="paint1_linear_116_2229" x1="18.7498" y1="74.9984" x2="18.7505" y2="37.4988" gradientUnits="userSpaceOnUse">
<stop stop-color="#E453FB" stop-opacity="0"/>
<stop offset="1" stop-color="#E270F4"/>
</linearGradient>
<linearGradient id="paint2_linear_116_2229" x1="18.7508" y1="18.7496" x2="18.7501" y2="56.2493" gradientUnits="userSpaceOnUse">
<stop stop-color="#E453FB" stop-opacity="0"/>
<stop offset="1" stop-color="#E270F4"/>
</linearGradient>
<linearGradient id="paint3_linear_116_2229" x1="18.7501" y1="56.2484" x2="18.7508" y2="18.7488" gradientUnits="userSpaceOnUse">
<stop stop-color="#E453FB" stop-opacity="0"/>
<stop offset="1" stop-color="#E270F4"/>
</linearGradient>
<linearGradient id="paint4_linear_116_2229" x1="18.7513" y1="0.00159387" x2="18.7506" y2="37.5012" gradientUnits="userSpaceOnUse">
<stop stop-color="#E453FB" stop-opacity="0"/>
<stop offset="1" stop-color="#E270F4"/>
</linearGradient>
<linearGradient id="paint5_linear_116_2229" x1="18.7507" y1="37.5004" x2="18.7514" y2="0.000714019" gradientUnits="userSpaceOnUse">
<stop stop-color="#E453FB" stop-opacity="0"/>
<stop offset="1" stop-color="#E270F4"/>
</linearGradient>
</defs>
</svg>
