<svg width="320" height="568" viewBox="0 0 320 568" fill="none" xmlns="http://www.w3.org/2000/svg">
<g clip-path="url(#clip0_1043_2999)">
<rect width="320" height="568" fill="white"/>
<rect width="320" height="568" fill="url(#paint0_radial_1043_2999)"/>
<rect width="320" height="568" fill="url(#paint1_radial_1043_2999)" fill-opacity="0.2"/>
<path d="M336.146 -5L297.6 39.3273V73.3758L336.146 33.5455V-5Z" fill="url(#paint2_linear_1043_2999)"/>
<path d="M374.049 33.5449H336.146L298.243 72.7328H336.146L374.049 33.5449Z" fill="url(#paint3_linear_1043_2999)"/>
<path d="M181.321 14.2725L234.643 75.5919V122.692L181.321 67.5937V14.2725Z" fill="url(#paint4_linear_1043_2999)"/>
<path d="M128.889 67.5938H181.321L233.754 121.804H181.321L128.889 67.5938Z" fill="url(#paint5_linear_1043_2999)"/>
<path d="M181.589 14.2725L128 14.2725L171.407 66.7898H181.589V14.2725Z" fill="url(#paint6_linear_1043_2999)"/>
<path d="M128 14.2727L128.536 66.79H171.139V54.1966L128 14.2727Z" fill="url(#paint7_linear_1043_2999)"/>
<path d="M128.536 67.3262H181.589" stroke="url(#paint8_linear_1043_2999)"/>
<path d="M181.589 69.3711V15.5574" stroke="url(#paint9_linear_1043_2999)"/>
<path d="M289.301 122.2L247.596 170.161V207L289.301 163.905V122.2Z" fill="url(#paint10_linear_1043_2999)"/>
<path d="M330.311 163.905H289.301L248.291 206.305H289.301L330.311 163.905Z" fill="url(#paint11_linear_1043_2999)"/>
<path d="M289.091 122.2H331.006L297.055 163.276H289.091V122.2Z" fill="url(#paint12_linear_1043_2999)"/>
<path d="M331.006 122.2L330.587 163.276H297.265V153.426L331.006 122.2Z" fill="url(#paint13_linear_1043_2999)"/>
<path d="M330.586 163.695H289.091" stroke="url(#paint14_linear_1043_2999)"/>
<path d="M289.091 165.295V123.59" stroke="url(#paint15_linear_1043_2999)"/>
<g filter="url(#filter0_d_1043_2999)">
<path d="M152.975 214.6V237H144.655V226.344L138.543 237H133.103L126.991 226.344V237H118.671V214.6H128.911L135.823 227.4L142.735 214.6H152.975ZM162.585 214.6V237H154.265V214.6H162.585ZM184.403 214.6H192.723V237H181.843L172.179 223.784V237H163.859V214.6H174.739L184.403 227.816V214.6ZM202.335 214.6V237H194.015V214.6H202.335ZM37.57 263.768C37.57 255.992 41.794 252.28 51.65 252.28C60.61 252.28 65.282 255.416 65.634 262.488H57.122C56.802 260.376 55.17 259.32 51.65 259.32C46.722 259.32 45.89 261.4 45.89 263.768C45.89 266.168 46.754 268.28 51.65 268.28C55.17 268.28 56.802 267.192 57.122 265.048H65.634C65.282 272.152 60.642 275.32 51.65 275.32C41.794 275.32 37.57 271.576 37.57 263.768ZM88.0488 252.6H96.3688V275H88.0488V267.32H74.9288V275H66.6088V252.6H74.9288V260.28H88.0488V252.6ZM118.768 275L117.232 270.968H107.696L106.16 275H97.0075L106.288 252.6H118.64L127.92 275H118.768ZM109.872 265.208H115.056L112.464 258.36L109.872 265.208ZM136.898 267.96H151.618V275H128.578V252.6H136.898V267.96ZM160.898 267.96H175.618V275H152.578V252.6H160.898V267.96ZM200.258 259H184.898V261.08H200.258V266.52H184.898V268.6H200.258V275H176.578V252.6H200.258V259ZM221.747 252.6H230.067V275H219.187L209.523 261.784V275H201.203V252.6H212.083L221.747 265.816V252.6ZM244.262 267.288V262.808H258.79V275H253.99L253.382 271.768C251.494 273.976 248.55 275.32 243.846 275.32C235.59 275.32 230.726 271.576 230.726 263.768C230.726 255.992 235.59 252.28 244.806 252.28C253.766 252.28 258.438 255.416 258.79 261.528H250.278C249.958 260.376 248.326 259.32 244.806 259.32C239.878 259.32 239.046 261.4 239.046 264.088C239.046 266.808 239.91 269.24 244.806 269.24C248.006 269.24 249.958 268.792 250.278 267.288H244.262ZM283.445 259H268.085V261.08H283.445V266.52H268.085V268.6H283.445V275H259.765V252.6H283.445V259Z" fill="#F3EEE7"/>
</g>
<path d="M90.3304 324.36C88.6024 324.36 87.1104 323.984 85.8544 323.232C84.6064 322.48 83.6424 321.428 82.9624 320.076C82.2904 318.724 81.9544 317.152 81.9544 315.36C81.9544 313.568 82.2904 311.996 82.9624 310.644C83.6424 309.292 84.6064 308.24 85.8544 307.488C87.1104 306.736 88.6024 306.36 90.3304 306.36C92.3144 306.36 93.9784 306.852 95.3224 307.836C96.6744 308.82 97.6264 310.152 98.1784 311.832L94.8904 312.744C94.5704 311.696 94.0304 310.884 93.2704 310.308C92.5104 309.724 91.5304 309.432 90.3304 309.432C89.2344 309.432 88.3184 309.676 87.5824 310.164C86.8544 310.652 86.3064 311.34 85.9384 312.228C85.5704 313.116 85.3864 314.16 85.3864 315.36C85.3864 316.56 85.5704 317.604 85.9384 318.492C86.3064 319.38 86.8544 320.068 87.5824 320.556C88.3184 321.044 89.2344 321.288 90.3304 321.288C91.5304 321.288 92.5104 320.996 93.2704 320.412C94.0304 319.828 94.5704 319.016 94.8904 317.976L98.1784 318.888C97.6264 320.568 96.6744 321.9 95.3224 322.884C93.9784 323.868 92.3144 324.36 90.3304 324.36ZM106.653 324.36C105.349 324.36 104.205 324.068 103.221 323.484C102.237 322.9 101.469 322.096 100.917 321.072C100.373 320.04 100.101 318.856 100.101 317.52C100.101 316.168 100.381 314.98 100.941 313.956C101.501 312.924 102.273 312.12 103.257 311.544C104.241 310.968 105.373 310.68 106.653 310.68C107.957 310.68 109.101 310.972 110.085 311.556C111.077 312.14 111.849 312.948 112.401 313.98C112.953 315.004 113.229 316.184 113.229 317.52C113.229 318.864 112.949 320.052 112.389 321.084C111.837 322.108 111.065 322.912 110.073 323.496C109.089 324.072 107.949 324.36 106.653 324.36ZM106.653 321.312C107.701 321.312 108.481 320.96 108.993 320.256C109.513 319.544 109.773 318.632 109.773 317.52C109.773 316.368 109.509 315.448 108.981 314.76C108.461 314.072 107.685 313.728 106.653 313.728C105.941 313.728 105.357 313.888 104.901 314.208C104.445 314.528 104.105 314.972 103.881 315.54C103.665 316.108 103.557 316.768 103.557 317.52C103.557 318.68 103.817 319.604 104.337 320.292C104.865 320.972 105.637 321.312 106.653 321.312ZM131.468 324V316.344C131.468 315.488 131.264 314.824 130.856 314.352C130.456 313.872 129.9 313.632 129.188 313.632C128.732 313.632 128.336 313.74 128 313.956C127.664 314.164 127.4 314.46 127.208 314.844C127.024 315.22 126.932 315.656 126.932 316.152L125.564 315.24C125.564 314.352 125.772 313.568 126.188 312.888C126.612 312.208 127.176 311.68 127.88 311.304C128.592 310.92 129.38 310.728 130.244 310.728C131.724 310.728 132.84 311.168 133.592 312.048C134.352 312.92 134.732 314.064 134.732 315.48V324H131.468ZM115.844 324V311.04H118.724V315.336H119.132V324H115.844ZM123.668 324V316.344C123.668 315.488 123.464 314.824 123.056 314.352C122.656 313.872 122.1 313.632 121.388 313.632C120.708 313.632 120.16 313.868 119.744 314.34C119.336 314.804 119.132 315.408 119.132 316.152L117.764 315.192C117.764 314.344 117.976 313.584 118.4 312.912C118.824 312.24 119.392 311.708 120.104 311.316C120.824 310.924 121.628 310.728 122.516 310.728C123.532 310.728 124.364 310.944 125.012 311.376C125.668 311.808 126.152 312.384 126.464 313.104C126.776 313.824 126.932 314.616 126.932 315.48V324H123.668ZM138.092 309.24V306.36H141.356V309.24H138.092ZM138.092 324V311.04H141.356V324H138.092ZM153.785 324V317.88C153.785 317.584 153.769 317.208 153.737 316.752C153.705 316.288 153.605 315.824 153.437 315.36C153.269 314.896 152.993 314.508 152.609 314.196C152.233 313.884 151.697 313.728 151.001 313.728C150.721 313.728 150.421 313.772 150.101 313.86C149.781 313.948 149.481 314.12 149.201 314.376C148.921 314.624 148.689 314.992 148.505 315.48C148.329 315.968 148.241 316.616 148.241 317.424L146.369 316.536C146.369 315.512 146.577 314.552 146.993 313.656C147.409 312.76 148.033 312.036 148.865 311.484C149.705 310.932 150.761 310.656 152.033 310.656C153.049 310.656 153.877 310.828 154.517 311.172C155.157 311.516 155.653 311.952 156.005 312.48C156.365 313.008 156.621 313.56 156.773 314.136C156.925 314.704 157.017 315.224 157.049 315.696C157.081 316.168 157.097 316.512 157.097 316.728V324H153.785ZM144.929 324V311.04H147.833V315.336H148.241V324H144.929ZM165.755 330.12C165.019 330.12 164.319 330 163.655 329.76C162.991 329.528 162.395 329.2 161.867 328.776C161.347 328.36 160.923 327.872 160.595 327.312L163.619 325.848C163.827 326.232 164.123 326.524 164.507 326.724C164.899 326.924 165.323 327.024 165.779 327.024C166.267 327.024 166.727 326.94 167.159 326.772C167.591 326.612 167.935 326.368 168.191 326.04C168.455 325.72 168.579 325.32 168.563 324.84V321.072H168.971V311.04H171.827V324.888C171.827 325.208 171.811 325.508 171.779 325.788C171.755 326.076 171.707 326.36 171.635 326.64C171.427 327.432 171.039 328.084 170.471 328.596C169.911 329.108 169.223 329.488 168.407 329.736C167.591 329.992 166.707 330.12 165.755 330.12ZM165.467 324.36C164.275 324.36 163.231 324.06 162.335 323.46C161.439 322.86 160.739 322.044 160.235 321.012C159.739 319.98 159.491 318.816 159.491 317.52C159.491 316.2 159.743 315.028 160.247 314.004C160.759 312.972 161.475 312.16 162.395 311.568C163.315 310.976 164.395 310.68 165.635 310.68C166.867 310.68 167.903 310.98 168.743 311.58C169.583 312.18 170.219 312.996 170.651 314.028C171.083 315.06 171.299 316.224 171.299 317.52C171.299 318.816 171.079 319.98 170.639 321.012C170.207 322.044 169.559 322.86 168.695 323.46C167.831 324.06 166.755 324.36 165.467 324.36ZM165.995 321.456C166.723 321.456 167.303 321.292 167.735 320.964C168.175 320.636 168.491 320.176 168.683 319.584C168.875 318.992 168.971 318.304 168.971 317.52C168.971 316.736 168.875 316.048 168.683 315.456C168.491 314.864 168.183 314.404 167.759 314.076C167.343 313.748 166.795 313.584 166.115 313.584C165.387 313.584 164.787 313.764 164.315 314.124C163.851 314.476 163.507 314.952 163.283 315.552C163.059 316.144 162.947 316.8 162.947 317.52C162.947 318.248 163.055 318.912 163.271 319.512C163.487 320.104 163.819 320.576 164.267 320.928C164.715 321.28 165.291 321.456 165.995 321.456ZM186.521 324.36C185.241 324.36 184.085 324.136 183.053 323.688C182.029 323.232 181.185 322.584 180.521 321.744C179.865 320.896 179.449 319.888 179.273 318.72L182.681 318.216C182.921 319.208 183.417 319.972 184.169 320.508C184.921 321.044 185.777 321.312 186.737 321.312C187.273 321.312 187.793 321.228 188.297 321.06C188.801 320.892 189.213 320.644 189.533 320.316C189.861 319.988 190.025 319.584 190.025 319.104C190.025 318.928 189.997 318.76 189.941 318.6C189.893 318.432 189.809 318.276 189.689 318.132C189.569 317.988 189.397 317.852 189.173 317.724C188.957 317.596 188.681 317.48 188.345 317.376L183.857 316.056C183.521 315.96 183.129 315.824 182.681 315.648C182.241 315.472 181.813 315.22 181.396 314.892C180.981 314.564 180.633 314.132 180.353 313.596C180.081 313.052 179.945 312.368 179.945 311.544C179.945 310.384 180.237 309.42 180.821 308.652C181.405 307.884 182.185 307.312 183.161 306.936C184.137 306.56 185.217 306.376 186.401 306.384C187.593 306.4 188.657 306.604 189.593 306.996C190.529 307.388 191.313 307.96 191.945 308.712C192.577 309.456 193.033 310.368 193.312 311.448L189.785 312.048C189.657 311.488 189.421 311.016 189.077 310.632C188.733 310.248 188.321 309.956 187.841 309.756C187.369 309.556 186.873 309.448 186.353 309.432C185.841 309.416 185.357 309.488 184.901 309.648C184.453 309.8 184.085 310.024 183.797 310.32C183.517 310.616 183.377 310.968 183.377 311.376C183.377 311.752 183.493 312.06 183.725 312.3C183.957 312.532 184.249 312.72 184.601 312.864C184.953 313.008 185.313 313.128 185.681 313.224L188.681 314.04C189.129 314.16 189.625 314.32 190.169 314.52C190.713 314.712 191.233 314.984 191.729 315.336C192.233 315.68 192.645 316.136 192.965 316.704C193.293 317.272 193.457 317.992 193.457 318.864C193.457 319.792 193.261 320.604 192.869 321.3C192.485 321.988 191.965 322.56 191.309 323.016C190.653 323.464 189.909 323.8 189.077 324.024C188.253 324.248 187.401 324.36 186.521 324.36ZM201.926 324.36C200.622 324.36 199.478 324.068 198.494 323.484C197.51 322.9 196.742 322.096 196.19 321.072C195.646 320.04 195.374 318.856 195.374 317.52C195.374 316.168 195.654 314.98 196.214 313.956C196.774 312.924 197.546 312.12 198.53 311.544C199.514 310.968 200.646 310.68 201.926 310.68C203.23 310.68 204.374 310.972 205.358 311.556C206.35 312.14 207.122 312.948 207.674 313.98C208.226 315.004 208.502 316.184 208.502 317.52C208.502 318.864 208.222 320.052 207.662 321.084C207.11 322.108 206.338 322.912 205.346 323.496C204.362 324.072 203.222 324.36 201.926 324.36ZM201.926 321.312C202.974 321.312 203.754 320.96 204.266 320.256C204.786 319.544 205.046 318.632 205.046 317.52C205.046 316.368 204.782 315.448 204.254 314.76C203.734 314.072 202.958 313.728 201.926 313.728C201.214 313.728 200.63 313.888 200.174 314.208C199.718 314.528 199.378 314.972 199.154 315.54C198.938 316.108 198.83 316.768 198.83 317.52C198.83 318.68 199.09 319.604 199.61 320.292C200.138 320.972 200.91 321.312 201.926 321.312ZM216.973 324.36C215.669 324.36 214.525 324.068 213.541 323.484C212.557 322.9 211.789 322.096 211.237 321.072C210.693 320.04 210.421 318.856 210.421 317.52C210.421 316.168 210.701 314.98 211.261 313.956C211.821 312.924 212.593 312.12 213.577 311.544C214.561 310.968 215.693 310.68 216.973 310.68C218.277 310.68 219.421 310.972 220.405 311.556C221.397 312.14 222.169 312.948 222.721 313.98C223.273 315.004 223.549 316.184 223.549 317.52C223.549 318.864 223.269 320.052 222.709 321.084C222.157 322.108 221.385 322.912 220.393 323.496C219.409 324.072 218.269 324.36 216.973 324.36ZM216.973 321.312C218.021 321.312 218.801 320.96 219.313 320.256C219.833 319.544 220.093 318.632 220.093 317.52C220.093 316.368 219.829 315.448 219.301 314.76C218.781 314.072 218.005 313.728 216.973 313.728C216.261 313.728 215.677 313.888 215.221 314.208C214.765 314.528 214.425 314.972 214.201 315.54C213.985 316.108 213.877 316.768 213.877 317.52C213.877 318.68 214.137 319.604 214.657 320.292C215.185 320.972 215.957 321.312 216.973 321.312ZM235.02 324V317.88C235.02 317.584 235.004 317.208 234.972 316.752C234.94 316.288 234.84 315.824 234.672 315.36C234.504 314.896 234.228 314.508 233.844 314.196C233.468 313.884 232.932 313.728 232.236 313.728C231.956 313.728 231.656 313.772 231.336 313.86C231.016 313.948 230.716 314.12 230.436 314.376C230.156 314.624 229.924 314.992 229.74 315.48C229.564 315.968 229.476 316.616 229.476 317.424L227.604 316.536C227.604 315.512 227.812 314.552 228.228 313.656C228.644 312.76 229.268 312.036 230.1 311.484C230.94 310.932 231.996 310.656 233.268 310.656C234.284 310.656 235.112 310.828 235.752 311.172C236.392 311.516 236.888 311.952 237.24 312.48C237.6 313.008 237.856 313.56 238.008 314.136C238.16 314.704 238.252 315.224 238.284 315.696C238.316 316.168 238.332 316.512 238.332 316.728V324H235.02ZM226.164 324V311.04H229.068V315.336H229.476V324H226.164Z" fill="#F3EEE7"/>
<path d="M-8.90625 389L32.1875 436.258V472.557L-8.90625 430.094V389Z" fill="url(#paint16_linear_1043_2999)"/>
<path d="M-49.3154 430.094H-8.90656L31.5023 471.872H-8.90656L-49.3154 430.094Z" fill="url(#paint17_linear_1043_2999)"/>
<path d="M156.034 409.547L99.1878 474.92V525.134L156.034 466.393V409.547Z" fill="url(#paint18_linear_1043_2999)"/>
<path d="M211.933 466.394H156.034L100.135 524.187H156.034L211.933 466.394Z" fill="url(#paint19_linear_1043_2999)"/>
<path d="M155.748 409.547H212.88L166.603 465.536H155.748V409.547Z" fill="url(#paint20_linear_1043_2999)"/>
<path d="M212.88 409.547L212.309 465.536H166.889V452.11L212.88 409.547Z" fill="url(#paint21_linear_1043_2999)"/>
<path d="M212.309 466.108H155.748" stroke="url(#paint22_linear_1043_2999)"/>
<path d="M155.749 468.288V410.917" stroke="url(#paint23_linear_1043_2999)"/>
</g>
<defs>
<filter id="filter0_d_1043_2999" x="33.5698" y="214.6" width="249.875" height="64.7207" filterUnits="userSpaceOnUse" color-interpolation-filters="sRGB">
<feFlood flood-opacity="0" result="BackgroundImageFix"/>
<feColorMatrix in="SourceAlpha" type="matrix" values="0 0 0 0 0 0 0 0 0 0 0 0 0 0 0 0 0 0 127 0" result="hardAlpha"/>
<feOffset dx="-4" dy="4"/>
<feComposite in2="hardAlpha" operator="out"/>
<feColorMatrix type="matrix" values="0 0 0 0 0.254902 0 0 0 0 0.211765 0 0 0 0 0.529412 0 0 0 1 0"/>
<feBlend mode="normal" in2="BackgroundImageFix" result="effect1_dropShadow_1043_2999"/>
<feBlend mode="normal" in="SourceGraphic" in2="effect1_dropShadow_1043_2999" result="shape"/>
</filter>
<radialGradient id="paint0_radial_1043_2999" cx="0" cy="0" r="1" gradientUnits="userSpaceOnUse" gradientTransform="translate(160 284) rotate(91.4193) scale(399.245 188.669)">
<stop stop-color="#B398DD"/>
<stop offset="0.921875" stop-color="#5F4A8B"/>
</radialGradient>
<radialGradient id="paint1_radial_1043_2999" cx="0" cy="0" r="1" gradientUnits="userSpaceOnUse" gradientTransform="translate(160 284) rotate(84.0338) scale(336.725 225.224)">
<stop stop-color="#E860CA"/>
<stop offset="1" stop-color="#541099"/>
</radialGradient>
<linearGradient id="paint2_linear_1043_2999" x1="336.146" y1="14.9152" x2="297.6" y2="63.7394" gradientUnits="userSpaceOnUse">
<stop stop-color="#E22727"/>
<stop offset="1" stop-color="#0A0223"/>
</linearGradient>
<linearGradient id="paint3_linear_1043_2999" x1="336.788" y1="33.5449" x2="327.794" y2="73.3752" gradientUnits="userSpaceOnUse">
<stop stop-color="#B21515"/>
<stop offset="1" stop-color="#0A0223"/>
</linearGradient>
<linearGradient id="paint4_linear_1043_2999" x1="183.249" y1="66.9512" x2="234.642" y2="102.285" gradientUnits="userSpaceOnUse">
<stop stop-color="#F8A22D"/>
<stop offset="1" stop-color="#0A0223"/>
</linearGradient>
<linearGradient id="paint5_linear_1043_2999" x1="180.433" y1="67.5937" x2="192.874" y2="122.692" gradientUnits="userSpaceOnUse">
<stop stop-color="#F8A22D"/>
<stop offset="1" stop-color="#0A0223"/>
</linearGradient>
<linearGradient id="paint6_linear_1043_2999" x1="159.35" y1="14.2725" x2="164.525" y2="62.3477" gradientUnits="userSpaceOnUse">
<stop stop-color="#F8A22D"/>
<stop offset="0.586458" stop-color="#805228"/>
<stop offset="1" stop-color="#0A0223"/>
</linearGradient>
<linearGradient id="paint7_linear_1043_2999" x1="128.536" y1="38.1198" x2="179.306" y2="52.4421" gradientUnits="userSpaceOnUse">
<stop stop-color="#F8A22D"/>
<stop offset="0.529167" stop-color="#7E5028"/>
<stop offset="1" stop-color="#0A0223"/>
</linearGradient>
<linearGradient id="paint8_linear_1043_2999" x1="128" y1="67.4768" x2="181.321" y2="67.4768" gradientUnits="userSpaceOnUse">
<stop stop-color="#F8A22D"/>
<stop offset="1" stop-color="#F8A22D"/>
</linearGradient>
<linearGradient id="paint9_linear_1043_2999" x1="181.438" y1="16.9386" x2="183.017" y2="69.3386" gradientUnits="userSpaceOnUse">
<stop stop-color="#F8A22D"/>
<stop offset="0.477083" stop-color="#F19D2D"/>
<stop offset="1" stop-color="#F8A22D"/>
<stop offset="1" stop-color="#F8A22D"/>
</linearGradient>
<linearGradient id="paint10_linear_1043_2999" x1="288.606" y1="161.709" x2="247.596" y2="196.574" gradientUnits="userSpaceOnUse">
<stop stop-color="#48BAA9"/>
<stop offset="1" stop-color="#0A0223"/>
</linearGradient>
<linearGradient id="paint11_linear_1043_2999" x1="289.996" y1="163.905" x2="280.265" y2="207" gradientUnits="userSpaceOnUse">
<stop stop-color="#48BAA9"/>
<stop offset="1" stop-color="#0A0223"/>
</linearGradient>
<linearGradient id="paint12_linear_1043_2999" x1="306.486" y1="122.2" x2="302.438" y2="159.802" gradientUnits="userSpaceOnUse">
<stop stop-color="#48BAA9"/>
<stop offset="0.513542" stop-color="#295D66"/>
<stop offset="1" stop-color="#0A0223"/>
</linearGradient>
<linearGradient id="paint13_linear_1043_2999" x1="330.587" y1="140.852" x2="290.878" y2="152.054" gradientUnits="userSpaceOnUse">
<stop stop-color="#48BAA9"/>
<stop offset="0.560417" stop-color="#2B656B"/>
<stop offset="1" stop-color="#0A0223"/>
</linearGradient>
<linearGradient id="paint14_linear_1043_2999" x1="330.042" y1="163.665" x2="289.569" y2="163.665" gradientUnits="userSpaceOnUse">
<stop stop-color="#48BAA9"/>
<stop offset="1" stop-color="#48B8A8"/>
</linearGradient>
<linearGradient id="paint15_linear_1043_2999" x1="289.339" y1="124.127" x2="288.523" y2="164.588" gradientUnits="userSpaceOnUse">
<stop stop-color="#48BAA9"/>
<stop offset="1" stop-color="#47B6A6"/>
</linearGradient>
<linearGradient id="paint16_linear_1043_2999" x1="-8.90625" y1="410.232" x2="32.1875" y2="462.284" gradientUnits="userSpaceOnUse">
<stop stop-color="#E22727"/>
<stop offset="1" stop-color="#0A0223"/>
</linearGradient>
<linearGradient id="paint17_linear_1043_2999" x1="-9.59146" y1="430.094" x2="-0.00291119" y2="472.557" gradientUnits="userSpaceOnUse">
<stop stop-color="#B21515"/>
<stop offset="1" stop-color="#0A0223"/>
</linearGradient>
<linearGradient id="paint18_linear_1043_2999" x1="153.979" y1="465.708" x2="99.1878" y2="503.378" gradientUnits="userSpaceOnUse">
<stop stop-color="#F8A22D"/>
<stop offset="1" stop-color="#0A0223"/>
</linearGradient>
<linearGradient id="paint19_linear_1043_2999" x1="156.982" y1="466.394" x2="143.717" y2="525.135" gradientUnits="userSpaceOnUse">
<stop stop-color="#F8A22D"/>
<stop offset="1" stop-color="#0A0223"/>
</linearGradient>
<linearGradient id="paint20_linear_1043_2999" x1="179.458" y1="409.547" x2="173.941" y2="460.8" gradientUnits="userSpaceOnUse">
<stop stop-color="#F8A22D"/>
<stop offset="0.586458" stop-color="#805228"/>
<stop offset="1" stop-color="#0A0223"/>
</linearGradient>
<linearGradient id="paint21_linear_1043_2999" x1="212.309" y1="434.97" x2="158.183" y2="450.24" gradientUnits="userSpaceOnUse">
<stop stop-color="#F8A22D"/>
<stop offset="0.529167" stop-color="#7E5028"/>
<stop offset="1" stop-color="#0A0223"/>
</linearGradient>
<linearGradient id="paint22_linear_1043_2999" x1="212.88" y1="466.259" x2="156.034" y2="466.259" gradientUnits="userSpaceOnUse">
<stop stop-color="#F8A22D"/>
<stop offset="1" stop-color="#F8A22D"/>
</linearGradient>
<linearGradient id="paint23_linear_1043_2999" x1="155.899" y1="412.389" x2="154.105" y2="468.247" gradientUnits="userSpaceOnUse">
<stop stop-color="#F8A22D"/>
<stop offset="0.477083" stop-color="#F19D2D"/>
<stop offset="1" stop-color="#F8A22D"/>
<stop offset="1" stop-color="#F8A22D"/>
</linearGradient>
<clipPath id="clip0_1043_2999">
<rect width="320" height="568" fill="white"/>
</clipPath>
</defs>
</svg>
