<svg width="1440" height="597" viewBox="0 0 1440 597" fill="none" xmlns="http://www.w3.org/2000/svg">
<g clip-path="url(#clip0_91_2110)">
<rect width="1440" height="597" fill="white"/>
<rect width="1440" height="597" fill="url(#paint0_radial_91_2110)"/>
<rect width="1440" height="597" fill="url(#paint1_radial_91_2110)" fill-opacity="0.2"/>
<circle cx="96" cy="447" r="465" fill="url(#paint2_radial_91_2110)" fill-opacity="0.5"/>
<circle cx="1228" cy="132" r="465" fill="url(#paint3_radial_91_2110)" fill-opacity="0.5"/>
<path d="M2.36377 328L62.7274 397.418V450.739L2.36377 388.364V328Z" fill="url(#paint4_linear_91_2110)"/>
<path d="M-56.9941 388.363H2.36343L61.721 449.733H2.36343L-56.9941 388.363Z" fill="url(#paint5_linear_91_2110)"/>
<path d="M2.66697 328H-58L-8.85976 387.454H2.66697L2.66697 328Z" fill="url(#paint6_linear_91_2110)"/>
<path d="M-57.3936 388.061H2.66675" stroke="url(#paint7_linear_91_2110)"/>
<path d="M2.66699 390.376L2.66699 330.012" stroke="url(#paint8_linear_91_2110)"/>
<path d="M244.824 358.182L161.321 454.21V527.971L244.824 441.685V358.182Z" fill="url(#paint9_linear_91_2110)"/>
<path d="M326.936 441.685H244.824L162.713 526.579H244.824L326.936 441.685Z" fill="url(#paint10_linear_91_2110)"/>
<path d="M244.405 358.182H328.327L260.35 440.426H244.405V358.182Z" fill="url(#paint11_linear_91_2110)"/>
<path d="M328.327 358.182L327.488 440.426H260.769V420.704L328.327 358.182Z" fill="url(#paint12_linear_91_2110)"/>
<path d="M327.488 441.266H244.404" stroke="url(#paint13_linear_91_2110)"/>
<path d="M244.405 444.468V360.193" stroke="url(#paint14_linear_91_2110)"/>
<path d="M1437.96 180L1377.6 249.418V302.739L1437.96 240.364V180Z" fill="url(#paint15_linear_91_2110)"/>
<path d="M1497.32 240.363H1437.96L1378.61 301.733H1437.96L1497.32 240.363Z" fill="url(#paint16_linear_91_2110)"/>
<path d="M1437.66 180H1498.33L1449.19 239.454H1437.66V180Z" fill="url(#paint17_linear_91_2110)"/>
<path d="M1497.72 240.061H1437.66" stroke="url(#paint18_linear_91_2110)"/>
<path d="M1437.66 242.376V182.012" stroke="url(#paint19_linear_91_2110)"/>
<path d="M1195.5 210.182L1279.01 306.21V379.971L1195.5 293.685V210.182Z" fill="url(#paint20_linear_91_2110)"/>
<path d="M1113.39 293.685H1195.5L1277.61 378.579H1195.5L1113.39 293.685Z" fill="url(#paint21_linear_91_2110)"/>
<path d="M1195.92 210.182H1112L1179.98 292.426H1195.92V210.182Z" fill="url(#paint22_linear_91_2110)"/>
<path d="M1112 210.182L1112.84 292.426H1179.56V272.704L1112 210.182Z" fill="url(#paint23_linear_91_2110)"/>
<path d="M1112.84 293.266H1195.92" stroke="url(#paint24_linear_91_2110)"/>
<path d="M1195.92 296.468V212.193" stroke="url(#paint25_linear_91_2110)"/>
<path d="M1364.6 379.2L1299.29 454.308V512L1364.6 444.512V379.2Z" fill="url(#paint26_linear_91_2110)"/>
<path d="M1428.83 444.512H1364.6L1300.38 510.912H1364.6L1428.83 444.512Z" fill="url(#paint27_linear_91_2110)"/>
<path d="M1364.28 379.2H1429.92L1376.75 443.527H1364.28V379.2Z" fill="url(#paint28_linear_91_2110)"/>
<path d="M1429.92 379.2L1429.26 443.527H1377.08V428.102L1429.92 379.2Z" fill="url(#paint29_linear_91_2110)"/>
<path d="M1429.26 444.184H1364.28" stroke="url(#paint30_linear_91_2110)"/>
<path d="M1364.28 446.688V381.377" stroke="url(#paint31_linear_91_2110)"/>
<g filter="url(#filter0_d_91_2110)">
<path d="M445.638 173.2V218H428.998V196.688L416.774 218H405.894L393.67 196.688V218H377.03V173.2H397.51L411.334 198.8L425.158 173.2H445.638ZM464.858 173.2V218H448.218V173.2H464.858ZM508.493 173.2H525.133V218H503.373L484.045 191.568V218H467.405V173.2H489.165L508.493 199.632V173.2ZM544.358 173.2V218H527.718V173.2H544.358ZM571.89 195.536C571.89 179.984 580.338 172.56 600.05 172.56C617.97 172.56 627.314 178.832 628.018 192.976H610.994C610.354 188.752 607.09 186.64 600.05 186.64C590.194 186.64 588.53 190.8 588.53 195.536C588.53 200.336 590.258 204.56 600.05 204.56C607.09 204.56 610.354 202.384 610.994 198.096H628.018C627.314 212.304 618.034 218.64 600.05 218.64C580.338 218.64 571.89 211.152 571.89 195.536ZM672.848 173.2H689.488V218H672.848V202.64H646.608V218H629.968V173.2H646.608V188.56H672.848V173.2ZM734.285 218L731.213 209.936H712.141L709.069 218H690.765L709.325 173.2H734.029L752.589 218H734.285ZM716.493 198.416H726.861L721.677 184.72L716.493 198.416ZM770.545 203.92H799.985V218H753.905V173.2H770.545V203.92ZM818.545 203.92H847.985V218H801.905V173.2H818.545V203.92ZM897.265 186H866.545V190.16H897.265V201.04H866.545V205.2H897.265V218H849.905V173.2H897.265V186ZM940.243 173.2H956.883V218H935.123L915.795 191.568V218H899.155V173.2H920.915L940.243 199.632V173.2ZM985.275 202.576V193.616H1014.33V218H1004.73L1003.51 211.536C999.739 215.952 993.851 218.64 984.443 218.64C967.931 218.64 958.203 211.152 958.203 195.536C958.203 179.984 967.931 172.56 986.363 172.56C1004.28 172.56 1013.63 178.832 1014.33 191.056H997.307C996.667 188.752 993.403 186.64 986.363 186.64C976.507 186.64 974.843 190.8 974.843 196.176C974.843 201.616 976.571 206.48 986.363 206.48C992.763 206.48 996.667 205.584 997.307 202.576H985.275ZM1063.64 186H1032.92V190.16H1063.64V201.04H1032.92V205.2H1063.64V218H1016.28V173.2H1063.64V186Z" fill="#F3EEE7"/>
</g>
<path d="M579.192 341.72C575.736 341.72 572.752 340.968 570.24 339.464C567.744 337.96 565.816 335.856 564.456 333.152C563.112 330.448 562.44 327.304 562.44 323.72C562.44 320.136 563.112 316.992 564.456 314.288C565.816 311.584 567.744 309.48 570.24 307.976C572.752 306.472 575.736 305.72 579.192 305.72C583.16 305.72 586.488 306.704 589.176 308.672C591.88 310.64 593.784 313.304 594.888 316.664L588.312 318.488C587.672 316.392 586.592 314.768 585.072 313.616C583.552 312.448 581.592 311.864 579.192 311.864C577 311.864 575.168 312.352 573.696 313.328C572.24 314.304 571.144 315.68 570.408 317.456C569.672 319.232 569.304 321.32 569.304 323.72C569.304 326.12 569.672 328.208 570.408 329.984C571.144 331.76 572.24 333.136 573.696 334.112C575.168 335.088 577 335.576 579.192 335.576C581.592 335.576 583.552 334.992 585.072 333.824C586.592 332.656 587.672 331.032 588.312 328.952L594.888 330.776C593.784 334.136 591.88 336.8 589.176 338.768C586.488 340.736 583.16 341.72 579.192 341.72ZM611.837 341.72C609.229 341.72 606.941 341.136 604.973 339.968C603.005 338.8 601.469 337.192 600.365 335.144C599.277 333.08 598.733 330.712 598.733 328.04C598.733 325.336 599.293 322.96 600.413 320.912C601.533 318.848 603.077 317.24 605.045 316.088C607.013 314.936 609.277 314.36 611.837 314.36C614.445 314.36 616.733 314.944 618.701 316.112C620.685 317.28 622.229 318.896 623.333 320.96C624.437 323.008 624.989 325.368 624.989 328.04C624.989 330.728 624.429 333.104 623.309 335.168C622.205 337.216 620.661 338.824 618.677 339.992C616.709 341.144 614.429 341.72 611.837 341.72ZM611.837 335.624C613.933 335.624 615.493 334.92 616.517 333.512C617.557 332.088 618.077 330.264 618.077 328.04C618.077 325.736 617.549 323.896 616.493 322.52C615.453 321.144 613.901 320.456 611.837 320.456C610.413 320.456 609.245 320.776 608.333 321.416C607.421 322.056 606.741 322.944 606.293 324.08C605.861 325.216 605.645 326.536 605.645 328.04C605.645 330.36 606.165 332.208 607.205 333.584C608.261 334.944 609.805 335.624 611.837 335.624ZM661.466 341V325.688C661.466 323.976 661.058 322.648 660.242 321.704C659.442 320.744 658.33 320.264 656.906 320.264C655.994 320.264 655.202 320.48 654.53 320.912C653.858 321.328 653.33 321.92 652.946 322.688C652.578 323.44 652.394 324.312 652.394 325.304L649.658 323.48C649.658 321.704 650.074 320.136 650.906 318.776C651.754 317.416 652.882 316.36 654.29 315.608C655.714 314.84 657.29 314.456 659.018 314.456C661.978 314.456 664.21 315.336 665.714 317.096C667.234 318.84 667.994 321.128 667.994 323.96V341H661.466ZM630.218 341V315.08H635.978V323.672H636.794V341H630.218ZM645.866 341V325.688C645.866 323.976 645.458 322.648 644.642 321.704C643.842 320.744 642.73 320.264 641.306 320.264C639.946 320.264 638.85 320.736 638.018 321.68C637.202 322.608 636.794 323.816 636.794 325.304L634.058 323.384C634.058 321.688 634.482 320.168 635.33 318.824C636.178 317.48 637.314 316.416 638.738 315.632C640.178 314.848 641.786 314.456 643.562 314.456C645.594 314.456 647.258 314.888 648.554 315.752C649.866 316.616 650.834 317.768 651.458 319.208C652.082 320.648 652.394 322.232 652.394 323.96V341H645.866ZM674.715 311.48V305.72H681.243V311.48H674.715ZM674.715 341V315.08H681.243V341H674.715ZM706.102 341V328.76C706.102 328.168 706.07 327.416 706.006 326.504C705.942 325.576 705.742 324.648 705.406 323.72C705.07 322.792 704.518 322.016 703.75 321.392C702.998 320.768 701.926 320.456 700.534 320.456C699.974 320.456 699.374 320.544 698.734 320.72C698.094 320.896 697.494 321.24 696.934 321.752C696.374 322.248 695.91 322.984 695.542 323.96C695.19 324.936 695.014 326.232 695.014 327.848L691.27 326.072C691.27 324.024 691.686 322.104 692.518 320.312C693.35 318.52 694.598 317.072 696.262 315.968C697.942 314.864 700.054 314.312 702.598 314.312C704.63 314.312 706.286 314.656 707.566 315.344C708.846 316.032 709.838 316.904 710.542 317.96C711.262 319.016 711.774 320.12 712.078 321.272C712.382 322.408 712.566 323.448 712.63 324.392C712.694 325.336 712.726 326.024 712.726 326.456V341H706.102ZM688.39 341V315.08H694.198V323.672H695.014V341H688.39ZM730.042 353.24C728.57 353.24 727.17 353 725.842 352.52C724.514 352.056 723.322 351.4 722.266 350.552C721.226 349.72 720.378 348.744 719.722 347.624L725.77 344.696C726.186 345.464 726.778 346.048 727.546 346.448C728.33 346.848 729.178 347.048 730.09 347.048C731.066 347.048 731.986 346.88 732.85 346.544C733.714 346.224 734.402 345.736 734.914 345.08C735.442 344.44 735.69 343.64 735.658 342.68V335.144H736.474V315.08H742.186V342.776C742.186 343.416 742.154 344.016 742.09 344.576C742.042 345.152 741.946 345.72 741.802 346.28C741.386 347.864 740.61 349.168 739.474 350.192C738.354 351.216 736.978 351.976 735.346 352.472C733.714 352.984 731.946 353.24 730.042 353.24ZM729.466 341.72C727.082 341.72 724.994 341.12 723.202 339.92C721.41 338.72 720.01 337.088 719.002 335.024C718.01 332.96 717.514 330.632 717.514 328.04C717.514 325.4 718.018 323.056 719.026 321.008C720.05 318.944 721.482 317.32 723.322 316.136C725.162 314.952 727.322 314.36 729.802 314.36C732.266 314.36 734.338 314.96 736.018 316.16C737.698 317.36 738.97 318.992 739.834 321.056C740.698 323.12 741.13 325.448 741.13 328.04C741.13 330.632 740.69 332.96 739.81 335.024C738.946 337.088 737.65 338.72 735.922 339.92C734.194 341.12 732.042 341.72 729.466 341.72ZM730.522 335.912C731.978 335.912 733.138 335.584 734.002 334.928C734.882 334.272 735.514 333.352 735.898 332.168C736.282 330.984 736.474 329.608 736.474 328.04C736.474 326.472 736.282 325.096 735.898 323.912C735.514 322.728 734.898 321.808 734.05 321.152C733.218 320.496 732.122 320.168 730.762 320.168C729.306 320.168 728.106 320.528 727.162 321.248C726.234 321.952 725.546 322.904 725.098 324.104C724.65 325.288 724.426 326.6 724.426 328.04C724.426 329.496 724.642 330.824 725.074 332.024C725.506 333.208 726.17 334.152 727.066 334.856C727.962 335.56 729.114 335.912 730.522 335.912ZM771.572 341.72C769.012 341.72 766.7 341.272 764.636 340.376C762.588 339.464 760.9 338.168 759.572 336.488C758.26 334.792 757.428 332.776 757.076 330.44L763.892 329.432C764.372 331.416 765.364 332.944 766.868 334.016C768.372 335.088 770.084 335.624 772.004 335.624C773.076 335.624 774.116 335.456 775.124 335.12C776.132 334.784 776.956 334.288 777.596 333.632C778.252 332.976 778.58 332.168 778.58 331.208C778.58 330.856 778.524 330.52 778.412 330.2C778.316 329.864 778.148 329.552 777.908 329.264C777.668 328.976 777.324 328.704 776.876 328.448C776.444 328.192 775.892 327.96 775.22 327.752L766.244 325.112C765.572 324.92 764.788 324.648 763.892 324.296C763.012 323.944 762.156 323.44 761.324 322.784C760.492 322.128 759.796 321.264 759.236 320.192C758.692 319.104 758.42 317.736 758.42 316.088C758.42 313.768 759.004 311.84 760.172 310.304C761.34 308.768 762.9 307.624 764.852 306.872C766.804 306.12 768.964 305.752 771.332 305.768C773.716 305.8 775.844 306.208 777.716 306.992C779.588 307.776 781.156 308.92 782.42 310.424C783.684 311.912 784.596 313.736 785.156 315.896L778.1 317.096C777.844 315.976 777.372 315.032 776.684 314.264C775.996 313.496 775.172 312.912 774.212 312.512C773.268 312.112 772.276 311.896 771.236 311.864C770.212 311.832 769.244 311.976 768.332 312.296C767.436 312.6 766.7 313.048 766.124 313.64C765.564 314.232 765.284 314.936 765.284 315.752C765.284 316.504 765.516 317.12 765.98 317.6C766.444 318.064 767.028 318.44 767.732 318.728C768.436 319.016 769.156 319.256 769.892 319.448L775.892 321.08C776.788 321.32 777.78 321.64 778.868 322.04C779.956 322.424 780.996 322.968 781.988 323.672C782.996 324.36 783.82 325.272 784.46 326.408C785.116 327.544 785.444 328.984 785.444 330.728C785.444 332.584 785.052 334.208 784.268 335.6C783.5 336.976 782.46 338.12 781.148 339.032C779.836 339.928 778.348 340.6 776.684 341.048C775.036 341.496 773.332 341.72 771.572 341.72ZM802.383 341.72C799.775 341.72 797.487 341.136 795.519 339.968C793.551 338.8 792.015 337.192 790.911 335.144C789.823 333.08 789.279 330.712 789.279 328.04C789.279 325.336 789.839 322.96 790.959 320.912C792.079 318.848 793.623 317.24 795.591 316.088C797.559 314.936 799.823 314.36 802.383 314.36C804.991 314.36 807.279 314.944 809.247 316.112C811.231 317.28 812.775 318.896 813.879 320.96C814.983 323.008 815.535 325.368 815.535 328.04C815.535 330.728 814.975 333.104 813.855 335.168C812.751 337.216 811.207 338.824 809.223 339.992C807.255 341.144 804.975 341.72 802.383 341.72ZM802.383 335.624C804.479 335.624 806.039 334.92 807.063 333.512C808.103 332.088 808.623 330.264 808.623 328.04C808.623 325.736 808.095 323.896 807.039 322.52C805.999 321.144 804.447 320.456 802.383 320.456C800.959 320.456 799.791 320.776 798.879 321.416C797.967 322.056 797.287 322.944 796.839 324.08C796.407 325.216 796.191 326.536 796.191 328.04C796.191 330.36 796.711 332.208 797.751 333.584C798.807 334.944 800.351 335.624 802.383 335.624ZM832.477 341.72C829.869 341.72 827.581 341.136 825.613 339.968C823.645 338.8 822.109 337.192 821.005 335.144C819.917 333.08 819.373 330.712 819.373 328.04C819.373 325.336 819.933 322.96 821.053 320.912C822.173 318.848 823.717 317.24 825.685 316.088C827.653 314.936 829.917 314.36 832.477 314.36C835.085 314.36 837.373 314.944 839.341 316.112C841.325 317.28 842.869 318.896 843.973 320.96C845.077 323.008 845.629 325.368 845.629 328.04C845.629 330.728 845.069 333.104 843.949 335.168C842.845 337.216 841.301 338.824 839.317 339.992C837.349 341.144 835.069 341.72 832.477 341.72ZM832.477 335.624C834.573 335.624 836.133 334.92 837.157 333.512C838.197 332.088 838.717 330.264 838.717 328.04C838.717 325.736 838.189 323.896 837.133 322.52C836.093 321.144 834.541 320.456 832.477 320.456C831.053 320.456 829.885 320.776 828.973 321.416C828.061 322.056 827.381 322.944 826.933 324.08C826.501 325.216 826.285 326.536 826.285 328.04C826.285 330.36 826.805 332.208 827.845 333.584C828.901 334.944 830.445 335.624 832.477 335.624ZM868.571 341V328.76C868.571 328.168 868.539 327.416 868.475 326.504C868.411 325.576 868.211 324.648 867.875 323.72C867.539 322.792 866.987 322.016 866.219 321.392C865.467 320.768 864.395 320.456 863.003 320.456C862.443 320.456 861.843 320.544 861.203 320.72C860.563 320.896 859.963 321.24 859.403 321.752C858.843 322.248 858.379 322.984 858.011 323.96C857.659 324.936 857.483 326.232 857.483 327.848L853.739 326.072C853.739 324.024 854.155 322.104 854.987 320.312C855.819 318.52 857.067 317.072 858.731 315.968C860.411 314.864 862.523 314.312 865.067 314.312C867.099 314.312 868.755 314.656 870.035 315.344C871.315 316.032 872.307 316.904 873.011 317.96C873.731 319.016 874.243 320.12 874.547 321.272C874.851 322.408 875.035 323.448 875.099 324.392C875.163 325.336 875.195 326.024 875.195 326.456V341H868.571ZM850.859 341V315.08H856.667V323.672H857.483V341H850.859Z" fill="#F3EEE7"/>
</g>
<defs>
<filter id="filter0_d_91_2110" x="373.03" y="172.56" width="690.61" height="50.0801" filterUnits="userSpaceOnUse" color-interpolation-filters="sRGB">
<feFlood flood-opacity="0" result="BackgroundImageFix"/>
<feColorMatrix in="SourceAlpha" type="matrix" values="0 0 0 0 0 0 0 0 0 0 0 0 0 0 0 0 0 0 127 0" result="hardAlpha"/>
<feOffset dx="-4" dy="4"/>
<feComposite in2="hardAlpha" operator="out"/>
<feColorMatrix type="matrix" values="0 0 0 0 0.254902 0 0 0 0 0.211765 0 0 0 0 0.529412 0 0 0 1 0"/>
<feBlend mode="normal" in2="BackgroundImageFix" result="effect1_dropShadow_91_2110"/>
<feBlend mode="normal" in="SourceGraphic" in2="effect1_dropShadow_91_2110" result="shape"/>
</filter>
<radialGradient id="paint0_radial_91_2110" cx="0" cy="0" r="1" gradientUnits="userSpaceOnUse" gradientTransform="translate(720 298.5) rotate(96.0552) scale(421.854 844.532)">
<stop stop-color="#B398DD"/>
<stop offset="0.921875" stop-color="#5F4A8B"/>
</radialGradient>
<radialGradient id="paint1_radial_91_2110" cx="0" cy="0" r="1" gradientUnits="userSpaceOnUse" gradientTransform="translate(720 298.5) rotate(65.8942) scale(385.63 930.162)">
<stop stop-color="#E860CA"/>
<stop offset="1" stop-color="#541099"/>
</radialGradient>
<radialGradient id="paint2_radial_91_2110" cx="0" cy="0" r="1" gradientUnits="userSpaceOnUse" gradientTransform="translate(96 447) rotate(90) scale(465)">
<stop stop-color="#7838E2"/>
<stop offset="1" stop-color="#45C0E6" stop-opacity="0"/>
</radialGradient>
<radialGradient id="paint3_radial_91_2110" cx="0" cy="0" r="1" gradientUnits="userSpaceOnUse" gradientTransform="translate(1228 132) rotate(90) scale(465)">
<stop stop-color="#E238D1"/>
<stop offset="1" stop-color="#4555E6" stop-opacity="0"/>
</radialGradient>
<linearGradient id="paint4_linear_91_2110" x1="2.36377" y1="359.188" x2="62.7274" y2="435.648" gradientUnits="userSpaceOnUse">
<stop stop-color="#E22727"/>
<stop offset="1" stop-color="#0A0223"/>
</linearGradient>
<linearGradient id="paint5_linear_91_2110" x1="1.35738" y1="388.363" x2="15.4422" y2="450.739" gradientUnits="userSpaceOnUse">
<stop stop-color="#B21515"/>
<stop offset="1" stop-color="#0A0223"/>
</linearGradient>
<linearGradient id="paint6_linear_91_2110" x1="-22.5098" y1="328" x2="-16.651" y2="382.425" gradientUnits="userSpaceOnUse">
<stop stop-color="#E22727"/>
<stop offset="0.529167" stop-color="#871725"/>
<stop offset="1" stop-color="#0A0223"/>
</linearGradient>
<linearGradient id="paint7_linear_91_2110" x1="-58.0002" y1="388.211" x2="2.3634" y2="388.211" gradientUnits="userSpaceOnUse">
<stop stop-color="#AA1416"/>
<stop offset="0.289583" stop-color="#B21515"/>
<stop offset="1" stop-color="#B21515"/>
</linearGradient>
<linearGradient id="paint8_linear_91_2110" x1="2.51625" y1="331.018" x2="4.53877" y2="390.324" gradientUnits="userSpaceOnUse">
<stop stop-color="#E22727"/>
<stop offset="0.506946" stop-color="#D92627"/>
<stop offset="1" stop-color="#B21515"/>
</linearGradient>
<linearGradient id="paint9_linear_91_2110" x1="241.806" y1="440.679" x2="161.321" y2="496.012" gradientUnits="userSpaceOnUse">
<stop stop-color="#F8A22D"/>
<stop offset="1" stop-color="#0A0223"/>
</linearGradient>
<linearGradient id="paint10_linear_91_2110" x1="246.216" y1="441.685" x2="226.732" y2="527.971" gradientUnits="userSpaceOnUse">
<stop stop-color="#F8A22D"/>
<stop offset="1" stop-color="#0A0223"/>
</linearGradient>
<linearGradient id="paint11_linear_91_2110" x1="279.232" y1="358.182" x2="271.128" y2="433.469" gradientUnits="userSpaceOnUse">
<stop stop-color="#F8A22D"/>
<stop offset="0.586458" stop-color="#805228"/>
<stop offset="1" stop-color="#0A0223"/>
</linearGradient>
<linearGradient id="paint12_linear_91_2110" x1="327.488" y1="395.527" x2="247.981" y2="417.956" gradientUnits="userSpaceOnUse">
<stop stop-color="#F8A22D"/>
<stop offset="0.529167" stop-color="#7E5028"/>
<stop offset="1" stop-color="#0A0223"/>
</linearGradient>
<linearGradient id="paint13_linear_91_2110" x1="328.327" y1="441.416" x2="244.824" y2="441.416" gradientUnits="userSpaceOnUse">
<stop stop-color="#F8A22D"/>
<stop offset="1" stop-color="#F8A22D"/>
</linearGradient>
<linearGradient id="paint14_linear_91_2110" x1="244.556" y1="362.356" x2="240.689" y2="444.309" gradientUnits="userSpaceOnUse">
<stop stop-color="#F8A22D"/>
<stop offset="0.477083" stop-color="#F19D2D"/>
<stop offset="1" stop-color="#F8A22D"/>
<stop offset="1" stop-color="#F8A22D"/>
</linearGradient>
<linearGradient id="paint15_linear_91_2110" x1="1437.96" y1="211.188" x2="1377.6" y2="287.648" gradientUnits="userSpaceOnUse">
<stop stop-color="#E22727"/>
<stop offset="1" stop-color="#0A0223"/>
</linearGradient>
<linearGradient id="paint16_linear_91_2110" x1="1438.97" y1="240.363" x2="1424.88" y2="302.739" gradientUnits="userSpaceOnUse">
<stop stop-color="#B21515"/>
<stop offset="1" stop-color="#0A0223"/>
</linearGradient>
<linearGradient id="paint17_linear_91_2110" x1="1462.84" y1="180" x2="1456.98" y2="234.425" gradientUnits="userSpaceOnUse">
<stop stop-color="#E22727"/>
<stop offset="0.529167" stop-color="#871725"/>
<stop offset="1" stop-color="#0A0223"/>
</linearGradient>
<linearGradient id="paint18_linear_91_2110" x1="1498.33" y1="240.211" x2="1437.96" y2="240.211" gradientUnits="userSpaceOnUse">
<stop stop-color="#AA1416"/>
<stop offset="0.289583" stop-color="#B21515"/>
<stop offset="1" stop-color="#B21515"/>
</linearGradient>
<linearGradient id="paint19_linear_91_2110" x1="1437.81" y1="183.018" x2="1435.79" y2="242.324" gradientUnits="userSpaceOnUse">
<stop stop-color="#E22727"/>
<stop offset="0.506946" stop-color="#D92627"/>
<stop offset="1" stop-color="#B21515"/>
</linearGradient>
<linearGradient id="paint20_linear_91_2110" x1="1198.52" y1="292.679" x2="1279.01" y2="348.012" gradientUnits="userSpaceOnUse">
<stop stop-color="#F8A22D"/>
<stop offset="1" stop-color="#0A0223"/>
</linearGradient>
<linearGradient id="paint21_linear_91_2110" x1="1194.11" y1="293.685" x2="1213.6" y2="379.971" gradientUnits="userSpaceOnUse">
<stop stop-color="#F8A22D"/>
<stop offset="1" stop-color="#0A0223"/>
</linearGradient>
<linearGradient id="paint22_linear_91_2110" x1="1161.09" y1="210.182" x2="1169.2" y2="285.469" gradientUnits="userSpaceOnUse">
<stop stop-color="#F8A22D"/>
<stop offset="0.586458" stop-color="#805228"/>
<stop offset="1" stop-color="#0A0223"/>
</linearGradient>
<linearGradient id="paint23_linear_91_2110" x1="1112.84" y1="247.527" x2="1192.35" y2="269.956" gradientUnits="userSpaceOnUse">
<stop stop-color="#F8A22D"/>
<stop offset="0.529167" stop-color="#7E5028"/>
<stop offset="1" stop-color="#0A0223"/>
</linearGradient>
<linearGradient id="paint24_linear_91_2110" x1="1112" y1="293.416" x2="1195.5" y2="293.416" gradientUnits="userSpaceOnUse">
<stop stop-color="#F8A22D"/>
<stop offset="1" stop-color="#F8A22D"/>
</linearGradient>
<linearGradient id="paint25_linear_91_2110" x1="1195.77" y1="214.356" x2="1199.64" y2="296.309" gradientUnits="userSpaceOnUse">
<stop stop-color="#F8A22D"/>
<stop offset="0.477083" stop-color="#F19D2D"/>
<stop offset="1" stop-color="#F8A22D"/>
<stop offset="1" stop-color="#F8A22D"/>
</linearGradient>
<linearGradient id="paint26_linear_91_2110" x1="1363.52" y1="441.073" x2="1299.29" y2="495.672" gradientUnits="userSpaceOnUse">
<stop stop-color="#48BAA9"/>
<stop offset="1" stop-color="#0A0223"/>
</linearGradient>
<linearGradient id="paint27_linear_91_2110" x1="1365.69" y1="444.512" x2="1350.45" y2="512" gradientUnits="userSpaceOnUse">
<stop stop-color="#48BAA9"/>
<stop offset="1" stop-color="#0A0223"/>
</linearGradient>
<linearGradient id="paint28_linear_91_2110" x1="1391.52" y1="379.2" x2="1385.18" y2="438.086" gradientUnits="userSpaceOnUse">
<stop stop-color="#48BAA9"/>
<stop offset="0.513542" stop-color="#295D66"/>
<stop offset="1" stop-color="#0A0223"/>
</linearGradient>
<linearGradient id="paint29_linear_91_2110" x1="1429.26" y1="408.41" x2="1367.07" y2="425.953" gradientUnits="userSpaceOnUse">
<stop stop-color="#48BAA9"/>
<stop offset="0.560417" stop-color="#2B656B"/>
<stop offset="1" stop-color="#0A0223"/>
</linearGradient>
<linearGradient id="paint30_linear_91_2110" x1="1428.41" y1="444.153" x2="1365.02" y2="444.153" gradientUnits="userSpaceOnUse">
<stop stop-color="#48BAA9"/>
<stop offset="1" stop-color="#48B8A8"/>
</linearGradient>
<linearGradient id="paint31_linear_91_2110" x1="1364.52" y1="382.218" x2="1362.52" y2="445.544" gradientUnits="userSpaceOnUse">
<stop stop-color="#48BAA9"/>
<stop offset="1" stop-color="#47B6A6"/>
</linearGradient>
<clipPath id="clip0_91_2110">
<rect width="1440" height="597" fill="white"/>
</clipPath>
</defs>
</svg>
